M48
METRIC,TZ
T1C0.400
T2C0.600
T3C0.700
T4C0.750
T5C0.800
T6C0.900
T7C1.100
T8C1.600
%
G90
G05
T1
X60375Y-145860
X60447Y-149540
X61257Y-156930
X65635Y-166447
X67197Y-161810
X67327Y-158450
X67887Y-143060
X70317Y-161830
X71357Y-135890
X73665Y-122720
X74447Y-117850
X75197Y-158010
X75617Y-118140
X76207Y-155720
X77317Y-135200
X77737Y-141280
X79772Y-132580
X80137Y-100030
X83967Y-114890
X84087Y-117970
X84217Y-110620
X85057Y-153670
X85097Y-155650
X85227Y-158020
X85407Y-121030
X85757Y-143040
X86297Y-134960
X88387Y-142880
X90617Y-124790
X90867Y-142810
X93767Y-167690
X94077Y-125450
X94137Y-160150
X94757Y-134530
X95667Y-120360
X96377Y-114760
X96797Y-123430
X98157Y-126396
X99137Y-115485
X99517Y-107396
X100027Y-131372
X100077Y-159100
X100087Y-156390
X100317Y-115810
X101177Y-150180
X101697Y-165660
X101777Y-95564
X102347Y-151430
X102417Y-132037
X102797Y-170000
X103207Y-110804
X103687Y-167270
X104147Y-170020
X104427Y-91460
X105267Y-160750
X105287Y-164840
X105507Y-156200
X105715Y-177433
X105857Y-135920
X106337Y-149920
X106627Y-130020
X106657Y-125150
X107027Y-119640
X107267Y-132437
X107757Y-123300
X108037Y-150710
X108947Y-134890
X109077Y-124390
X109607Y-137840
X110372Y-126925
X110797Y-137930
X110897Y-178500
X111147Y-155990
X111247Y-126000
X112167Y-119850
X112927Y-134637
X113207Y-166730
X113897Y-161610
X114117Y-159690
X114140Y-139630
X114297Y-135152
X114417Y-132560
X114632Y-133537
X115603Y-130764
X115787Y-120410
X115937Y-133850
X116137Y-142760
X119347Y-140780
X119367Y-144220
X119527Y-143220
X119707Y-121080
X119957Y-123815
X122237Y-145860
X123777Y-117670
X125907Y-126760
X128927Y-139872
X129348Y-140782
X130342Y-140675
X130762Y-139645
X133767Y-165580
X133924Y-133720
X134097Y-126610
X134497Y-167931
X134527Y-164220
X134624Y-135510
X134857Y-133320
X134989Y-170729
X135198Y-126711
X135367Y-167420
X135387Y-169811
X135603Y-133986
X136537Y-121722
X139747Y-109240
X140047Y-138950
X141257Y-139330
X141847Y-108480
X145527Y-114940
X148447Y-130600
T2
X77577Y-150170
X79577Y-150170
T3
X60402Y-138680
X60402Y-143760
X62942Y-148840
X62942Y-153920
X62942Y-155920
X62942Y-161000
X65482Y-131060
X65482Y-136140
X68022Y-148840
X68022Y-153920
X70562Y-148840
X70562Y-153920
X73102Y-148840
X73102Y-153920
X74037Y-180580
X74037Y-185660
X81637Y-173000
X81637Y-178080
X81637Y-180580
X81637Y-185660
X82687Y-153380
X82687Y-155920
X82687Y-158020
X82687Y-170720
X84037Y-180580
X84037Y-185660
X84997Y-164660
X84997Y-167200
X87767Y-158020
X87767Y-170720
X88342Y-136140
X92837Y-180580
X92837Y-185660
X93422Y-136140
X98512Y-138180
X100367Y-173260
X103592Y-138180
X105447Y-173260
X116877Y-180580
X116877Y-185660
X119277Y-180580
X119277Y-185660
X120337Y-175050
X121727Y-147490
X124267Y-147490
X124267Y-150490
X124267Y-153030
X125417Y-175050
X126367Y-152940
X126367Y-158020
X128077Y-180580
X128077Y-185660
X138077Y-180580
X138077Y-185660
X139127Y-173830
X140227Y-99510
X144207Y-173830
X145307Y-99510
X146617Y-163100
X146617Y-168180
T4
X62137Y-104110
X62137Y-105380
X62137Y-106650
X71137Y-104110
X71137Y-105380
X71137Y-106650
X80137Y-104110
X80137Y-105380
X80137Y-106650
X130737Y-104110
X130737Y-105380
X130737Y-106650
X139737Y-104110
X139737Y-105380
X139737Y-106650
X148737Y-104110
X148737Y-105380
X148737Y-106650
T5
X62137Y-121310
X62137Y-128930
X62942Y-138680
X62942Y-146300
X65482Y-138680
X65482Y-146300
X65482Y-148840
X66997Y-105380
X66997Y-113000
X68022Y-138680
X68022Y-146300
X70167Y-134310
X70562Y-138680
X70562Y-146300
X71137Y-121310
X71137Y-128930
X73102Y-138680
X73102Y-146300
X75047Y-134310
X75642Y-138680
X75642Y-146300
X75997Y-105380
X75997Y-113000
X77687Y-160570
X77687Y-163570
X78182Y-138680
X78182Y-146300
X79767Y-133980
X79767Y-136080
X80137Y-121310
X80137Y-128930
X80722Y-138680
X80722Y-146300
X82267Y-133980
X82267Y-136080
X82687Y-160570
X82687Y-163570
X83262Y-138680
X83262Y-146300
X83262Y-148840
X84497Y-105380
X84497Y-113000
X85802Y-138680
X85802Y-146300
X85802Y-148840
X87757Y-93860
X87757Y-109100
X88342Y-138680
X88342Y-146300
X88342Y-148840
X89137Y-121310
X89137Y-128930
X90267Y-152450
X90267Y-155480
X90267Y-158020
X90267Y-160560
X90267Y-163100
X90267Y-165640
X90267Y-168180
X90267Y-170720
X90267Y-173260
X90297Y-93860
X90297Y-109100
X90882Y-138680
X90882Y-146300
X90882Y-148840
X92837Y-93860
X92837Y-109100
X93422Y-138680
X93422Y-146300
X94057Y-112860
X94057Y-128100
X95267Y-152450
X95377Y-93860
X95377Y-109100
X95962Y-138680
X95962Y-146300
X96597Y-112860
X96597Y-128100
X97887Y-155480
X97887Y-158020
X97887Y-160560
X97887Y-163100
X97887Y-165640
X97887Y-168180
X97887Y-170720
X97887Y-173260
X97917Y-93860
X97917Y-109100
X98612Y-140730
X98612Y-143730
X99137Y-112860
X99137Y-128100
X100357Y-93860
X100357Y-109100
X101677Y-112860
X101677Y-128100
X102897Y-93860
X102897Y-109100
X104217Y-112860
X104217Y-128100
X105437Y-93860
X105437Y-109100
X106232Y-140730
X106232Y-143730
X106427Y-168180
X106427Y-170720
X106657Y-112860
X106657Y-128100
X107977Y-93860
X107977Y-109100
X108967Y-155480
X108967Y-158020
X108967Y-160560
X108967Y-163100
X108967Y-165640
X108967Y-168180
X108967Y-170720
X108967Y-173260
X109197Y-112860
X109197Y-128100
X110517Y-93860
X110517Y-109100
X111737Y-112860
X111737Y-128100
X112957Y-93860
X112957Y-109100
X114277Y-112860
X114277Y-128100
X115497Y-93860
X115497Y-109100
X116587Y-155480
X116587Y-158020
X116587Y-160560
X116587Y-163100
X116587Y-165640
X116587Y-168180
X116587Y-170720
X116587Y-173260
X116817Y-112860
X116817Y-128100
X118037Y-93860
X118037Y-109100
X120577Y-93860
X120577Y-109100
X120617Y-155480
X120617Y-160480
X121737Y-121310
X121737Y-128930
X123117Y-93860
X123117Y-109100
X126367Y-147490
X126367Y-150490
X126597Y-105380
X126597Y-113000
X128967Y-155480
X128967Y-158020
X128967Y-160560
X128967Y-163100
X128967Y-165640
X128967Y-168180
X128967Y-170720
X128967Y-173260
X130737Y-121310
X130737Y-128930
X131367Y-147490
X131367Y-150490
X135597Y-105380
X135597Y-113000
X136587Y-155480
X136587Y-158020
X136587Y-160560
X136587Y-163100
X136587Y-165640
X136587Y-168180
X136587Y-170720
X136587Y-173260
X139617Y-153020
X139617Y-158020
X139737Y-121310
X139737Y-128930
X144597Y-105380
X144597Y-113000
X148737Y-121310
X148737Y-128930
T6
X62137Y-116570
X62137Y-119110
X71137Y-116570
X71137Y-119110
X80137Y-116570
X80137Y-119110
X89137Y-116570
X89137Y-119110
X121737Y-116570
X121737Y-119110
X130737Y-116570
X130737Y-119110
X139737Y-116570
X139737Y-119110
X148737Y-116570
X148737Y-119110
T7
X102187Y-178355
X102187Y-182855
X108687Y-178355
X108687Y-182855
X146297Y-139780
X146297Y-152860
X150997Y-109720
X150997Y-112260
X151837Y-127120
X151837Y-129660
X151837Y-133240
X151837Y-135780
X151837Y-139780
X151837Y-142320
X151837Y-146320
X151837Y-148860
X151837Y-152860
X151837Y-155400
T8
X63637Y-167980
X66637Y-172680
X69637Y-167980
T5
G00X68337Y-178080
M15
G01X67337Y-178080
M16
G05
G00X68337Y-180580
M15
G01X67337Y-180580
M16
G05
G00X68387Y-183080
M15
G01X67287Y-183080
M16
G05
G00X78337Y-178080
M15
G01X77337Y-178080
M16
G05
G00X78337Y-180580
M15
G01X77337Y-180580
M16
G05
G00X78387Y-183080
M15
G01X77287Y-183080
M16
G05
G00X88337Y-178080
M15
G01X87337Y-178080
M16
G05
G00X88337Y-180580
M15
G01X87337Y-180580
M16
G05
G00X88387Y-183080
M15
G01X87287Y-183080
M16
G05
G00X98337Y-178080
M15
G01X97337Y-178080
M16
G05
G00X98337Y-180580
M15
G01X97337Y-180580
M16
G05
G00X98387Y-183080
M15
G01X97287Y-183080
M16
G05
G00X113577Y-178080
M15
G01X112577Y-178080
M16
G05
G00X113577Y-180580
M15
G01X112577Y-180580
M16
G05
G00X113627Y-183080
M15
G01X112527Y-183080
M16
G05
G00X123277Y-165680
M15
G01X122277Y-165680
M16
G05
G00X123277Y-168180
M15
G01X122277Y-168180
M16
G05
G00X123327Y-170680
M15
G01X122227Y-170680
M16
G05
G00X123577Y-178080
M15
G01X122577Y-178080
M16
G05
G00X123577Y-180580
M15
G01X122577Y-180580
M16
G05
G00X123627Y-183080
M15
G01X122527Y-183080
M16
G05
G00X133577Y-178080
M15
G01X132577Y-178080
M16
G05
G00X133577Y-180580
M15
G01X132577Y-180580
M16
G05
G00X133627Y-183080
M15
G01X132527Y-183080
M16
G05
G00X143277Y-165680
M15
G01X142277Y-165680
M16
G05
G00X143277Y-168180
M15
G01X142277Y-168180
M16
G05
G00X143327Y-170680
M15
G01X142227Y-170680
M16
G05
G00X143297Y-90370
M15
G01X142297Y-90370
M16
G05
G00X143297Y-92870
M15
G01X142297Y-92870
M16
G05
G00X143347Y-95370
M15
G01X142247Y-95370
M16
G05
G00X143577Y-178080
M15
G01X142577Y-178080
M16
G05
G00X143577Y-180580
M15
G01X142577Y-180580
M16
G05
G00X143627Y-183080
M15
G01X142527Y-183080
M16
G05
M30
