M48
; DRILL file {KiCad 7.0.10} date Tue Feb  6 15:02:48 2024
; FORMAT={-:-/ absolute / metric / decimal}
; #@! TF.CreationDate,2024-02-06T15:02:48+01:00
; #@! TF.GenerationSoftware,Kicad,Pcbnew,7.0.10
; #@! TF.FileFunction,Plated,1,2,PTH
FMAT,2
METRIC
; #@! TA.AperFunction,Plated,PTH,ViaDrill
T1C0.300
; #@! TA.AperFunction,Plated,PTH,ComponentDrill
T2C0.600
; #@! TA.AperFunction,Plated,PTH,ComponentDrill
T3C0.700
; #@! TA.AperFunction,Plated,PTH,ComponentDrill
T4C0.750
; #@! TA.AperFunction,Plated,PTH,ComponentDrill
T5C0.800
; #@! TA.AperFunction,Plated,PTH,ComponentDrill
T6C0.900
; #@! TA.AperFunction,Plated,PTH,ComponentDrill
T7C1.100
; #@! TA.AperFunction,Plated,PTH,ComponentDrill
T8C1.600
; #@! TA.AperFunction,Plated,PTH,ComponentDrill
T9C1.700
%
G90
G05
T1
X80.0Y-76.64
X89.662Y-60.198
X90.18Y-69.08
X95.56Y-88.09
X99.22Y-80.8
X99.69Y-66.14
X99.76Y-70.92
X101.87Y-62.11
X102.48Y-88.12
X104.63Y-87.7
X105.09Y-72.17
X105.12Y-69.35
X105.9Y-126.1
X106.934Y-100.965
X108.34Y-71.23
X109.817Y-142.329
X111.86Y-100.31
X111.86Y-108.08
X112.08Y-69.38
X113.427Y-73.162
X113.77Y-71.1
X114.46Y-85.69
X115.72Y-56.92
X117.221Y-162.052
X118.26Y-135.28
X119.97Y-64.8
X121.03Y-56.46
X122.05Y-101.83
X128.27Y-55.118
X135.06Y-140.98
X144.61Y-115.57
X145.37Y-128.32
X148.08Y-132.39
X150.59Y-128.84
X152.019Y-156.718
T2
X133.52Y-153.035
X135.52Y-153.035
T3
X83.439Y-152.273
X83.439Y-157.353
X85.598Y-152.273
X85.598Y-157.353
X87.757Y-152.273
X87.757Y-157.353
X89.916Y-152.273
X89.916Y-157.353
X90.0Y-125.18
X90.0Y-127.72
X93.6Y-127.68
X93.6Y-130.22
X113.13Y-140.56
X113.13Y-143.1
X115.697Y-126.492
X115.697Y-131.572
X115.73Y-140.56
X115.73Y-143.1
X125.603Y-148.336
X125.603Y-153.416
X127.762Y-148.336
X127.762Y-153.416
X129.921Y-148.336
X129.921Y-153.416
X138.811Y-152.273
X138.811Y-157.353
X140.97Y-152.273
X140.97Y-157.353
X143.129Y-152.273
X143.129Y-157.353
X145.288Y-152.273
X145.288Y-157.353
X147.447Y-152.273
X147.447Y-157.353
X153.289Y-135.001
X158.369Y-135.001
T4
X57.24Y-80.365
X57.24Y-81.635
X57.24Y-82.905
X64.04Y-67.835
X64.04Y-69.105
X64.04Y-70.375
X72.04Y-67.835
X72.04Y-69.105
X72.04Y-70.375
X80.04Y-67.835
X80.04Y-69.105
X80.04Y-70.375
X104.323Y-100.815
X104.323Y-102.085
X104.323Y-103.355
X116.923Y-100.815
X116.923Y-102.085
X116.923Y-103.355
T5
X57.24Y-90.865
X57.24Y-98.485
X60.41Y-69.1
X60.41Y-76.72
X60.5Y-139.39
X62.3Y-92.59
X62.3Y-100.21
X68.12Y-139.39
X68.4Y-60.79
X68.4Y-68.41
X70.3Y-92.59
X70.3Y-100.21
X76.4Y-60.79
X76.4Y-68.41
X78.3Y-92.59
X78.3Y-100.21
X86.3Y-92.59
X86.3Y-100.21
X87.71Y-113.5
X88.0Y-134.32
X90.25Y-113.5
X90.54Y-134.32
X91.823Y-102.085
X92.96Y-60.215
X92.96Y-75.455
X95.5Y-60.215
X95.5Y-75.455
X96.8Y-137.7
X98.04Y-60.215
X98.04Y-75.455
X99.26Y-79.215
X99.26Y-94.455
X99.3Y-137.7
X99.443Y-102.085
X99.5Y-119.8
X100.58Y-60.215
X100.58Y-75.455
X101.8Y-79.215
X101.8Y-94.455
X102.28Y-119.92
X102.28Y-122.46
X102.28Y-125.0
X102.28Y-127.54
X102.28Y-130.08
X102.28Y-132.62
X102.28Y-135.16
X102.28Y-137.7
X103.12Y-60.215
X103.12Y-75.455
X104.34Y-79.215
X104.34Y-94.455
X105.56Y-60.215
X105.56Y-75.455
X106.84Y-147.235
X106.84Y-149.775
X106.84Y-152.315
X106.84Y-154.855
X106.84Y-157.395
X106.84Y-159.935
X106.84Y-162.475
X106.84Y-165.015
X106.88Y-79.215
X106.88Y-94.455
X108.1Y-60.215
X108.1Y-75.455
X109.42Y-79.215
X109.42Y-94.455
X109.9Y-119.92
X109.9Y-122.46
X109.9Y-125.0
X109.9Y-127.54
X109.9Y-130.08
X109.9Y-132.62
X109.9Y-135.16
X109.9Y-137.7
X110.64Y-60.215
X110.64Y-75.455
X111.86Y-79.215
X111.86Y-94.455
X112.7Y-122.46
X112.7Y-125.0
X113.18Y-60.215
X113.18Y-75.455
X114.4Y-79.215
X114.4Y-94.455
X114.46Y-147.235
X114.46Y-149.775
X114.46Y-152.315
X114.46Y-154.855
X114.46Y-157.395
X114.46Y-159.935
X114.46Y-162.475
X114.46Y-165.015
X115.72Y-60.215
X115.72Y-75.455
X115.8Y-110.38
X115.8Y-118.0
X116.94Y-79.215
X116.94Y-94.455
X118.16Y-60.215
X118.16Y-75.455
X119.48Y-79.215
X119.48Y-94.455
X120.1Y-116.8
X120.1Y-124.42
X120.1Y-126.96
X120.11Y-137.8
X120.11Y-145.42
X120.7Y-60.215
X120.7Y-75.455
X122.02Y-79.215
X122.02Y-94.455
X122.64Y-116.8
X122.64Y-124.42
X122.65Y-137.8
X122.65Y-145.42
X123.24Y-60.215
X123.24Y-75.455
X125.18Y-116.8
X125.18Y-124.42
X125.19Y-137.8
X125.19Y-145.42
X125.65Y-128.7
X125.78Y-60.215
X125.78Y-75.455
X127.72Y-116.8
X127.72Y-124.42
X127.73Y-137.8
X127.73Y-145.42
X128.15Y-128.7
X128.27Y-133.3
X128.32Y-60.215
X128.32Y-75.455
X130.26Y-116.8
X130.26Y-124.42
X130.27Y-137.8
X130.27Y-145.42
X132.8Y-116.8
X132.8Y-124.42
X132.81Y-137.8
X132.81Y-145.42
X133.15Y-133.3
X134.9Y-92.59
X134.9Y-100.21
X135.34Y-116.8
X135.34Y-124.42
X135.35Y-128.7
X135.35Y-137.8
X135.35Y-145.42
X135.402Y-148.209
X137.75Y-113.7
X137.85Y-128.7
X137.88Y-116.8
X137.88Y-124.42
X137.89Y-137.8
X137.89Y-145.42
X137.902Y-148.209
X140.25Y-113.7
X140.43Y-137.8
X140.43Y-145.42
X140.462Y-148.209
X142.9Y-92.59
X142.9Y-100.21
X142.97Y-137.8
X142.97Y-145.42
X143.002Y-148.209
X145.51Y-137.8
X145.51Y-145.42
X145.542Y-148.209
X148.05Y-137.8
X148.05Y-145.42
X148.082Y-148.209
X150.59Y-137.8
X150.59Y-145.42
X150.622Y-148.209
X150.9Y-92.59
X150.9Y-100.21
X153.13Y-137.8
X153.13Y-145.42
X153.162Y-148.209
X158.9Y-92.59
X158.9Y-100.21
X166.3Y-92.59
X166.3Y-100.21
T6
X62.34Y-85.57
X62.34Y-88.11
X70.34Y-85.57
X70.34Y-88.11
X78.34Y-85.57
X78.34Y-88.11
X86.34Y-85.57
X86.34Y-88.11
X134.94Y-85.565
X134.94Y-88.105
X142.94Y-85.57
X142.94Y-88.11
X150.94Y-85.57
X150.94Y-88.11
X158.94Y-85.57
X158.94Y-88.11
T7
X54.55Y-149.93
X54.55Y-152.47
X54.55Y-156.47
X54.55Y-159.01
X54.59Y-119.4
X54.59Y-121.94
X54.59Y-139.4
X54.59Y-141.94
X54.59Y-145.94
X59.63Y-156.47
X59.63Y-159.01
X150.9Y-160.275
X150.9Y-164.775
X152.1Y-57.3
X152.1Y-62.38
X154.64Y-57.3
X154.64Y-62.38
X157.4Y-160.275
X157.4Y-164.775
X161.72Y-119.02
X161.72Y-121.56
X161.72Y-125.56
X161.72Y-128.1
X166.3Y-68.87
X166.3Y-71.41
X166.3Y-75.87
X166.3Y-79.87
X166.3Y-82.41
X166.8Y-112.48
X166.8Y-115.02
X166.8Y-119.02
X166.8Y-121.56
X166.8Y-125.56
X166.8Y-128.1
T8
X58.8Y-129.7
X59.09Y-107.5
X61.8Y-134.4
X64.17Y-107.5
X64.8Y-129.7
X82.8Y-119.08
X82.8Y-134.32
T9
X59.09Y-113.5
X65.85Y-113.5
X73.13Y-113.5
X79.89Y-113.5
T5
G00X78.15Y-150.025
M15
G01X77.15Y-150.025
M16
G05
G00X78.15Y-152.525
M15
G01X77.15Y-152.525
M16
G05
G00X78.2Y-155.025
M15
G01X77.1Y-155.025
M16
G05
G00X78.15Y-160.025
M15
G01X77.15Y-160.025
M16
G05
G00X78.15Y-162.525
M15
G01X77.15Y-162.525
M16
G05
G00X78.2Y-165.025
M15
G01X77.1Y-165.025
M16
G05
G00X84.15Y-160.025
M15
G01X83.15Y-160.025
M16
G05
G00X84.15Y-162.525
M15
G01X83.15Y-162.525
M16
G05
G00X84.2Y-165.025
M15
G01X83.1Y-165.025
M16
G05
G00X90.15Y-160.025
M15
G01X89.15Y-160.025
M16
G05
G00X90.15Y-162.525
M15
G01X89.15Y-162.525
M16
G05
G00X90.2Y-165.025
M15
G01X89.1Y-165.025
M16
G05
G00X96.15Y-150.025
M15
G01X95.15Y-150.025
M16
G05
G00X96.15Y-152.525
M15
G01X95.15Y-152.525
M16
G05
G00X96.2Y-155.025
M15
G01X95.1Y-155.025
M16
G05
G00X96.15Y-160.025
M15
G01X95.15Y-160.025
M16
G05
G00X96.15Y-162.525
M15
G01X95.15Y-162.525
M16
G05
G00X96.2Y-165.025
M15
G01X95.1Y-165.025
M16
G05
G00X126.15Y-160.025
M15
G01X125.15Y-160.025
M16
G05
G00X126.15Y-162.525
M15
G01X125.15Y-162.525
M16
G05
G00X126.2Y-165.025
M15
G01X125.1Y-165.025
M16
G05
G00X132.15Y-160.025
M15
G01X131.15Y-160.025
M16
G05
G00X132.15Y-162.525
M15
G01X131.15Y-162.525
M16
G05
G00X132.2Y-165.025
M15
G01X131.1Y-165.025
M16
G05
G00X138.15Y-160.025
M15
G01X137.15Y-160.025
M16
G05
G00X138.15Y-162.525
M15
G01X137.15Y-162.525
M16
G05
G00X138.2Y-165.025
M15
G01X137.1Y-165.025
M16
G05
G00X144.15Y-160.025
M15
G01X143.15Y-160.025
M16
G05
G00X144.15Y-162.525
M15
G01X143.15Y-162.525
M16
G05
G00X144.2Y-165.025
M15
G01X143.1Y-165.025
M16
G05
G00X162.4Y-151.775
M15
G01X161.4Y-151.775
M16
G05
G00X162.4Y-154.275
M15
G01X161.4Y-154.275
M16
G05
G00X162.45Y-156.775
M15
G01X161.35Y-156.775
M16
G05
M30
