%TF.GenerationSoftware,KiCad,Pcbnew,7.0.10*%
%TF.CreationDate,2024-02-06T15:01:58+01:00*%
%TF.ProjectId,diagram_chart,64696167-7261-46d5-9f63-686172742e6b,rev?*%
%TF.SameCoordinates,Original*%
%TF.FileFunction,Copper,L1,Top*%
%TF.FilePolarity,Positive*%
%FSLAX46Y46*%
G04 Gerber Fmt 4.6, Leading zero omitted, Abs format (unit mm)*
G04 Created by KiCad (PCBNEW 7.0.10) date 2024-02-06 15:01:58*
%MOMM*%
%LPD*%
G01*
G04 APERTURE LIST*
G04 Aperture macros list*
%AMRoundRect*
0 Rectangle with rounded corners*
0 $1 Rounding radius*
0 $2 $3 $4 $5 $6 $7 $8 $9 X,Y pos of 4 corners*
0 Add a 4 corners polygon primitive as box body*
4,1,4,$2,$3,$4,$5,$6,$7,$8,$9,$2,$3,0*
0 Add four circle primitives for the rounded corners*
1,1,$1+$1,$2,$3*
1,1,$1+$1,$4,$5*
1,1,$1+$1,$6,$7*
1,1,$1+$1,$8,$9*
0 Add four rect primitives between the rounded corners*
20,1,$1+$1,$2,$3,$4,$5,0*
20,1,$1+$1,$4,$5,$6,$7,0*
20,1,$1+$1,$6,$7,$8,$9,0*
20,1,$1+$1,$8,$9,$2,$3,0*%
G04 Aperture macros list end*
%TA.AperFunction,ComponentPad*%
%ADD10O,1.600000X1.600000*%
%TD*%
%TA.AperFunction,ComponentPad*%
%ADD11C,1.600000*%
%TD*%
%TA.AperFunction,ComponentPad*%
%ADD12C,1.400000*%
%TD*%
%TA.AperFunction,ComponentPad*%
%ADD13O,1.400000X1.400000*%
%TD*%
%TA.AperFunction,ComponentPad*%
%ADD14C,1.500000*%
%TD*%
%TA.AperFunction,ComponentPad*%
%ADD15RoundRect,0.675000X-0.675000X-0.675000X0.675000X-0.675000X0.675000X0.675000X-0.675000X0.675000X0*%
%TD*%
%TA.AperFunction,ComponentPad*%
%ADD16C,2.700000*%
%TD*%
%TA.AperFunction,ComponentPad*%
%ADD17R,2.600000X2.600000*%
%TD*%
%TA.AperFunction,ComponentPad*%
%ADD18R,1.308000X1.308000*%
%TD*%
%TA.AperFunction,ComponentPad*%
%ADD19C,1.308000*%
%TD*%
%TA.AperFunction,ComponentPad*%
%ADD20R,2.200000X2.200000*%
%TD*%
%TA.AperFunction,ComponentPad*%
%ADD21C,2.200000*%
%TD*%
%TA.AperFunction,ComponentPad*%
%ADD22R,1.500000X1.050000*%
%TD*%
%TA.AperFunction,ComponentPad*%
%ADD23O,1.500000X1.050000*%
%TD*%
%TA.AperFunction,ComponentPad*%
%ADD24R,1.800000X1.800000*%
%TD*%
%TA.AperFunction,ComponentPad*%
%ADD25C,1.800000*%
%TD*%
%TA.AperFunction,ComponentPad*%
%ADD26R,1.200000X1.200000*%
%TD*%
%TA.AperFunction,ComponentPad*%
%ADD27C,1.200000*%
%TD*%
%TA.AperFunction,ComponentPad*%
%ADD28R,3.200000X3.200000*%
%TD*%
%TA.AperFunction,ComponentPad*%
%ADD29O,3.200000X3.200000*%
%TD*%
%TA.AperFunction,ComponentPad*%
%ADD30O,2.500000X1.500000*%
%TD*%
%TA.AperFunction,ComponentPad*%
%ADD31R,1.600000X1.600000*%
%TD*%
%TA.AperFunction,ComponentPad*%
%ADD32C,2.000000*%
%TD*%
%TA.AperFunction,ComponentPad*%
%ADD33C,2.600000*%
%TD*%
%TA.AperFunction,ViaPad*%
%ADD34C,0.600000*%
%TD*%
%TA.AperFunction,Conductor*%
%ADD35C,0.200000*%
%TD*%
%TA.AperFunction,Conductor*%
%ADD36C,0.500000*%
%TD*%
%TA.AperFunction,Conductor*%
%ADD37C,2.000000*%
%TD*%
%TA.AperFunction,Conductor*%
%ADD38C,1.000000*%
%TD*%
G04 APERTURE END LIST*
D10*
%TO.P,,7,QH*%
%TO.N,unconnected-(U_Caps1-QH-Pad7)*%
X112700000Y-122460000D03*
%TD*%
D11*
%TO.P,R5,1*%
%TO.N,Net-(D5-K)*%
X142900000Y-92590000D03*
D10*
%TO.P,R5,2*%
%TO.N,Net-(U1-DRAIN5)*%
X142900000Y-100210000D03*
%TD*%
D12*
%TO.P,R29,1*%
%TO.N,Net-(MCU_0-PB3)*%
X125603000Y-148336000D03*
D13*
%TO.P,R29,2*%
%TO.N,GND*%
X125603000Y-153416000D03*
%TD*%
D14*
%TO.P,Y1,1,1*%
%TO.N,Net-(MCU_0-XTAL1{slash}PB6)*%
X133150000Y-133300000D03*
%TO.P,Y1,2,2*%
%TO.N,Net-(MCU_0-XTAL2{slash}PB7)*%
X128270000Y-133300000D03*
%TD*%
D15*
%TO.P,F1,1*%
%TO.N,+5V*%
X59090000Y-113500000D03*
X65850000Y-113500000D03*
D16*
%TO.P,F1,2*%
%TO.N,Net-(D8-K)*%
X73130000Y-113500000D03*
X79890000Y-113500000D03*
%TD*%
D17*
%TO.P,,1*%
%TO.N,+5V*%
X64170000Y-107500000D03*
%TD*%
D18*
%TO.P,hex_0,1*%
%TO.N,Net-(D4-K)*%
X99260000Y-94455000D03*
D19*
%TO.P,hex_0,2*%
%TO.N,Net-(D3-K)*%
X101800000Y-94455000D03*
%TO.P,hex_0,3,CA*%
%TO.N,Net-(T_HEX_0-E)*%
X104340000Y-94455000D03*
%TO.P,hex_0,4*%
%TO.N,Net-(D2-K)*%
X106880000Y-94455000D03*
%TO.P,hex_0,5*%
%TO.N,Net-(D7-K)*%
X109420000Y-94455000D03*
%TO.P,hex_0,6*%
%TO.N,Net-(D1-K)*%
X109420000Y-79215000D03*
%TO.P,hex_0,7*%
%TO.N,Net-(D0-K)*%
X106880000Y-79215000D03*
%TO.P,hex_0,8,CA*%
%TO.N,Net-(T_HEX_0-E)*%
X104340000Y-79215000D03*
%TO.P,hex_0,9*%
%TO.N,Net-(D5-K)*%
X101800000Y-79215000D03*
%TO.P,hex_0,10*%
%TO.N,Net-(D6-K)*%
X99260000Y-79215000D03*
%TD*%
D11*
%TO.P,R4,1*%
%TO.N,Net-(D4-K)*%
X134900000Y-92590000D03*
D10*
%TO.P,R4,2*%
%TO.N,Net-(U1-DRAIN4)*%
X134900000Y-100210000D03*
%TD*%
D11*
%TO.P,R23,1*%
%TO.N,Net-(T_LED1-B)*%
X57240000Y-90865000D03*
D10*
%TO.P,R23,2*%
%TO.N,Net-(U_Caps1-QF)*%
X57240000Y-98485000D03*
%TD*%
D20*
%TO.P,Serial_Screw1,1,Pin_1*%
%TO.N,Net-(MCU_0-PD1)*%
X166300000Y-71410000D03*
D21*
%TO.P,Serial_Screw1,2,Pin_2*%
%TO.N,Net-(MCU_0-PD0)*%
X166300000Y-68870000D03*
%TD*%
D10*
%TO.P,,6,QG*%
%TO.N,unconnected-(U_Caps1-QG-Pad6)*%
X112700000Y-125000000D03*
%TD*%
D21*
%TO.P,,2,Pin_2*%
%TO.N,unconnected-(RGB1-Pin_2-Pad2)*%
X166300000Y-75870000D03*
%TD*%
D10*
%TO.P,,26,PC3*%
%TO.N,unconnected-(MCU_0-PC3-Pad26)*%
X148082000Y-148209000D03*
%TD*%
D22*
%TO.P,T_HEX_1,1,E*%
%TO.N,Net-(T_HEX_1-E)*%
X116923000Y-100815000D03*
D23*
%TO.P,T_HEX_1,2,B*%
%TO.N,Net-(T_HEX_1-B)*%
X116923000Y-102085000D03*
%TO.P,T_HEX_1,3,C*%
%TO.N,Net-(D8-K)*%
X116923000Y-103355000D03*
%TD*%
D11*
%TO.P,CU_Caps1,1*%
%TO.N,Net-(D8-K)*%
X99300000Y-137700000D03*
%TO.P,CU_Caps1,2*%
%TO.N,GND*%
X96800000Y-137700000D03*
%TD*%
D20*
%TO.P,PWR_Screw2,1,Pin_1*%
%TO.N,GND*%
X166800000Y-115020000D03*
D21*
%TO.P,PWR_Screw2,2,Pin_2*%
%TO.N,Net-(D8-K)*%
X166800000Y-112480000D03*
%TD*%
D20*
%TO.P,Serial_Screw1,1,Pin_1*%
%TO.N,Net-(MCU_0-PD1)*%
X54550000Y-149930000D03*
D21*
%TO.P,Serial_Screw1,2,Pin_2*%
%TO.N,Net-(MCU_0-PD0)*%
X54550000Y-152470000D03*
%TD*%
D24*
%TO.P,D4,1,K*%
%TO.N,Net-(D4-K)*%
X134940000Y-88105000D03*
D25*
%TO.P,D4,2,A*%
%TO.N,Net-(D0-A)*%
X134940000Y-85565000D03*
%TD*%
D21*
%TO.P,,2,Pin_2*%
%TO.N,unconnected-(NC2-Pin_2-Pad2)*%
X152100000Y-62380000D03*
%TD*%
D12*
%TO.P,R31,1*%
%TO.N,Net-(MCU_0-PB5)*%
X129921000Y-148336000D03*
D13*
%TO.P,R31,2*%
%TO.N,GND*%
X129921000Y-153416000D03*
%TD*%
D21*
%TO.P,,2,Pin_2*%
%TO.N,unconnected-(NC3-Pin_2-Pad2)*%
X161720000Y-119020000D03*
%TD*%
D22*
%TO.P,T_DEC_0,1,E*%
%TO.N,Net-(T_DEC_0-E)*%
X64040000Y-67835000D03*
D23*
%TO.P,T_DEC_0,2,B*%
%TO.N,Net-(T_DEC_0-B)*%
X64040000Y-69105000D03*
%TO.P,T_DEC_0,3,C*%
%TO.N,Net-(D8-K)*%
X64040000Y-70375000D03*
%TD*%
D20*
%TO.P,NC4,1,Pin_1*%
%TO.N,unconnected-(NC4-Pin_1-Pad1)*%
X166800000Y-128100000D03*
D21*
%TO.P,NC4,2,Pin_2*%
%TO.N,unconnected-(NC4-Pin_2-Pad2)*%
X166800000Y-125560000D03*
%TD*%
D26*
%TO.P,C_MCU1,1*%
%TO.N,Net-(D8-K)*%
X133520401Y-153035000D03*
D27*
%TO.P,C_MCU1,2*%
%TO.N,GND*%
X135520401Y-153035000D03*
%TD*%
D28*
%TO.P,D8,1,K*%
%TO.N,Net-(D8-K)*%
X82800000Y-119080000D03*
D29*
%TO.P,D8,2,A*%
%TO.N,GND*%
X82800000Y-134320000D03*
%TD*%
D24*
%TO.P,D1,1,K*%
%TO.N,Net-(D1-K)*%
X70340000Y-88110000D03*
D25*
%TO.P,D1,2,A*%
%TO.N,Net-(D0-A)*%
X70340000Y-85570000D03*
%TD*%
D11*
%TO.P,R7,1*%
%TO.N,Net-(D7-K)*%
X158900000Y-92590000D03*
D10*
%TO.P,R7,2*%
%TO.N,Net-(U1-DRAIN7)*%
X158900000Y-100210000D03*
%TD*%
D30*
%TO.P,SW4,1,A*%
%TO.N,GND*%
X125650000Y-160025000D03*
%TO.P,SW4,2,B*%
%TO.N,Net-(SW4-B)*%
X125650000Y-162525000D03*
%TO.P,SW4,3,C*%
%TO.N,Net-(D8-K)*%
X125650000Y-165025000D03*
%TD*%
D20*
%TO.P,NC3,1,Pin_1*%
%TO.N,unconnected-(NC3-Pin_1-Pad1)*%
X166800000Y-121560000D03*
D21*
%TO.P,NC3,2,Pin_2*%
%TO.N,unconnected-(NC3-Pin_2-Pad2)*%
X166800000Y-119020000D03*
%TD*%
D20*
%TO.P,,1,Pin_1*%
%TO.N,unconnected-(NC4-Pin_1-Pad1)*%
X161720000Y-128100000D03*
%TD*%
D31*
%TO.P,U_Caps1,1,QB*%
%TO.N,Net-(U_Caps1-QB)*%
X109900000Y-137700000D03*
D10*
%TO.P,U_Caps1,2,QC*%
%TO.N,Net-(U_Caps1-QC)*%
X109900000Y-135160000D03*
%TO.P,U_Caps1,3,QD*%
%TO.N,Net-(U_Caps1-QD)*%
X109900000Y-132620000D03*
%TO.P,U_Caps1,4,QE*%
%TO.N,Net-(U_Caps1-QE)*%
X109900000Y-130080000D03*
%TO.P,U_Caps1,5,QF*%
%TO.N,Net-(U_Caps1-QF)*%
X109900000Y-127540000D03*
%TO.P,U_Caps1,6,QG*%
%TO.N,unconnected-(U_Caps1-QG-Pad6)*%
X109900000Y-125000000D03*
%TO.P,U_Caps1,7,QH*%
%TO.N,unconnected-(U_Caps1-QH-Pad7)*%
X109900000Y-122460000D03*
%TO.P,U_Caps1,8,GND*%
%TO.N,GND*%
X109900000Y-119920000D03*
%TO.P,U_Caps1,9,QH'*%
%TO.N,unconnected-(U_Caps1-QH'-Pad9)*%
X102280000Y-119920000D03*
%TO.P,U_Caps1,10,~{SRCLR}*%
%TO.N,Net-(D8-K)*%
X102280000Y-122460000D03*
%TO.P,U_Caps1,11,SRCLK*%
%TO.N,Net-(MCU_0-PD6)*%
X102280000Y-125000000D03*
%TO.P,U_Caps1,12,RCLK*%
%TO.N,Net-(MCU_0-PB1)*%
X102280000Y-127540000D03*
%TO.P,U_Caps1,13,~{OE}*%
%TO.N,Net-(U_Caps1-~{OE})*%
X102280000Y-130080000D03*
%TO.P,U_Caps1,14,SER*%
%TO.N,Net-(MCU_0-PD4)*%
X102280000Y-132620000D03*
%TO.P,U_Caps1,15,QA*%
%TO.N,Net-(U_Caps1-QA)*%
X102280000Y-135160000D03*
%TO.P,U_Caps1,16,VCC*%
%TO.N,Net-(D8-K)*%
X102280000Y-137700000D03*
%TD*%
D21*
%TO.P,,2,Pin_2*%
%TO.N,unconnected-(RGB2-Pin_2-Pad2)*%
X54590000Y-145940000D03*
%TD*%
D11*
%TO.P,C1,1*%
%TO.N,GND*%
X137850000Y-128700000D03*
%TO.P,C1,2*%
%TO.N,Net-(MCU_0-XTAL1{slash}PB6)*%
X135350000Y-128700000D03*
%TD*%
%TO.P,R2,1*%
%TO.N,Net-(D2-K)*%
X78300000Y-92590000D03*
D10*
%TO.P,R2,2*%
%TO.N,Net-(U1-DRAIN2)*%
X78300000Y-100210000D03*
%TD*%
D12*
%TO.P,R16,1*%
%TO.N,Net-(SW6-B)*%
X143129000Y-157353000D03*
D13*
%TO.P,R16,2*%
%TO.N,GND*%
X143129000Y-152273000D03*
%TD*%
D12*
%TO.P,R21,1*%
%TO.N,Net-(MCU_0-PD5)*%
X115730000Y-140560000D03*
D13*
%TO.P,R21,2*%
%TO.N,Net-(U2-Q7)*%
X115730000Y-143100000D03*
%TD*%
D22*
%TO.P,T_HEX_0,1,E*%
%TO.N,Net-(T_HEX_0-E)*%
X104323000Y-100815000D03*
D23*
%TO.P,T_HEX_0,2,B*%
%TO.N,Net-(T_HEX_0-B)*%
X104323000Y-102085000D03*
%TO.P,T_HEX_0,3,C*%
%TO.N,Net-(D8-K)*%
X104323000Y-103355000D03*
%TD*%
D12*
%TO.P,R10,1*%
%TO.N,Net-(MCU_0-PD3)*%
X147447000Y-157353000D03*
D13*
%TO.P,R10,2*%
%TO.N,GND*%
X147447000Y-152273000D03*
%TD*%
D12*
%TO.P,R17,1*%
%TO.N,Net-(SW7-B)*%
X145288000Y-157353000D03*
D13*
%TO.P,R17,2*%
%TO.N,GND*%
X145288000Y-152273000D03*
%TD*%
D12*
%TO.P,R20,1*%
%TO.N,Net-(U2-Q7)*%
X113130000Y-143100000D03*
D13*
%TO.P,R20,2*%
%TO.N,Net-(MCU_0-PD4)*%
X113130000Y-140560000D03*
%TD*%
D30*
%TO.P,SW__WR1,1,A*%
%TO.N,GND*%
X161900000Y-151775000D03*
%TO.P,SW__WR1,2,B*%
%TO.N,Net-(MCU_0-PB4)*%
X161900000Y-154275000D03*
%TO.P,SW__WR1,3,C*%
%TO.N,Net-(D8-K)*%
X161900000Y-156775000D03*
%TD*%
D11*
%TO.P,R6,1*%
%TO.N,Net-(D6-K)*%
X150900000Y-92590000D03*
D10*
%TO.P,R6,2*%
%TO.N,Net-(U1-DRAIN6)*%
X150900000Y-100210000D03*
%TD*%
D30*
%TO.P,SW0,1,A*%
%TO.N,GND*%
X77650000Y-160025000D03*
%TO.P,SW0,2,B*%
%TO.N,Net-(SW0-B)*%
X77650000Y-162525000D03*
%TO.P,SW0,3,C*%
%TO.N,Net-(D8-K)*%
X77650000Y-165025000D03*
%TD*%
D20*
%TO.P,NC1,1,Pin_1*%
%TO.N,unconnected-(NC1-Pin_1-Pad1)*%
X54550000Y-156470000D03*
D21*
%TO.P,NC1,2,Pin_2*%
%TO.N,unconnected-(NC1-Pin_2-Pad2)*%
X54550000Y-159010000D03*
%TD*%
D11*
%TO.P,R3,1*%
%TO.N,Net-(D3-K)*%
X86300000Y-92590000D03*
D10*
%TO.P,R3,2*%
%TO.N,Net-(U1-DRAIN3)*%
X86300000Y-100210000D03*
%TD*%
D30*
%TO.P,SW3,1,A*%
%TO.N,GND*%
X95650000Y-160025000D03*
%TO.P,SW3,2,B*%
%TO.N,Net-(SW3-B)*%
X95650000Y-162525000D03*
%TO.P,SW3,3,C*%
%TO.N,Net-(D8-K)*%
X95650000Y-165025000D03*
%TD*%
D12*
%TO.P,R15,1*%
%TO.N,Net-(SW5-B)*%
X140970000Y-157353000D03*
D13*
%TO.P,R15,2*%
%TO.N,GND*%
X140970000Y-152273000D03*
%TD*%
D18*
%TO.P,decimal_1,1*%
%TO.N,Net-(D4-K)*%
X105560000Y-75455000D03*
D19*
%TO.P,decimal_1,2*%
%TO.N,Net-(D3-K)*%
X108100000Y-75455000D03*
%TO.P,decimal_1,3,CA*%
%TO.N,Net-(T_DEC_1-E)*%
X110640000Y-75455000D03*
%TO.P,decimal_1,4*%
%TO.N,Net-(D2-K)*%
X113180000Y-75455000D03*
%TO.P,decimal_1,5*%
%TO.N,Net-(D7-K)*%
X115720000Y-75455000D03*
%TO.P,decimal_1,6*%
%TO.N,Net-(D1-K)*%
X115720000Y-60215000D03*
%TO.P,decimal_1,7*%
%TO.N,Net-(D0-K)*%
X113180000Y-60215000D03*
%TO.P,decimal_1,8,CA*%
%TO.N,Net-(T_DEC_1-E)*%
X110640000Y-60215000D03*
%TO.P,decimal_1,9*%
%TO.N,Net-(D5-K)*%
X108100000Y-60215000D03*
%TO.P,decimal_1,10*%
%TO.N,Net-(D6-K)*%
X105560000Y-60215000D03*
%TD*%
D10*
%TO.P,,28,PC5*%
%TO.N,unconnected-(MCU_0-PC5-Pad28)*%
X153162000Y-148209000D03*
%TD*%
%TO.P,,27,PC4*%
%TO.N,unconnected-(MCU_0-PC4-Pad27)*%
X150622000Y-148209000D03*
%TD*%
D30*
%TO.P,SW2,1,A*%
%TO.N,GND*%
X89650000Y-160025000D03*
%TO.P,SW2,2,B*%
%TO.N,Net-(SW2-B)*%
X89650000Y-162525000D03*
%TO.P,SW2,3,C*%
%TO.N,Net-(D8-K)*%
X89650000Y-165025000D03*
%TD*%
D12*
%TO.P,R11,1*%
%TO.N,Net-(SW1-B)*%
X85598000Y-157353000D03*
D13*
%TO.P,R11,2*%
%TO.N,GND*%
X85598000Y-152273000D03*
%TD*%
D11*
%TO.P,R27,1*%
%TO.N,Net-(T_DEC_1-B)*%
X68400000Y-68410000D03*
D10*
%TO.P,R27,2*%
%TO.N,Net-(U_Caps1-QB)*%
X68400000Y-60790000D03*
%TD*%
D20*
%TO.P,,1,Pin_1*%
%TO.N,unconnected-(NC3-Pin_1-Pad1)*%
X161720000Y-121560000D03*
%TD*%
D31*
%TO.P,U2,1,~{PL}*%
%TO.N,Net-(MCU_0-PD7)*%
X106840000Y-147235000D03*
D10*
%TO.P,U2,2,CP*%
%TO.N,Net-(MCU_0-PD6)*%
X106840000Y-149775000D03*
%TO.P,U2,3,D4*%
%TO.N,Net-(SW4-B)*%
X106840000Y-152315000D03*
%TO.P,U2,4,D5*%
%TO.N,Net-(SW5-B)*%
X106840000Y-154855000D03*
%TO.P,U2,5,D6*%
%TO.N,Net-(SW6-B)*%
X106840000Y-157395000D03*
%TO.P,U2,6,D7*%
%TO.N,Net-(SW7-B)*%
X106840000Y-159935000D03*
%TO.P,U2,7,~{Q7}*%
%TO.N,unconnected-(U2-~{Q7}-Pad7)*%
X106840000Y-162475000D03*
%TO.P,U2,8,GND*%
%TO.N,GND*%
X106840000Y-165015000D03*
%TO.P,U2,9,Q7*%
%TO.N,Net-(U2-Q7)*%
X114460000Y-165015000D03*
%TO.P,U2,10,DS*%
%TO.N,unconnected-(U2-DS-Pad10)*%
X114460000Y-162475000D03*
%TO.P,U2,11,D0*%
%TO.N,Net-(SW0-B)*%
X114460000Y-159935000D03*
%TO.P,U2,12,D1*%
%TO.N,Net-(SW1-B)*%
X114460000Y-157395000D03*
%TO.P,U2,13,D2*%
%TO.N,Net-(SW2-B)*%
X114460000Y-154855000D03*
%TO.P,U2,14,D3*%
%TO.N,Net-(SW3-B)*%
X114460000Y-152315000D03*
%TO.P,U2,15,~{CE}*%
%TO.N,GND*%
X114460000Y-149775000D03*
%TO.P,U2,16,VCC*%
%TO.N,Net-(D8-K)*%
X114460000Y-147235000D03*
%TD*%
D12*
%TO.P,R18,1*%
%TO.N,Net-(U_Caps1-~{OE})*%
X90000000Y-127720000D03*
D13*
%TO.P,R18,2*%
%TO.N,GND*%
X90000000Y-125180000D03*
%TD*%
D10*
%TO.P,,25,PC2*%
%TO.N,unconnected-(MCU_0-PC2-Pad25)*%
X145542000Y-148209000D03*
%TD*%
D11*
%TO.P,,1*%
%TO.N,Net-(D8-K)*%
X90250000Y-113500000D03*
%TD*%
D18*
%TO.P,decimal_0,1*%
%TO.N,Net-(D4-K)*%
X92960000Y-75455000D03*
D19*
%TO.P,decimal_0,2*%
%TO.N,Net-(D3-K)*%
X95500000Y-75455000D03*
%TO.P,decimal_0,3,CA*%
%TO.N,Net-(T_DEC_0-E)*%
X98040000Y-75455000D03*
%TO.P,decimal_0,4*%
%TO.N,Net-(D2-K)*%
X100580000Y-75455000D03*
%TO.P,decimal_0,5*%
%TO.N,Net-(D7-K)*%
X103120000Y-75455000D03*
%TO.P,decimal_0,6*%
%TO.N,Net-(D1-K)*%
X103120000Y-60215000D03*
%TO.P,decimal_0,7*%
%TO.N,Net-(D0-K)*%
X100580000Y-60215000D03*
%TO.P,decimal_0,8,CA*%
%TO.N,Net-(T_DEC_0-E)*%
X98040000Y-60215000D03*
%TO.P,decimal_0,9*%
%TO.N,Net-(D5-K)*%
X95500000Y-60215000D03*
%TO.P,decimal_0,10*%
%TO.N,Net-(D6-K)*%
X92960000Y-60215000D03*
%TD*%
D12*
%TO.P,R22,1*%
%TO.N,Net-(D8-K)*%
X115697000Y-131572000D03*
D13*
%TO.P,R22,2*%
%TO.N,Net-(U1-~{CLR})*%
X115697000Y-126492000D03*
%TD*%
D11*
%TO.P,CU2,1*%
%TO.N,Net-(MCU_0-AREF)*%
X135402000Y-148209000D03*
%TO.P,CU2,2*%
%TO.N,GND*%
X137902000Y-148209000D03*
%TD*%
%TO.P,R32,1*%
%TO.N,Net-(RGB1-Pin_1)*%
X166300000Y-92590000D03*
D10*
%TO.P,R32,2*%
%TO.N,Net-(MCU_0-PB2)*%
X166300000Y-100210000D03*
%TD*%
D12*
%TO.P,R12,1*%
%TO.N,Net-(SW2-B)*%
X87757000Y-157353000D03*
D13*
%TO.P,R12,2*%
%TO.N,GND*%
X87757000Y-152273000D03*
%TD*%
D12*
%TO.P,R9,1*%
%TO.N,Net-(D8-K)*%
X158369000Y-135001000D03*
D13*
%TO.P,R9,2*%
%TO.N,Net-(MCU_0-~{RESET}{slash}PC6)*%
X153289000Y-135001000D03*
%TD*%
D20*
%TO.P,,1,Pin_1*%
%TO.N,unconnected-(NC2-Pin_1-Pad1)*%
X154640000Y-62380000D03*
%TD*%
D12*
%TO.P,R8,1*%
%TO.N,Net-(SW0-B)*%
X83439000Y-157353000D03*
D13*
%TO.P,R8,2*%
%TO.N,GND*%
X83439000Y-152273000D03*
%TD*%
D20*
%TO.P,NC2,1,Pin_1*%
%TO.N,unconnected-(NC2-Pin_1-Pad1)*%
X154640000Y-57300000D03*
D21*
%TO.P,NC2,2,Pin_2*%
%TO.N,unconnected-(NC2-Pin_2-Pad2)*%
X152100000Y-57300000D03*
%TD*%
D18*
%TO.P,hex_1,1*%
%TO.N,Net-(D4-K)*%
X111860000Y-94455000D03*
D19*
%TO.P,hex_1,2*%
%TO.N,Net-(D3-K)*%
X114400000Y-94455000D03*
%TO.P,hex_1,3,CA*%
%TO.N,Net-(T_HEX_1-E)*%
X116940000Y-94455000D03*
%TO.P,hex_1,4*%
%TO.N,Net-(D2-K)*%
X119480000Y-94455000D03*
%TO.P,hex_1,5*%
%TO.N,Net-(D7-K)*%
X122020000Y-94455000D03*
%TO.P,hex_1,6*%
%TO.N,Net-(D1-K)*%
X122020000Y-79215000D03*
%TO.P,hex_1,7*%
%TO.N,Net-(D0-K)*%
X119480000Y-79215000D03*
%TO.P,hex_1,8,CA*%
%TO.N,Net-(T_HEX_1-E)*%
X116940000Y-79215000D03*
%TO.P,hex_1,9*%
%TO.N,Net-(D5-K)*%
X114400000Y-79215000D03*
%TO.P,hex_1,10*%
%TO.N,Net-(D6-K)*%
X111860000Y-79215000D03*
%TD*%
D10*
%TO.P,,24,PC1*%
%TO.N,unconnected-(MCU_0-PC1-Pad24)*%
X143002000Y-148209000D03*
%TD*%
D18*
%TO.P,decimal_2,1*%
%TO.N,Net-(D4-K)*%
X118160000Y-75455000D03*
D19*
%TO.P,decimal_2,2*%
%TO.N,Net-(D3-K)*%
X120700000Y-75455000D03*
%TO.P,decimal_2,3,CA*%
%TO.N,Net-(T_DEC_2-E)*%
X123240000Y-75455000D03*
%TO.P,decimal_2,4*%
%TO.N,Net-(D2-K)*%
X125780000Y-75455000D03*
%TO.P,decimal_2,5*%
%TO.N,Net-(D7-K)*%
X128320000Y-75455000D03*
%TO.P,decimal_2,6*%
%TO.N,Net-(D1-K)*%
X128320000Y-60215000D03*
%TO.P,decimal_2,7*%
%TO.N,Net-(D0-K)*%
X125780000Y-60215000D03*
%TO.P,decimal_2,8,CA*%
%TO.N,Net-(T_DEC_2-E)*%
X123240000Y-60215000D03*
%TO.P,decimal_2,9*%
%TO.N,Net-(D5-K)*%
X120700000Y-60215000D03*
%TO.P,decimal_2,10*%
%TO.N,Net-(D6-K)*%
X118160000Y-60215000D03*
%TD*%
D11*
%TO.P,R24,1*%
%TO.N,Net-(U_Caps1-QD)*%
X91823000Y-102085000D03*
D10*
%TO.P,R24,2*%
%TO.N,Net-(T_HEX_0-B)*%
X99443000Y-102085000D03*
%TD*%
D11*
%TO.P,R28,1*%
%TO.N,Net-(U_Caps1-QC)*%
X76400000Y-60790000D03*
D10*
%TO.P,R28,2*%
%TO.N,Net-(T_DEC_2-B)*%
X76400000Y-68410000D03*
%TD*%
D24*
%TO.P,D7,1,K*%
%TO.N,Net-(D7-K)*%
X158940000Y-88110000D03*
D25*
%TO.P,D7,2,A*%
%TO.N,Net-(D0-A)*%
X158940000Y-85570000D03*
%TD*%
D32*
%TO.P,SW_N1,1,1*%
%TO.N,Net-(MCU_0-PD3)*%
X150900000Y-160275000D03*
X157400000Y-160275000D03*
%TO.P,SW_N1,2,2*%
%TO.N,Net-(D8-K)*%
X150900000Y-164775000D03*
X157400000Y-164775000D03*
%TD*%
D30*
%TO.P,SW_Mem1,1,A*%
%TO.N,GND*%
X77650000Y-150025000D03*
%TO.P,SW_Mem1,2,B*%
%TO.N,Net-(MCU_0-PB3)*%
X77650000Y-152525000D03*
%TO.P,SW_Mem1,3,C*%
%TO.N,Net-(D8-K)*%
X77650000Y-155025000D03*
%TD*%
D24*
%TO.P,D2,1,K*%
%TO.N,Net-(D2-K)*%
X78340000Y-88110000D03*
D25*
%TO.P,D2,2,A*%
%TO.N,Net-(D0-A)*%
X78340000Y-85570000D03*
%TD*%
D21*
%TO.P,,2,Pin_2*%
%TO.N,unconnected-(NC1-Pin_2-Pad2)*%
X59630000Y-159010000D03*
%TD*%
D12*
%TO.P,R14,1*%
%TO.N,Net-(SW4-B)*%
X138811000Y-157353000D03*
D13*
%TO.P,R14,2*%
%TO.N,GND*%
X138811000Y-152273000D03*
%TD*%
D11*
%TO.P,R33,1*%
%TO.N,Net-(RGB2-Pin_1)*%
X60500000Y-139390000D03*
D10*
%TO.P,R33,2*%
%TO.N,Net-(MCU_0-PB2)*%
X68120000Y-139390000D03*
%TD*%
%TO.P,,9,SER_OUT*%
%TO.N,unconnected-(U1-SER_OUT-Pad9)*%
X120100000Y-126960000D03*
%TD*%
%TO.P,,23,PC0*%
%TO.N,unconnected-(MCU_0-PC0-Pad23)*%
X140462000Y-148209000D03*
%TD*%
D12*
%TO.P,R13,1*%
%TO.N,Net-(SW3-B)*%
X89916000Y-157353000D03*
D13*
%TO.P,R13,2*%
%TO.N,GND*%
X89916000Y-152273000D03*
%TD*%
D17*
%TO.P,DC-In1,1*%
%TO.N,+5V*%
X64800000Y-129700000D03*
D33*
%TO.P,DC-In1,2*%
%TO.N,GND*%
X58800000Y-129700000D03*
%TO.P,DC-In1,3*%
X61800000Y-134400000D03*
%TD*%
D30*
%TO.P,SW5,1,A*%
%TO.N,GND*%
X131650000Y-160025000D03*
%TO.P,SW5,2,B*%
%TO.N,Net-(SW5-B)*%
X131650000Y-162525000D03*
%TO.P,SW5,3,C*%
%TO.N,Net-(D8-K)*%
X131650000Y-165025000D03*
%TD*%
D11*
%TO.P,,1*%
%TO.N,Net-(D8-K)*%
X87710000Y-113500000D03*
%TD*%
D31*
%TO.P,U1,1,VCC*%
%TO.N,Net-(D8-K)*%
X137880000Y-116800000D03*
D10*
%TO.P,U1,2,SER_IN*%
%TO.N,Net-(MCU_0-PD4)*%
X135340000Y-116800000D03*
%TO.P,U1,3,DRAIN0*%
%TO.N,Net-(U1-DRAIN0)*%
X132800000Y-116800000D03*
%TO.P,U1,4,DRAIN1*%
%TO.N,Net-(U1-DRAIN1)*%
X130260000Y-116800000D03*
%TO.P,U1,5,DRAIN2*%
%TO.N,Net-(U1-DRAIN2)*%
X127720000Y-116800000D03*
%TO.P,U1,6,DRAIN3*%
%TO.N,Net-(U1-DRAIN3)*%
X125180000Y-116800000D03*
%TO.P,U1,7,~{CLR}*%
%TO.N,Net-(U1-~{CLR})*%
X122640000Y-116800000D03*
%TO.P,U1,8,~{G}*%
%TO.N,GND*%
X120100000Y-116800000D03*
%TO.P,U1,9,SER_OUT*%
%TO.N,unconnected-(U1-SER_OUT-Pad9)*%
X120100000Y-124420000D03*
%TO.P,U1,10,RCLK*%
%TO.N,Net-(MCU_0-PB0)*%
X122640000Y-124420000D03*
%TO.P,U1,11,DRAIN4*%
%TO.N,Net-(U1-DRAIN4)*%
X125180000Y-124420000D03*
%TO.P,U1,12,DRAIN5*%
%TO.N,Net-(U1-DRAIN5)*%
X127720000Y-124420000D03*
%TO.P,U1,13,DRAIN6*%
%TO.N,Net-(U1-DRAIN6)*%
X130260000Y-124420000D03*
%TO.P,U1,14,DRAIN7*%
%TO.N,Net-(U1-DRAIN7)*%
X132800000Y-124420000D03*
%TO.P,U1,15,SRCK*%
%TO.N,Net-(MCU_0-PD6)*%
X135340000Y-124420000D03*
%TO.P,U1,16,GND*%
%TO.N,GND*%
X137880000Y-124420000D03*
%TD*%
D20*
%TO.P,,1,Pin_1*%
%TO.N,unconnected-(NC1-Pin_1-Pad1)*%
X59630000Y-156470000D03*
%TD*%
D30*
%TO.P,SW_Serr1,1,A*%
%TO.N,GND*%
X95650000Y-150025000D03*
%TO.P,SW_Serr1,2,B*%
%TO.N,Net-(MCU_0-PB5)*%
X95650000Y-152525000D03*
%TO.P,SW_Serr1,3,C*%
%TO.N,Net-(D8-K)*%
X95650000Y-155025000D03*
%TD*%
D11*
%TO.P,CU1,1*%
%TO.N,Net-(D8-K)*%
X137750000Y-113700000D03*
%TO.P,CU1,2*%
%TO.N,GND*%
X140250000Y-113700000D03*
%TD*%
%TO.P,R25,1*%
%TO.N,Net-(T_HEX_1-B)*%
X115800000Y-110380000D03*
D10*
%TO.P,R25,2*%
%TO.N,Net-(U_Caps1-QE)*%
X115800000Y-118000000D03*
%TD*%
D11*
%TO.P,R1,1*%
%TO.N,Net-(D1-K)*%
X70300000Y-92590000D03*
D10*
%TO.P,R1,2*%
%TO.N,Net-(U1-DRAIN1)*%
X70300000Y-100210000D03*
%TD*%
%TO.P,,*%
%TO.N,GND*%
X90540000Y-134320000D03*
%TD*%
D22*
%TO.P,T_DEC_1,1,E*%
%TO.N,Net-(T_DEC_1-E)*%
X72040000Y-67835000D03*
D23*
%TO.P,T_DEC_1,2,B*%
%TO.N,Net-(T_DEC_1-B)*%
X72040000Y-69105000D03*
%TO.P,T_DEC_1,3,C*%
%TO.N,Net-(D8-K)*%
X72040000Y-70375000D03*
%TD*%
D17*
%TO.P,,1*%
%TO.N,+5V*%
X59090000Y-107500000D03*
%TD*%
D10*
%TO.P,,9,QH'*%
%TO.N,unconnected-(U_Caps1-QH'-Pad9)*%
X99500000Y-119800000D03*
%TD*%
D21*
%TO.P,,2,Pin_2*%
%TO.N,unconnected-(NC4-Pin_2-Pad2)*%
X161720000Y-125560000D03*
%TD*%
D31*
%TO.P,MCU_0,1,~{RESET}/PC6*%
%TO.N,Net-(MCU_0-~{RESET}{slash}PC6)*%
X153130000Y-137800000D03*
D10*
%TO.P,MCU_0,2,PD0*%
%TO.N,Net-(MCU_0-PD0)*%
X150590000Y-137800000D03*
%TO.P,MCU_0,3,PD1*%
%TO.N,Net-(MCU_0-PD1)*%
X148050000Y-137800000D03*
%TO.P,MCU_0,4,PD2*%
%TO.N,Net-(MCU_0-PD2)*%
X145510000Y-137800000D03*
%TO.P,MCU_0,5,PD3*%
%TO.N,Net-(MCU_0-PD3)*%
X142970000Y-137800000D03*
%TO.P,MCU_0,6,PD4*%
%TO.N,Net-(MCU_0-PD4)*%
X140430000Y-137800000D03*
%TO.P,MCU_0,7,VCC*%
%TO.N,Net-(D8-K)*%
X137890000Y-137800000D03*
%TO.P,MCU_0,8,GND*%
%TO.N,GND*%
X135350000Y-137800000D03*
%TO.P,MCU_0,9,XTAL1/PB6*%
%TO.N,Net-(MCU_0-XTAL1{slash}PB6)*%
X132810000Y-137800000D03*
%TO.P,MCU_0,10,XTAL2/PB7*%
%TO.N,Net-(MCU_0-XTAL2{slash}PB7)*%
X130270000Y-137800000D03*
%TO.P,MCU_0,11,PD5*%
%TO.N,Net-(MCU_0-PD5)*%
X127730000Y-137800000D03*
%TO.P,MCU_0,12,PD6*%
%TO.N,Net-(MCU_0-PD6)*%
X125190000Y-137800000D03*
%TO.P,MCU_0,13,PD7*%
%TO.N,Net-(MCU_0-PD7)*%
X122650000Y-137800000D03*
%TO.P,MCU_0,14,PB0*%
%TO.N,Net-(MCU_0-PB0)*%
X120110000Y-137800000D03*
%TO.P,MCU_0,15,PB1*%
%TO.N,Net-(MCU_0-PB1)*%
X120110000Y-145420000D03*
%TO.P,MCU_0,16,PB2*%
%TO.N,Net-(MCU_0-PB2)*%
X122650000Y-145420000D03*
%TO.P,MCU_0,17,PB3*%
%TO.N,Net-(MCU_0-PB3)*%
X125190000Y-145420000D03*
%TO.P,MCU_0,18,PB4*%
%TO.N,Net-(MCU_0-PB4)*%
X127730000Y-145420000D03*
%TO.P,MCU_0,19,PB5*%
%TO.N,Net-(MCU_0-PB5)*%
X130270000Y-145420000D03*
%TO.P,MCU_0,20,AVCC*%
%TO.N,Net-(D8-K)*%
X132810000Y-145420000D03*
%TO.P,MCU_0,21,AREF*%
%TO.N,Net-(MCU_0-AREF)*%
X135350000Y-145420000D03*
%TO.P,MCU_0,22,GND*%
%TO.N,GND*%
X137890000Y-145420000D03*
%TO.P,MCU_0,23,PC0*%
%TO.N,unconnected-(MCU_0-PC0-Pad23)*%
X140430000Y-145420000D03*
%TO.P,MCU_0,24,PC1*%
%TO.N,unconnected-(MCU_0-PC1-Pad24)*%
X142970000Y-145420000D03*
%TO.P,MCU_0,25,PC2*%
%TO.N,unconnected-(MCU_0-PC2-Pad25)*%
X145510000Y-145420000D03*
%TO.P,MCU_0,26,PC3*%
%TO.N,unconnected-(MCU_0-PC3-Pad26)*%
X148050000Y-145420000D03*
%TO.P,MCU_0,27,PC4*%
%TO.N,unconnected-(MCU_0-PC4-Pad27)*%
X150590000Y-145420000D03*
%TO.P,MCU_0,28,PC5*%
%TO.N,unconnected-(MCU_0-PC5-Pad28)*%
X153130000Y-145420000D03*
%TD*%
D11*
%TO.P,R26,1*%
%TO.N,Net-(T_DEC_0-B)*%
X60410000Y-69100000D03*
D10*
%TO.P,R26,2*%
%TO.N,Net-(U_Caps1-QA)*%
X60410000Y-76720000D03*
%TD*%
D24*
%TO.P,D5,1,K*%
%TO.N,Net-(D5-K)*%
X142940000Y-88110000D03*
D25*
%TO.P,D5,2,A*%
%TO.N,Net-(D0-A)*%
X142940000Y-85570000D03*
%TD*%
D30*
%TO.P,SW1,1,A*%
%TO.N,GND*%
X83650000Y-160025000D03*
%TO.P,SW1,2,B*%
%TO.N,Net-(SW1-B)*%
X83650000Y-162525000D03*
%TO.P,SW1,3,C*%
%TO.N,Net-(D8-K)*%
X83650000Y-165025000D03*
%TD*%
D20*
%TO.P,RGB1,1,Pin_1*%
%TO.N,Net-(RGB1-Pin_1)*%
X166300000Y-82410000D03*
D21*
%TO.P,RGB1,2,Pin_2*%
%TO.N,unconnected-(RGB1-Pin_2-Pad2)*%
X166300000Y-79870000D03*
%TD*%
D22*
%TO.P,T_LED1,1,E*%
%TO.N,Net-(D0-A)*%
X57240000Y-80365000D03*
D23*
%TO.P,T_LED1,2,B*%
%TO.N,Net-(T_LED1-B)*%
X57240000Y-81635000D03*
%TO.P,T_LED1,3,C*%
%TO.N,Net-(D8-K)*%
X57240000Y-82905000D03*
%TD*%
D24*
%TO.P,D3,1,K*%
%TO.N,Net-(D3-K)*%
X86340000Y-88110000D03*
D25*
%TO.P,D3,2,A*%
%TO.N,Net-(D0-A)*%
X86340000Y-85570000D03*
%TD*%
D11*
%TO.P,R0,1*%
%TO.N,Net-(D0-K)*%
X62300000Y-92590000D03*
D10*
%TO.P,R0,2*%
%TO.N,Net-(U1-DRAIN0)*%
X62300000Y-100210000D03*
%TD*%
D20*
%TO.P,RGB2,1,Pin_1*%
%TO.N,Net-(RGB2-Pin_1)*%
X54590000Y-139400000D03*
D21*
%TO.P,RGB2,2,Pin_2*%
%TO.N,unconnected-(RGB2-Pin_2-Pad2)*%
X54590000Y-141940000D03*
%TD*%
D12*
%TO.P,R30,1*%
%TO.N,Net-(MCU_0-PB4)*%
X127762000Y-148336000D03*
D13*
%TO.P,R30,2*%
%TO.N,GND*%
X127762000Y-153416000D03*
%TD*%
D12*
%TO.P,R19,1*%
%TO.N,Net-(U_Caps1-~{OE})*%
X93600000Y-127680000D03*
D13*
%TO.P,R19,2*%
%TO.N,Net-(MCU_0-PD2)*%
X93600000Y-130220000D03*
%TD*%
D20*
%TO.P,PWR_Screw1,1,Pin_1*%
%TO.N,Net-(D8-K)*%
X54590000Y-119400000D03*
D21*
%TO.P,PWR_Screw1,2,Pin_2*%
%TO.N,GND*%
X54590000Y-121940000D03*
%TD*%
D11*
%TO.P,C2,1*%
%TO.N,Net-(MCU_0-XTAL2{slash}PB7)*%
X128150000Y-128700000D03*
%TO.P,C2,2*%
%TO.N,GND*%
X125650000Y-128700000D03*
%TD*%
D24*
%TO.P,D0,1,K*%
%TO.N,Net-(D0-K)*%
X62340000Y-88110000D03*
D25*
%TO.P,D0,2,A*%
%TO.N,Net-(D0-A)*%
X62340000Y-85570000D03*
%TD*%
D30*
%TO.P,SW6,1,A*%
%TO.N,GND*%
X137650000Y-160025000D03*
%TO.P,SW6,2,B*%
%TO.N,Net-(SW6-B)*%
X137650000Y-162525000D03*
%TO.P,SW6,3,C*%
%TO.N,Net-(D8-K)*%
X137650000Y-165025000D03*
%TD*%
%TO.P,SW7,1,A*%
%TO.N,GND*%
X143650000Y-160025000D03*
%TO.P,SW7,2,B*%
%TO.N,Net-(SW7-B)*%
X143650000Y-162525000D03*
%TO.P,SW7,3,C*%
%TO.N,Net-(D8-K)*%
X143650000Y-165025000D03*
%TD*%
D10*
%TO.P,,*%
%TO.N,GND*%
X88000000Y-134320000D03*
%TD*%
D24*
%TO.P,D6,1,K*%
%TO.N,Net-(D6-K)*%
X150940000Y-88110000D03*
D25*
%TO.P,D6,2,A*%
%TO.N,Net-(D0-A)*%
X150940000Y-85570000D03*
%TD*%
D22*
%TO.P,T_DEC_2,1,E*%
%TO.N,Net-(T_DEC_2-E)*%
X80040000Y-67835000D03*
D23*
%TO.P,T_DEC_2,2,B*%
%TO.N,Net-(T_DEC_2-B)*%
X80040000Y-69105000D03*
%TO.P,T_DEC_2,3,C*%
%TO.N,Net-(D8-K)*%
X80040000Y-70375000D03*
%TD*%
D34*
%TO.N,GND*%
X145370000Y-128320000D03*
%TO.N,Net-(D0-K)*%
X99690000Y-66140000D03*
X80000000Y-76640000D03*
X99760000Y-70920000D03*
%TO.N,Net-(D1-K)*%
X128270000Y-55118000D03*
X112080000Y-69380000D03*
X90180000Y-69080000D03*
X105120000Y-69350000D03*
X115720000Y-56920000D03*
%TO.N,Net-(D2-K)*%
X106934000Y-100965000D03*
X122050000Y-101830000D03*
%TO.N,Net-(D3-K)*%
X102480000Y-88120000D03*
X95560000Y-88090000D03*
%TO.N,Net-(D4-K)*%
X111860000Y-108080000D03*
X111860000Y-100310000D03*
%TO.N,Net-(D5-K)*%
X113770000Y-71100000D03*
X114460000Y-85690000D03*
X121030000Y-56460000D03*
X99220000Y-80800000D03*
X108340000Y-71230000D03*
%TO.N,Net-(D6-K)*%
X101870000Y-62110000D03*
X119970000Y-64800000D03*
X89662000Y-60198000D03*
%TO.N,Net-(D7-K)*%
X113427500Y-73162500D03*
X105090000Y-72170000D03*
X104630000Y-87700000D03*
%TO.N,Net-(MCU_0-PD4)*%
X144610000Y-115570000D03*
X135060000Y-140980000D03*
%TO.N,Net-(MCU_0-PD7)*%
X109817000Y-142329000D03*
%TO.N,Net-(MCU_0-PB1)*%
X118260000Y-135280000D03*
%TO.N,Net-(MCU_0-PB4)*%
X152019000Y-156718000D03*
%TO.N,Net-(SW0-B)*%
X117221000Y-162052000D03*
%TO.N,Net-(U_Caps1-QD)*%
X105900000Y-126100000D03*
%TO.N,Net-(MCU_0-PD0)*%
X150590000Y-128840000D03*
%TO.N,Net-(MCU_0-PD1)*%
X148080000Y-132390000D03*
%TD*%
D35*
%TO.N,GND*%
X143650000Y-160025000D02*
X148077000Y-160025000D01*
X129921000Y-153416000D02*
X125603000Y-153416000D01*
D36*
X137850000Y-128700000D02*
X135350000Y-131200000D01*
X137890000Y-145420000D02*
X137890000Y-150257182D01*
D37*
X89010051Y-125180000D02*
X82800000Y-131390051D01*
D35*
X113020000Y-158835000D02*
X117121000Y-158835000D01*
D37*
X135400000Y-119900000D02*
X137880000Y-122380000D01*
D35*
X89916000Y-152273000D02*
X83439000Y-152273000D01*
D36*
X137880000Y-124420000D02*
X137880000Y-128670000D01*
D35*
X153035000Y-158750000D02*
X160010000Y-151775000D01*
X124710000Y-160025000D02*
X114460000Y-149775000D01*
X95650000Y-150025000D02*
X92164000Y-150025000D01*
D37*
X73880000Y-134320000D02*
X73800000Y-134400000D01*
D35*
X92164000Y-150025000D02*
X89916000Y-152273000D01*
D37*
X120600000Y-119900000D02*
X135400000Y-119900000D01*
D35*
X118311000Y-160025000D02*
X125650000Y-160025000D01*
D37*
X120100000Y-119400000D02*
X120600000Y-119900000D01*
X58800000Y-126150000D02*
X54590000Y-121940000D01*
D36*
X158670000Y-115020000D02*
X166800000Y-115020000D01*
D37*
X82800000Y-134320000D02*
X73880000Y-134320000D01*
X120100000Y-116800000D02*
X120100000Y-119400000D01*
X137880000Y-122380000D02*
X137880000Y-124420000D01*
D36*
X137890000Y-150257182D02*
X135520401Y-152626781D01*
D35*
X95650000Y-139430000D02*
X90540000Y-134320000D01*
D37*
X118600000Y-115300000D02*
X120100000Y-116800000D01*
D35*
X140250000Y-113700000D02*
X140250000Y-120010000D01*
X117400000Y-122100000D02*
X120100000Y-119400000D01*
X125603000Y-153416000D02*
X118101000Y-153416000D01*
D37*
X96700000Y-115300000D02*
X90000000Y-122000000D01*
D35*
X140250000Y-120010000D02*
X137880000Y-122380000D01*
X125650000Y-160025000D02*
X143650000Y-160025000D01*
X106840000Y-165015000D02*
X113020000Y-158835000D01*
X138811000Y-152273000D02*
X159512000Y-152273000D01*
X95650000Y-160025000D02*
X77650000Y-160025000D01*
D37*
X61800000Y-132700000D02*
X58800000Y-129700000D01*
X73800000Y-134400000D02*
X61800000Y-134400000D01*
X58800000Y-129700000D02*
X58800000Y-126150000D01*
D35*
X106840000Y-165015000D02*
X100640000Y-165015000D01*
X77650000Y-150025000D02*
X77688000Y-149987000D01*
X100640000Y-165015000D02*
X95650000Y-160025000D01*
X95650000Y-150025000D02*
X95650000Y-139430000D01*
X118101000Y-153416000D02*
X114460000Y-149775000D01*
D36*
X137880000Y-128670000D02*
X137850000Y-128700000D01*
D35*
X159512000Y-152273000D02*
X160010000Y-151775000D01*
X125650000Y-160025000D02*
X124710000Y-160025000D01*
X77650000Y-150025000D02*
X77425000Y-150025000D01*
D36*
X135520401Y-152626781D02*
X135520401Y-153035000D01*
X135350000Y-131200000D02*
X135350000Y-137800000D01*
D35*
X119300000Y-128700000D02*
X117400000Y-126800000D01*
X125650000Y-128700000D02*
X119300000Y-128700000D01*
D37*
X96700000Y-115300000D02*
X109900000Y-115300000D01*
X109900000Y-115300000D02*
X118600000Y-115300000D01*
X90000000Y-122000000D02*
X90000000Y-125180000D01*
D35*
X95612000Y-149987000D02*
X95650000Y-150025000D01*
X148077000Y-160025000D02*
X149352000Y-158750000D01*
X149352000Y-158750000D02*
X153035000Y-158750000D01*
X109900000Y-119920000D02*
X109900000Y-115300000D01*
D36*
X145370000Y-128320000D02*
X158670000Y-115020000D01*
D37*
X82800000Y-131390051D02*
X82800000Y-134320000D01*
D35*
X117121000Y-158835000D02*
X118311000Y-160025000D01*
X117400000Y-126800000D02*
X117400000Y-122100000D01*
D37*
X61800000Y-134400000D02*
X61800000Y-132700000D01*
D35*
X77688000Y-149987000D02*
X95612000Y-149987000D01*
D37*
X90000000Y-125180000D02*
X89010051Y-125180000D01*
X82800000Y-134320000D02*
X90540000Y-134320000D01*
D35*
X160010000Y-151775000D02*
X161900000Y-151775000D01*
%TO.N,Net-(MCU_0-XTAL1{slash}PB6)*%
X135350000Y-128700000D02*
X133150000Y-130900000D01*
X133150000Y-130900000D02*
X133150000Y-133300000D01*
X133150000Y-137460000D02*
X132810000Y-137800000D01*
X133150000Y-133300000D02*
X133150000Y-137460000D01*
%TO.N,Net-(MCU_0-XTAL2{slash}PB7)*%
X128150000Y-133180000D02*
X128270000Y-133300000D01*
X130270000Y-135300000D02*
X128270000Y-133300000D01*
X130270000Y-137800000D02*
X130270000Y-135300000D01*
D37*
%TO.N,Net-(D8-K)*%
X75440000Y-113500000D02*
X75440000Y-106770000D01*
D35*
X95650000Y-165025000D02*
X77650000Y-165025000D01*
D36*
X137150000Y-113100000D02*
X138550000Y-111700000D01*
D37*
X82710000Y-113500000D02*
X75440000Y-113500000D01*
X82710000Y-113500000D02*
X94833000Y-113500000D01*
D36*
X137890000Y-137800000D02*
X137890000Y-140340000D01*
X138550000Y-111700000D02*
X141078428Y-111700000D01*
X137890000Y-140340000D02*
X133375000Y-144855000D01*
D37*
X137150000Y-113100000D02*
X137750000Y-113700000D01*
D35*
X125650000Y-165025000D02*
X124612000Y-165025000D01*
D36*
X141078428Y-111700000D02*
X142250000Y-112871572D01*
D37*
X95430000Y-112903000D02*
X136953000Y-112903000D01*
D38*
X64040000Y-70485000D02*
X80040000Y-70485000D01*
D36*
X132810000Y-145420000D02*
X133490000Y-146100000D01*
D35*
X107295635Y-166115000D02*
X96740000Y-166115000D01*
D37*
X82710000Y-118990000D02*
X82800000Y-119080000D01*
D35*
X159061522Y-156775000D02*
X156100000Y-159736522D01*
D36*
X133375000Y-144855000D02*
X132810000Y-145420000D01*
D35*
X113020000Y-148675000D02*
X114460000Y-147235000D01*
D38*
X54590000Y-104190000D02*
X54590000Y-86960000D01*
X54590000Y-86960000D02*
X57240000Y-84310000D01*
D36*
X138550000Y-111700000D02*
X166020000Y-111700000D01*
D35*
X108204000Y-156083000D02*
X113020000Y-151267000D01*
D37*
X104323000Y-104010000D02*
X116923000Y-104010000D01*
X75440000Y-113500000D02*
X73130000Y-113500000D01*
D35*
X112247635Y-161163000D02*
X107295635Y-166115000D01*
D36*
X133490000Y-153004599D02*
X133520401Y-153035000D01*
D35*
X157400000Y-164775000D02*
X128730000Y-164775000D01*
X137380000Y-113500000D02*
X137880000Y-114000000D01*
X96740000Y-166115000D02*
X95650000Y-165025000D01*
X95650000Y-155025000D02*
X96327000Y-155702000D01*
X137750000Y-113700000D02*
X137580000Y-113700000D01*
X161900000Y-156775000D02*
X159061522Y-156775000D01*
D36*
X142250000Y-127590000D02*
X137890000Y-131950000D01*
D35*
X156100000Y-159736522D02*
X156100000Y-163475000D01*
D37*
X94833000Y-113500000D02*
X95430000Y-112903000D01*
D35*
X156100000Y-163475000D02*
X157400000Y-164775000D01*
X163900000Y-140532000D02*
X163900000Y-158275000D01*
D37*
X94833000Y-113500000D02*
X104323000Y-104010000D01*
D35*
X99300000Y-125440000D02*
X102280000Y-122460000D01*
X105664000Y-156083000D02*
X108204000Y-156083000D01*
D38*
X57240000Y-84310000D02*
X57240000Y-82905000D01*
D35*
X158369000Y-135001000D02*
X163900000Y-140532000D01*
X128480000Y-165025000D02*
X128730000Y-164775000D01*
D37*
X82710000Y-113500000D02*
X82710000Y-118990000D01*
D36*
X137890000Y-131950000D02*
X137890000Y-137800000D01*
D35*
X124612000Y-165025000D02*
X120750000Y-161163000D01*
X137580000Y-113700000D02*
X137380000Y-113500000D01*
D37*
X136953000Y-112903000D02*
X137150000Y-113100000D01*
X75440000Y-106770000D02*
X72860000Y-104190000D01*
D35*
X77650000Y-155025000D02*
X95650000Y-155025000D01*
D36*
X133490000Y-146100000D02*
X133490000Y-153004599D01*
D35*
X125650000Y-165025000D02*
X128480000Y-165025000D01*
X137880000Y-114000000D02*
X137880000Y-116800000D01*
D36*
X142250000Y-112871572D02*
X142250000Y-127590000D01*
D35*
X131895000Y-165025000D02*
X131650000Y-165025000D01*
X96327000Y-155702000D02*
X105283000Y-155702000D01*
X120750000Y-161163000D02*
X112247635Y-161163000D01*
X113020000Y-151267000D02*
X113020000Y-148675000D01*
X99300000Y-137700000D02*
X99300000Y-125440000D01*
D37*
X72860000Y-104190000D02*
X54590000Y-104190000D01*
D35*
X163900000Y-158275000D02*
X157400000Y-164775000D01*
X105283000Y-155702000D02*
X105664000Y-156083000D01*
D37*
X54590000Y-119400000D02*
X54590000Y-104190000D01*
D36*
X166020000Y-111700000D02*
X166800000Y-112480000D01*
D38*
%TO.N,Net-(D0-K)*%
X62340000Y-88110000D02*
X62340000Y-92550000D01*
D36*
X80000000Y-76640000D02*
X85690000Y-70950000D01*
X99730000Y-70950000D02*
X99760000Y-70920000D01*
D35*
X123155000Y-80265000D02*
X126840000Y-76580000D01*
X62340000Y-92550000D02*
X62300000Y-92590000D01*
D36*
X99760000Y-70920000D02*
X99790000Y-70950000D01*
D35*
X126840000Y-76580000D02*
X126840000Y-61275000D01*
X99690000Y-66140000D02*
X107255000Y-66140000D01*
X120530000Y-80265000D02*
X123155000Y-80265000D01*
D36*
X85690000Y-70950000D02*
X99730000Y-70950000D01*
D35*
X126840000Y-61275000D02*
X125780000Y-60215000D01*
X119480000Y-79215000D02*
X120530000Y-80265000D01*
X107255000Y-66140000D02*
X113180000Y-60215000D01*
D38*
%TO.N,Net-(D0-A)*%
X57965000Y-79640000D02*
X62340000Y-79640000D01*
X134940000Y-85565000D02*
X134940000Y-62169000D01*
X66234000Y-58166000D02*
X58910000Y-65490000D01*
X58910000Y-73098680D02*
X57240000Y-74768680D01*
X58910000Y-65490000D02*
X58910000Y-73098680D01*
X62340000Y-79640000D02*
X62340000Y-85570000D01*
X57240000Y-80365000D02*
X57965000Y-79640000D01*
D35*
X158935000Y-85565000D02*
X158940000Y-85570000D01*
D38*
X134940000Y-85565000D02*
X158935000Y-85565000D01*
X57240000Y-79640000D02*
X57240000Y-80210000D01*
X130937000Y-58166000D02*
X66234000Y-58166000D01*
X57240000Y-74768680D02*
X57240000Y-79640000D01*
X62340000Y-85570000D02*
X86340000Y-85570000D01*
D36*
X86270000Y-85640000D02*
X86340000Y-85570000D01*
D38*
X134940000Y-62169000D02*
X130937000Y-58166000D01*
%TO.N,Net-(D1-K)*%
X70300000Y-92590000D02*
X70300000Y-88150000D01*
D36*
X90180000Y-69080000D02*
X104850000Y-69080000D01*
D35*
X120970000Y-78165000D02*
X122020000Y-79215000D01*
X117522000Y-55118000D02*
X128270000Y-55118000D01*
X122020000Y-79215000D02*
X119210000Y-76405000D01*
D38*
X70300000Y-88150000D02*
X70340000Y-88110000D01*
D35*
X115720000Y-56920000D02*
X117522000Y-55118000D01*
X112080000Y-69380000D02*
X105120000Y-69350000D01*
X110470000Y-78165000D02*
X120970000Y-78165000D01*
X105120000Y-69350000D02*
X105100000Y-69330000D01*
X119210000Y-76405000D02*
X119210000Y-74597000D01*
X109420000Y-79215000D02*
X110470000Y-78165000D01*
X113943000Y-69330000D02*
X112080000Y-69380000D01*
X119210000Y-74597000D02*
X113943000Y-69330000D01*
D36*
X104850000Y-69080000D02*
X105120000Y-69350000D01*
D35*
%TO.N,Net-(D2-K)*%
X106934000Y-96515371D02*
X106880000Y-96461371D01*
X122050000Y-97025000D02*
X119480000Y-94455000D01*
D38*
X78300000Y-88040000D02*
X78300000Y-92480000D01*
D35*
X106934000Y-100965000D02*
X106934000Y-96515371D01*
X122050000Y-101830000D02*
X122050000Y-97025000D01*
X106880000Y-96461371D02*
X106880000Y-94455000D01*
%TO.N,Net-(D3-K)*%
X102480000Y-88120000D02*
X103110000Y-88750000D01*
X95500000Y-75455000D02*
X96550000Y-74405000D01*
X96550000Y-74405000D02*
X107050000Y-74405000D01*
X107050000Y-74405000D02*
X108100000Y-75455000D01*
D36*
X101800000Y-94455000D02*
X95500000Y-88155000D01*
X95500000Y-88030000D02*
X95500000Y-75455000D01*
D38*
X86300000Y-88150000D02*
X86300000Y-92590000D01*
D35*
X103110000Y-93145000D02*
X101800000Y-94455000D01*
D36*
X95500000Y-88150000D02*
X95560000Y-88090000D01*
X95560000Y-88090000D02*
X95500000Y-88030000D01*
X95500000Y-88155000D02*
X95500000Y-88150000D01*
D35*
X103110000Y-88750000D02*
X103110000Y-93145000D01*
%TO.N,Net-(D4-K)*%
X92960000Y-88155000D02*
X92960000Y-75455000D01*
X108370000Y-78265000D02*
X105560000Y-75455000D01*
X111860000Y-94455000D02*
X111770000Y-94365000D01*
D36*
X118930000Y-108560000D02*
X134900000Y-92590000D01*
D35*
X109150000Y-75889924D02*
X108534924Y-76505000D01*
X108370000Y-79649924D02*
X108370000Y-78265000D01*
X111770000Y-83049924D02*
X108370000Y-79649924D01*
D36*
X111860000Y-108080000D02*
X112340000Y-108560000D01*
D35*
X111770000Y-94365000D02*
X111770000Y-83049924D01*
X99260000Y-94455000D02*
X92960000Y-88155000D01*
D38*
X135000000Y-88140000D02*
X135000000Y-92580000D01*
D35*
X108134924Y-74005000D02*
X109150000Y-75020076D01*
D36*
X111860000Y-100310000D02*
X111860000Y-94455000D01*
D35*
X107360000Y-76505000D02*
X106610000Y-76505000D01*
X94410000Y-74005000D02*
X108134924Y-74005000D01*
X106610000Y-76505000D02*
X105560000Y-75455000D01*
X117110000Y-76505000D02*
X107360000Y-76505000D01*
X118160000Y-75455000D02*
X117110000Y-76505000D01*
X109150000Y-75020076D02*
X109150000Y-75889924D01*
D36*
X112340000Y-108560000D02*
X118930000Y-108560000D01*
D35*
X92960000Y-75455000D02*
X94410000Y-74005000D01*
X108534924Y-76505000D02*
X107360000Y-76505000D01*
D36*
%TO.N,Net-(D5-K)*%
X121030000Y-56460000D02*
X121070000Y-56530000D01*
D35*
X100215000Y-80800000D02*
X101800000Y-79215000D01*
X114400000Y-85630000D02*
X114400000Y-79215000D01*
X99220000Y-80800000D02*
X100215000Y-80800000D01*
D38*
X142900000Y-88150000D02*
X142900000Y-92590000D01*
D36*
X159521321Y-94090000D02*
X160660000Y-92951321D01*
X160660000Y-82809000D02*
X134311000Y-56460000D01*
D35*
X113770000Y-71100000D02*
X113640000Y-71230000D01*
X113640000Y-71230000D02*
X108340000Y-71230000D01*
X114460000Y-85690000D02*
X114400000Y-85630000D01*
D36*
X134311000Y-56460000D02*
X121030000Y-56460000D01*
X160660000Y-92951321D02*
X160660000Y-82809000D01*
X142900000Y-92590000D02*
X144400000Y-94090000D01*
X144400000Y-94090000D02*
X159521321Y-94090000D01*
%TO.N,Net-(D6-K)*%
X119970000Y-64800000D02*
X119970000Y-62025000D01*
D35*
X89679000Y-60215000D02*
X92960000Y-60215000D01*
D36*
X119970000Y-62025000D02*
X118160000Y-60215000D01*
D38*
X150940000Y-88150000D02*
X150940000Y-92590000D01*
D35*
X103665000Y-62110000D02*
X105560000Y-60215000D01*
X89662000Y-60198000D02*
X89679000Y-60215000D01*
X101870000Y-62110000D02*
X103665000Y-62110000D01*
%TO.N,Net-(D7-K)*%
X104630000Y-87700000D02*
X104630000Y-87231471D01*
X103120000Y-85721471D02*
X103120000Y-75455000D01*
X128320000Y-88155000D02*
X128320000Y-75455000D01*
X122020000Y-94455000D02*
X128320000Y-88155000D01*
X105090000Y-72170000D02*
X112435000Y-72170000D01*
X112435000Y-72170000D02*
X115720000Y-75455000D01*
X104630000Y-87231471D02*
X103120000Y-85721471D01*
D38*
X158900000Y-88080000D02*
X158900000Y-92520000D01*
D36*
%TO.N,Net-(T_DEC_1-E)*%
X72040000Y-67835000D02*
X73453000Y-67835000D01*
X73453000Y-67835000D02*
X77073000Y-64215000D01*
X77073000Y-64215000D02*
X106640000Y-64215000D01*
X106640000Y-64215000D02*
X110640000Y-60215000D01*
%TO.N,Net-(T_DEC_2-E)*%
X123240000Y-66715000D02*
X123240000Y-60215000D01*
X123240000Y-75455000D02*
X123240000Y-66715000D01*
X122953000Y-67835000D02*
X123240000Y-67548000D01*
X80040000Y-67835000D02*
X122953000Y-67835000D01*
X123240000Y-67548000D02*
X123240000Y-66715000D01*
D37*
%TO.N,+5V*%
X65850000Y-128650000D02*
X64800000Y-129700000D01*
X65850000Y-113500000D02*
X65850000Y-128650000D01*
X64130000Y-107540000D02*
X64170000Y-107500000D01*
X59090000Y-107500000D02*
X59090000Y-113500000D01*
X64170000Y-107500000D02*
X59090000Y-107500000D01*
X59090000Y-113500000D02*
X65850000Y-113500000D01*
D36*
%TO.N,Net-(T_HEX_0-E)*%
X105918000Y-80793000D02*
X104340000Y-79215000D01*
X104323000Y-94472000D02*
X104340000Y-94455000D01*
X104340000Y-94455000D02*
X105918000Y-92877000D01*
X104213000Y-94582000D02*
X104340000Y-94455000D01*
X105918000Y-92877000D02*
X105918000Y-80793000D01*
X104323000Y-100815000D02*
X104323000Y-94472000D01*
%TO.N,Net-(T_HEX_1-E)*%
X116923000Y-94472000D02*
X116940000Y-94455000D01*
X116940000Y-94455000D02*
X116940000Y-79215000D01*
X116923000Y-100815000D02*
X116923000Y-94472000D01*
D35*
%TO.N,Net-(MCU_0-PD2)*%
X97900000Y-137855635D02*
X97900000Y-134520000D01*
X134260401Y-155575000D02*
X132260000Y-153574599D01*
X135509000Y-155575000D02*
X134260401Y-155575000D01*
X139319000Y-149606000D02*
X136840000Y-152085000D01*
X131445000Y-144907000D02*
X128638000Y-142100000D01*
X132260000Y-147246000D02*
X131445000Y-146431000D01*
X132260000Y-153574599D02*
X132260000Y-147246000D01*
X111115786Y-143700000D02*
X103909315Y-143700000D01*
X131445000Y-146431000D02*
X131445000Y-144907000D01*
X136840000Y-152085000D02*
X136840000Y-154244000D01*
X103909315Y-143700000D02*
X103826840Y-143782475D01*
X145510000Y-137800000D02*
X144902000Y-137800000D01*
X128638000Y-142100000D02*
X112715786Y-142100000D01*
X144902000Y-137800000D02*
X139319000Y-143383000D01*
X112715786Y-142100000D02*
X111115786Y-143700000D01*
X139319000Y-143383000D02*
X139319000Y-149606000D01*
X103826840Y-143782475D02*
X97900000Y-137855635D01*
X136840000Y-154244000D02*
X135509000Y-155575000D01*
X97900000Y-134520000D02*
X93600000Y-130220000D01*
%TO.N,Net-(MCU_0-PD3)*%
X161255000Y-160275000D02*
X163500000Y-158030000D01*
X154200000Y-136670000D02*
X144100000Y-136670000D01*
X144100000Y-136670000D02*
X142970000Y-137800000D01*
X163500000Y-145970000D02*
X154200000Y-136670000D01*
X163500000Y-158030000D02*
X163500000Y-145970000D01*
X157400000Y-160275000D02*
X161255000Y-160275000D01*
%TO.N,Net-(MCU_0-PD4)*%
X128803685Y-141700000D02*
X114270000Y-141700000D01*
X113130000Y-140560000D02*
X110390000Y-143300000D01*
X110390000Y-143300000D02*
X103910051Y-143300000D01*
X144610000Y-115570000D02*
X142800000Y-117380000D01*
X102280000Y-133604365D02*
X102280000Y-132620000D01*
X128833686Y-141730000D02*
X128803685Y-141700000D01*
X103380000Y-142769949D02*
X103380000Y-134704365D01*
X142800000Y-117380000D02*
X142800000Y-135430000D01*
X142800000Y-135430000D02*
X140430000Y-137800000D01*
X135060000Y-140980000D02*
X134310000Y-141730000D01*
X103380000Y-134704365D02*
X102280000Y-133604365D01*
X114270000Y-141700000D02*
X113130000Y-140560000D01*
X103910051Y-143300000D02*
X103380000Y-142769949D01*
X134310000Y-141730000D02*
X128833686Y-141730000D01*
%TO.N,Net-(MCU_0-PD5)*%
X115730000Y-140560000D02*
X116750000Y-139540000D01*
X116750000Y-139540000D02*
X125990000Y-139540000D01*
X125990000Y-139540000D02*
X127730000Y-137800000D01*
%TO.N,Net-(MCU_0-PD6)*%
X113490000Y-126100000D02*
X107200000Y-126100000D01*
X106100000Y-125000000D02*
X102280000Y-125000000D01*
X125190000Y-137800000D02*
X113490000Y-126100000D01*
X107200000Y-126100000D02*
X106100000Y-125000000D01*
%TO.N,Net-(MCU_0-PD7)*%
X113246000Y-138900000D02*
X121550000Y-138900000D01*
X121550000Y-138900000D02*
X122650000Y-137800000D01*
X109817000Y-142329000D02*
X113246000Y-138900000D01*
%TO.N,Net-(MCU_0-PB1)*%
X118260000Y-135280000D02*
X118260000Y-135300000D01*
X118260000Y-135300000D02*
X118240000Y-135280000D01*
X102280000Y-127540000D02*
X108800000Y-134060000D01*
X108800000Y-134060000D02*
X117020000Y-134060000D01*
X118240000Y-135280000D02*
X118260000Y-135280000D01*
X117020000Y-134060000D02*
X118240000Y-135280000D01*
%TO.N,Net-(MCU_0-PB3)*%
X124090000Y-146520000D02*
X125190000Y-145420000D01*
X78700000Y-153575000D02*
X98012000Y-153575000D01*
X125603000Y-148336000D02*
X125603000Y-145833000D01*
X119654365Y-146520000D02*
X124090000Y-146520000D01*
X118676365Y-145542000D02*
X119654365Y-146520000D01*
X125603000Y-145833000D02*
X125190000Y-145420000D01*
X77650000Y-152525000D02*
X78700000Y-153575000D01*
X98012000Y-153575000D02*
X106045000Y-145542000D01*
X106045000Y-145542000D02*
X118676365Y-145542000D01*
%TO.N,Net-(MCU_0-PB4)*%
X127762000Y-148336000D02*
X127762000Y-145452000D01*
X152019000Y-156718000D02*
X151638000Y-156337000D01*
X128016000Y-148336000D02*
X127762000Y-148336000D01*
X151638000Y-156337000D02*
X133858000Y-156337000D01*
X133858000Y-156337000D02*
X131318000Y-153797000D01*
X131318000Y-153797000D02*
X131318000Y-151638000D01*
X127762000Y-145452000D02*
X127730000Y-145420000D01*
X131318000Y-151638000D02*
X128016000Y-148336000D01*
%TO.N,Net-(MCU_0-PB5)*%
X129921000Y-148336000D02*
X129921000Y-145769000D01*
X129921000Y-145769000D02*
X130270000Y-145420000D01*
X104075000Y-144100000D02*
X95650000Y-152525000D01*
X130270000Y-145420000D02*
X128950000Y-144100000D01*
X128950000Y-144100000D02*
X104075000Y-144100000D01*
%TO.N,Net-(MCU_0-AREF)*%
X135350000Y-145420000D02*
X135350000Y-148027000D01*
X135350000Y-148027000D02*
X135168000Y-148209000D01*
%TO.N,unconnected-(MCU_0-PC0-Pad23)*%
X140430000Y-145420000D02*
X140430000Y-148177000D01*
X140430000Y-148177000D02*
X140462000Y-148209000D01*
%TO.N,unconnected-(MCU_0-PC1-Pad24)*%
X142970000Y-145420000D02*
X142970000Y-148177000D01*
X142970000Y-148177000D02*
X143002000Y-148209000D01*
%TO.N,unconnected-(MCU_0-PC2-Pad25)*%
X145510000Y-145420000D02*
X145510000Y-148177000D01*
X145510000Y-148177000D02*
X145542000Y-148209000D01*
%TO.N,unconnected-(MCU_0-PC3-Pad26)*%
X148050000Y-145420000D02*
X148050000Y-148177000D01*
X148050000Y-148177000D02*
X148082000Y-148209000D01*
%TO.N,unconnected-(MCU_0-PC4-Pad27)*%
X150590000Y-145420000D02*
X150590000Y-148177000D01*
X150590000Y-148177000D02*
X150622000Y-148209000D01*
%TO.N,unconnected-(MCU_0-PC5-Pad28)*%
X153130000Y-148177000D02*
X153162000Y-148209000D01*
X153130000Y-145420000D02*
X153130000Y-148177000D01*
D36*
%TO.N,Net-(U1-DRAIN0)*%
X133130000Y-117130000D02*
X132800000Y-116800000D01*
D35*
%TO.N,Net-(SW0-B)*%
X76050000Y-165839000D02*
X77216000Y-167005000D01*
X76050000Y-164125000D02*
X76050000Y-165839000D01*
X77650000Y-162525000D02*
X77124000Y-162525000D01*
X77650000Y-162525000D02*
X76050000Y-164125000D01*
X117221000Y-163809635D02*
X117221000Y-162052000D01*
X77216000Y-167005000D02*
X114025635Y-167005000D01*
X114025635Y-167005000D02*
X117221000Y-163809635D01*
%TO.N,Net-(SW1-B)*%
X113475635Y-157395000D02*
X114460000Y-157395000D01*
X106384365Y-163575000D02*
X107295635Y-163575000D01*
X87220000Y-158975000D02*
X101784365Y-158975000D01*
X85598000Y-157353000D02*
X87220000Y-158975000D01*
X107295635Y-163575000D02*
X113475635Y-157395000D01*
X101784365Y-158975000D02*
X106384365Y-163575000D01*
%TO.N,Net-(SW2-B)*%
X88757000Y-158353000D02*
X90330214Y-158353000D01*
X108280000Y-161035000D02*
X114460000Y-154855000D01*
X91438214Y-157245000D02*
X102594365Y-157245000D01*
X106384365Y-161035000D02*
X108280000Y-161035000D01*
X87757000Y-157353000D02*
X88757000Y-158353000D01*
X90330214Y-158353000D02*
X91438214Y-157245000D01*
X102594365Y-157245000D02*
X106384365Y-161035000D01*
%TO.N,Net-(SW3-B)*%
X108280000Y-158495000D02*
X114460000Y-152315000D01*
X89916000Y-157353000D02*
X90424000Y-156845000D01*
X106384365Y-158495000D02*
X108280000Y-158495000D01*
X104734365Y-156845000D02*
X106384365Y-158495000D01*
X90424000Y-156845000D02*
X104734365Y-156845000D01*
%TO.N,Net-(U_Caps1-~{OE})*%
X93600000Y-127680000D02*
X90040000Y-127680000D01*
X90040000Y-127680000D02*
X90000000Y-127720000D01*
%TO.N,Net-(T_LED1-B)*%
X59850000Y-83745000D02*
X59850000Y-88255000D01*
X57740000Y-81635000D02*
X59850000Y-83745000D01*
X59850000Y-88255000D02*
X57240000Y-90865000D01*
X57240000Y-81635000D02*
X57740000Y-81635000D01*
%TO.N,Net-(U_Caps1-QD)*%
X105900000Y-126100000D02*
X105900000Y-128620000D01*
X105900000Y-128620000D02*
X109900000Y-132620000D01*
%TO.N,Net-(T_DEC_0-B)*%
X64035000Y-69100000D02*
X64040000Y-69105000D01*
X60410000Y-69100000D02*
X64035000Y-69100000D01*
%TO.N,Net-(T_DEC_1-B)*%
X72040000Y-69105000D02*
X69095000Y-69105000D01*
X69095000Y-69105000D02*
X68400000Y-68410000D01*
%TO.N,Net-(T_DEC_2-B)*%
X77095000Y-69105000D02*
X80040000Y-69105000D01*
X76400000Y-68410000D02*
X77095000Y-69105000D01*
D38*
%TO.N,unconnected-(RGB1-Pin_2-Pad2)*%
X166300000Y-79870000D02*
X166300000Y-75870000D01*
D35*
%TO.N,unconnected-(U1-SER_OUT-Pad9)*%
X120100000Y-127400000D02*
X120000000Y-127500000D01*
X120100000Y-124420000D02*
X120100000Y-126960000D01*
%TO.N,unconnected-(U_Caps1-QH'-Pad9)*%
X102160000Y-119800000D02*
X102280000Y-119920000D01*
X99500000Y-119800000D02*
X102160000Y-119800000D01*
%TO.N,Net-(MCU_0-PD0)*%
X154360000Y-128840000D02*
X150590000Y-128840000D01*
X74440000Y-154970000D02*
X74440000Y-165360371D01*
X71940000Y-152470000D02*
X74440000Y-154970000D01*
X156950686Y-167805000D02*
X164700000Y-160055685D01*
X74440000Y-165360371D02*
X76884630Y-167805000D01*
X76884630Y-167805000D02*
X156950686Y-167805000D01*
X164700000Y-139180000D02*
X154360000Y-128840000D01*
X150590000Y-128840000D02*
X150610000Y-128840000D01*
X54550000Y-152470000D02*
X71940000Y-152470000D01*
X164700000Y-160055685D02*
X164700000Y-139180000D01*
%TO.N,Net-(MCU_0-PD1)*%
X74840000Y-152430000D02*
X74840000Y-165194685D01*
X157230000Y-132390000D02*
X148080000Y-132390000D01*
X74840000Y-165194685D02*
X77050315Y-167405000D01*
X156785000Y-167405000D02*
X164300000Y-159890000D01*
X164300000Y-139460000D02*
X157230000Y-132390000D01*
X164300000Y-159890000D02*
X164300000Y-139460000D01*
X54550000Y-149930000D02*
X72340000Y-149930000D01*
X77050315Y-167405000D02*
X156785000Y-167405000D01*
X72340000Y-149930000D02*
X74840000Y-152430000D01*
D36*
%TO.N,Net-(T_DEC_0-E)*%
X95771000Y-62484000D02*
X98040000Y-60215000D01*
X64040000Y-67835000D02*
X69391000Y-62484000D01*
X69391000Y-62484000D02*
X95771000Y-62484000D01*
D35*
%TO.N,Net-(RGB2-Pin_1)*%
X54590000Y-139400000D02*
X60490000Y-139400000D01*
X60490000Y-139400000D02*
X60500000Y-139390000D01*
D38*
%TO.N,unconnected-(RGB2-Pin_2-Pad2)*%
X54590000Y-141940000D02*
X54590000Y-145940000D01*
D35*
%TO.N,unconnected-(NC1-Pin_1-Pad1)*%
X54550000Y-156470000D02*
X59630000Y-156470000D01*
%TO.N,unconnected-(NC1-Pin_2-Pad2)*%
X54550000Y-159010000D02*
X59630000Y-159010000D01*
%TO.N,unconnected-(NC2-Pin_1-Pad1)*%
X154640000Y-57300000D02*
X154640000Y-62380000D01*
%TO.N,unconnected-(NC2-Pin_2-Pad2)*%
X152100000Y-57300000D02*
X152100000Y-62380000D01*
%TO.N,unconnected-(NC3-Pin_1-Pad1)*%
X166800000Y-121560000D02*
X161720000Y-121560000D01*
%TO.N,unconnected-(NC3-Pin_2-Pad2)*%
X166800000Y-119020000D02*
X161720000Y-119020000D01*
%TO.N,unconnected-(NC4-Pin_1-Pad1)*%
X166800000Y-128100000D02*
X161720000Y-128100000D01*
%TO.N,unconnected-(NC4-Pin_2-Pad2)*%
X166800000Y-125560000D02*
X161720000Y-125560000D01*
%TD*%
M02*
