%TF.GenerationSoftware,KiCad,Pcbnew,7.0.10*%
%TF.CreationDate,2024-02-06T15:01:58+01:00*%
%TF.ProjectId,diagram_chart,64696167-7261-46d5-9f63-686172742e6b,rev?*%
%TF.SameCoordinates,Original*%
%TF.FileFunction,Copper,L2,Bot*%
%TF.FilePolarity,Positive*%
%FSLAX46Y46*%
G04 Gerber Fmt 4.6, Leading zero omitted, Abs format (unit mm)*
G04 Created by KiCad (PCBNEW 7.0.10) date 2024-02-06 15:01:58*
%MOMM*%
%LPD*%
G01*
G04 APERTURE LIST*
G04 Aperture macros list*
%AMRoundRect*
0 Rectangle with rounded corners*
0 $1 Rounding radius*
0 $2 $3 $4 $5 $6 $7 $8 $9 X,Y pos of 4 corners*
0 Add a 4 corners polygon primitive as box body*
4,1,4,$2,$3,$4,$5,$6,$7,$8,$9,$2,$3,0*
0 Add four circle primitives for the rounded corners*
1,1,$1+$1,$2,$3*
1,1,$1+$1,$4,$5*
1,1,$1+$1,$6,$7*
1,1,$1+$1,$8,$9*
0 Add four rect primitives between the rounded corners*
20,1,$1+$1,$2,$3,$4,$5,0*
20,1,$1+$1,$4,$5,$6,$7,0*
20,1,$1+$1,$6,$7,$8,$9,0*
20,1,$1+$1,$8,$9,$2,$3,0*%
G04 Aperture macros list end*
%TA.AperFunction,ComponentPad*%
%ADD10O,1.600000X1.600000*%
%TD*%
%TA.AperFunction,ComponentPad*%
%ADD11C,1.600000*%
%TD*%
%TA.AperFunction,ComponentPad*%
%ADD12C,1.400000*%
%TD*%
%TA.AperFunction,ComponentPad*%
%ADD13O,1.400000X1.400000*%
%TD*%
%TA.AperFunction,ComponentPad*%
%ADD14C,1.500000*%
%TD*%
%TA.AperFunction,ComponentPad*%
%ADD15RoundRect,0.675000X-0.675000X-0.675000X0.675000X-0.675000X0.675000X0.675000X-0.675000X0.675000X0*%
%TD*%
%TA.AperFunction,ComponentPad*%
%ADD16C,2.700000*%
%TD*%
%TA.AperFunction,ComponentPad*%
%ADD17R,2.600000X2.600000*%
%TD*%
%TA.AperFunction,ComponentPad*%
%ADD18R,1.308000X1.308000*%
%TD*%
%TA.AperFunction,ComponentPad*%
%ADD19C,1.308000*%
%TD*%
%TA.AperFunction,ComponentPad*%
%ADD20R,2.200000X2.200000*%
%TD*%
%TA.AperFunction,ComponentPad*%
%ADD21C,2.200000*%
%TD*%
%TA.AperFunction,ComponentPad*%
%ADD22R,1.500000X1.050000*%
%TD*%
%TA.AperFunction,ComponentPad*%
%ADD23O,1.500000X1.050000*%
%TD*%
%TA.AperFunction,ComponentPad*%
%ADD24R,1.800000X1.800000*%
%TD*%
%TA.AperFunction,ComponentPad*%
%ADD25C,1.800000*%
%TD*%
%TA.AperFunction,ComponentPad*%
%ADD26R,1.200000X1.200000*%
%TD*%
%TA.AperFunction,ComponentPad*%
%ADD27C,1.200000*%
%TD*%
%TA.AperFunction,ComponentPad*%
%ADD28R,3.200000X3.200000*%
%TD*%
%TA.AperFunction,ComponentPad*%
%ADD29O,3.200000X3.200000*%
%TD*%
%TA.AperFunction,ComponentPad*%
%ADD30O,2.500000X1.500000*%
%TD*%
%TA.AperFunction,ComponentPad*%
%ADD31R,1.600000X1.600000*%
%TD*%
%TA.AperFunction,ComponentPad*%
%ADD32C,2.000000*%
%TD*%
%TA.AperFunction,ComponentPad*%
%ADD33C,2.600000*%
%TD*%
%TA.AperFunction,ViaPad*%
%ADD34C,0.600000*%
%TD*%
%TA.AperFunction,Conductor*%
%ADD35C,0.200000*%
%TD*%
%TA.AperFunction,Conductor*%
%ADD36C,0.500000*%
%TD*%
%TA.AperFunction,Conductor*%
%ADD37C,1.000000*%
%TD*%
G04 APERTURE END LIST*
D10*
%TO.P,,7,QH*%
%TO.N,unconnected-(U_Caps1-QH-Pad7)*%
X112700000Y-122460000D03*
%TD*%
D11*
%TO.P,R5,1*%
%TO.N,Net-(D5-K)*%
X142900000Y-92590000D03*
D10*
%TO.P,R5,2*%
%TO.N,Net-(U1-DRAIN5)*%
X142900000Y-100210000D03*
%TD*%
D12*
%TO.P,R29,1*%
%TO.N,Net-(MCU_0-PB3)*%
X125603000Y-148336000D03*
D13*
%TO.P,R29,2*%
%TO.N,GND*%
X125603000Y-153416000D03*
%TD*%
D14*
%TO.P,Y1,1,1*%
%TO.N,Net-(MCU_0-XTAL1{slash}PB6)*%
X133150000Y-133300000D03*
%TO.P,Y1,2,2*%
%TO.N,Net-(MCU_0-XTAL2{slash}PB7)*%
X128270000Y-133300000D03*
%TD*%
D15*
%TO.P,F1,1*%
%TO.N,+5V*%
X59090000Y-113500000D03*
X65850000Y-113500000D03*
D16*
%TO.P,F1,2*%
%TO.N,Net-(D8-K)*%
X73130000Y-113500000D03*
X79890000Y-113500000D03*
%TD*%
D17*
%TO.P,,1*%
%TO.N,+5V*%
X64170000Y-107500000D03*
%TD*%
D18*
%TO.P,hex_0,1*%
%TO.N,Net-(D4-K)*%
X99260000Y-94455000D03*
D19*
%TO.P,hex_0,2*%
%TO.N,Net-(D3-K)*%
X101800000Y-94455000D03*
%TO.P,hex_0,3,CA*%
%TO.N,Net-(T_HEX_0-E)*%
X104340000Y-94455000D03*
%TO.P,hex_0,4*%
%TO.N,Net-(D2-K)*%
X106880000Y-94455000D03*
%TO.P,hex_0,5*%
%TO.N,Net-(D7-K)*%
X109420000Y-94455000D03*
%TO.P,hex_0,6*%
%TO.N,Net-(D1-K)*%
X109420000Y-79215000D03*
%TO.P,hex_0,7*%
%TO.N,Net-(D0-K)*%
X106880000Y-79215000D03*
%TO.P,hex_0,8,CA*%
%TO.N,Net-(T_HEX_0-E)*%
X104340000Y-79215000D03*
%TO.P,hex_0,9*%
%TO.N,Net-(D5-K)*%
X101800000Y-79215000D03*
%TO.P,hex_0,10*%
%TO.N,Net-(D6-K)*%
X99260000Y-79215000D03*
%TD*%
D11*
%TO.P,R4,1*%
%TO.N,Net-(D4-K)*%
X134900000Y-92590000D03*
D10*
%TO.P,R4,2*%
%TO.N,Net-(U1-DRAIN4)*%
X134900000Y-100210000D03*
%TD*%
D11*
%TO.P,R23,1*%
%TO.N,Net-(T_LED1-B)*%
X57240000Y-90865000D03*
D10*
%TO.P,R23,2*%
%TO.N,Net-(U_Caps1-QF)*%
X57240000Y-98485000D03*
%TD*%
D20*
%TO.P,Serial_Screw1,1,Pin_1*%
%TO.N,Net-(MCU_0-PD1)*%
X166300000Y-71410000D03*
D21*
%TO.P,Serial_Screw1,2,Pin_2*%
%TO.N,Net-(MCU_0-PD0)*%
X166300000Y-68870000D03*
%TD*%
D10*
%TO.P,,6,QG*%
%TO.N,unconnected-(U_Caps1-QG-Pad6)*%
X112700000Y-125000000D03*
%TD*%
D21*
%TO.P,,2,Pin_2*%
%TO.N,unconnected-(RGB1-Pin_2-Pad2)*%
X166300000Y-75870000D03*
%TD*%
D10*
%TO.P,,26,PC3*%
%TO.N,unconnected-(MCU_0-PC3-Pad26)*%
X148082000Y-148209000D03*
%TD*%
D22*
%TO.P,T_HEX_1,1,E*%
%TO.N,Net-(T_HEX_1-E)*%
X116923000Y-100815000D03*
D23*
%TO.P,T_HEX_1,2,B*%
%TO.N,Net-(T_HEX_1-B)*%
X116923000Y-102085000D03*
%TO.P,T_HEX_1,3,C*%
%TO.N,Net-(D8-K)*%
X116923000Y-103355000D03*
%TD*%
D11*
%TO.P,CU_Caps1,1*%
%TO.N,Net-(D8-K)*%
X99300000Y-137700000D03*
%TO.P,CU_Caps1,2*%
%TO.N,GND*%
X96800000Y-137700000D03*
%TD*%
D20*
%TO.P,PWR_Screw2,1,Pin_1*%
%TO.N,GND*%
X166800000Y-115020000D03*
D21*
%TO.P,PWR_Screw2,2,Pin_2*%
%TO.N,Net-(D8-K)*%
X166800000Y-112480000D03*
%TD*%
D20*
%TO.P,Serial_Screw1,1,Pin_1*%
%TO.N,Net-(MCU_0-PD1)*%
X54550000Y-149930000D03*
D21*
%TO.P,Serial_Screw1,2,Pin_2*%
%TO.N,Net-(MCU_0-PD0)*%
X54550000Y-152470000D03*
%TD*%
D24*
%TO.P,D4,1,K*%
%TO.N,Net-(D4-K)*%
X134940000Y-88105000D03*
D25*
%TO.P,D4,2,A*%
%TO.N,Net-(D0-A)*%
X134940000Y-85565000D03*
%TD*%
D21*
%TO.P,,2,Pin_2*%
%TO.N,unconnected-(NC2-Pin_2-Pad2)*%
X152100000Y-62380000D03*
%TD*%
D12*
%TO.P,R31,1*%
%TO.N,Net-(MCU_0-PB5)*%
X129921000Y-148336000D03*
D13*
%TO.P,R31,2*%
%TO.N,GND*%
X129921000Y-153416000D03*
%TD*%
D21*
%TO.P,,2,Pin_2*%
%TO.N,unconnected-(NC3-Pin_2-Pad2)*%
X161720000Y-119020000D03*
%TD*%
D22*
%TO.P,T_DEC_0,1,E*%
%TO.N,Net-(T_DEC_0-E)*%
X64040000Y-67835000D03*
D23*
%TO.P,T_DEC_0,2,B*%
%TO.N,Net-(T_DEC_0-B)*%
X64040000Y-69105000D03*
%TO.P,T_DEC_0,3,C*%
%TO.N,Net-(D8-K)*%
X64040000Y-70375000D03*
%TD*%
D20*
%TO.P,NC4,1,Pin_1*%
%TO.N,unconnected-(NC4-Pin_1-Pad1)*%
X166800000Y-128100000D03*
D21*
%TO.P,NC4,2,Pin_2*%
%TO.N,unconnected-(NC4-Pin_2-Pad2)*%
X166800000Y-125560000D03*
%TD*%
D26*
%TO.P,C_MCU1,1*%
%TO.N,Net-(D8-K)*%
X133520401Y-153035000D03*
D27*
%TO.P,C_MCU1,2*%
%TO.N,GND*%
X135520401Y-153035000D03*
%TD*%
D28*
%TO.P,D8,1,K*%
%TO.N,Net-(D8-K)*%
X82800000Y-119080000D03*
D29*
%TO.P,D8,2,A*%
%TO.N,GND*%
X82800000Y-134320000D03*
%TD*%
D24*
%TO.P,D1,1,K*%
%TO.N,Net-(D1-K)*%
X70340000Y-88110000D03*
D25*
%TO.P,D1,2,A*%
%TO.N,Net-(D0-A)*%
X70340000Y-85570000D03*
%TD*%
D11*
%TO.P,R7,1*%
%TO.N,Net-(D7-K)*%
X158900000Y-92590000D03*
D10*
%TO.P,R7,2*%
%TO.N,Net-(U1-DRAIN7)*%
X158900000Y-100210000D03*
%TD*%
D30*
%TO.P,SW4,1,A*%
%TO.N,GND*%
X125650000Y-160025000D03*
%TO.P,SW4,2,B*%
%TO.N,Net-(SW4-B)*%
X125650000Y-162525000D03*
%TO.P,SW4,3,C*%
%TO.N,Net-(D8-K)*%
X125650000Y-165025000D03*
%TD*%
D20*
%TO.P,NC3,1,Pin_1*%
%TO.N,unconnected-(NC3-Pin_1-Pad1)*%
X166800000Y-121560000D03*
D21*
%TO.P,NC3,2,Pin_2*%
%TO.N,unconnected-(NC3-Pin_2-Pad2)*%
X166800000Y-119020000D03*
%TD*%
D20*
%TO.P,,1,Pin_1*%
%TO.N,unconnected-(NC4-Pin_1-Pad1)*%
X161720000Y-128100000D03*
%TD*%
D31*
%TO.P,U_Caps1,1,QB*%
%TO.N,Net-(U_Caps1-QB)*%
X109900000Y-137700000D03*
D10*
%TO.P,U_Caps1,2,QC*%
%TO.N,Net-(U_Caps1-QC)*%
X109900000Y-135160000D03*
%TO.P,U_Caps1,3,QD*%
%TO.N,Net-(U_Caps1-QD)*%
X109900000Y-132620000D03*
%TO.P,U_Caps1,4,QE*%
%TO.N,Net-(U_Caps1-QE)*%
X109900000Y-130080000D03*
%TO.P,U_Caps1,5,QF*%
%TO.N,Net-(U_Caps1-QF)*%
X109900000Y-127540000D03*
%TO.P,U_Caps1,6,QG*%
%TO.N,unconnected-(U_Caps1-QG-Pad6)*%
X109900000Y-125000000D03*
%TO.P,U_Caps1,7,QH*%
%TO.N,unconnected-(U_Caps1-QH-Pad7)*%
X109900000Y-122460000D03*
%TO.P,U_Caps1,8,GND*%
%TO.N,GND*%
X109900000Y-119920000D03*
%TO.P,U_Caps1,9,QH'*%
%TO.N,unconnected-(U_Caps1-QH'-Pad9)*%
X102280000Y-119920000D03*
%TO.P,U_Caps1,10,~{SRCLR}*%
%TO.N,Net-(D8-K)*%
X102280000Y-122460000D03*
%TO.P,U_Caps1,11,SRCLK*%
%TO.N,Net-(MCU_0-PD6)*%
X102280000Y-125000000D03*
%TO.P,U_Caps1,12,RCLK*%
%TO.N,Net-(MCU_0-PB1)*%
X102280000Y-127540000D03*
%TO.P,U_Caps1,13,~{OE}*%
%TO.N,Net-(U_Caps1-~{OE})*%
X102280000Y-130080000D03*
%TO.P,U_Caps1,14,SER*%
%TO.N,Net-(MCU_0-PD4)*%
X102280000Y-132620000D03*
%TO.P,U_Caps1,15,QA*%
%TO.N,Net-(U_Caps1-QA)*%
X102280000Y-135160000D03*
%TO.P,U_Caps1,16,VCC*%
%TO.N,Net-(D8-K)*%
X102280000Y-137700000D03*
%TD*%
D21*
%TO.P,,2,Pin_2*%
%TO.N,unconnected-(RGB2-Pin_2-Pad2)*%
X54590000Y-145940000D03*
%TD*%
D11*
%TO.P,C1,1*%
%TO.N,GND*%
X137850000Y-128700000D03*
%TO.P,C1,2*%
%TO.N,Net-(MCU_0-XTAL1{slash}PB6)*%
X135350000Y-128700000D03*
%TD*%
%TO.P,R2,1*%
%TO.N,Net-(D2-K)*%
X78300000Y-92590000D03*
D10*
%TO.P,R2,2*%
%TO.N,Net-(U1-DRAIN2)*%
X78300000Y-100210000D03*
%TD*%
D12*
%TO.P,R16,1*%
%TO.N,Net-(SW6-B)*%
X143129000Y-157353000D03*
D13*
%TO.P,R16,2*%
%TO.N,GND*%
X143129000Y-152273000D03*
%TD*%
D12*
%TO.P,R21,1*%
%TO.N,Net-(MCU_0-PD5)*%
X115730000Y-140560000D03*
D13*
%TO.P,R21,2*%
%TO.N,Net-(U2-Q7)*%
X115730000Y-143100000D03*
%TD*%
D22*
%TO.P,T_HEX_0,1,E*%
%TO.N,Net-(T_HEX_0-E)*%
X104323000Y-100815000D03*
D23*
%TO.P,T_HEX_0,2,B*%
%TO.N,Net-(T_HEX_0-B)*%
X104323000Y-102085000D03*
%TO.P,T_HEX_0,3,C*%
%TO.N,Net-(D8-K)*%
X104323000Y-103355000D03*
%TD*%
D12*
%TO.P,R10,1*%
%TO.N,Net-(MCU_0-PD3)*%
X147447000Y-157353000D03*
D13*
%TO.P,R10,2*%
%TO.N,GND*%
X147447000Y-152273000D03*
%TD*%
D12*
%TO.P,R17,1*%
%TO.N,Net-(SW7-B)*%
X145288000Y-157353000D03*
D13*
%TO.P,R17,2*%
%TO.N,GND*%
X145288000Y-152273000D03*
%TD*%
D12*
%TO.P,R20,1*%
%TO.N,Net-(U2-Q7)*%
X113130000Y-143100000D03*
D13*
%TO.P,R20,2*%
%TO.N,Net-(MCU_0-PD4)*%
X113130000Y-140560000D03*
%TD*%
D30*
%TO.P,SW__WR1,1,A*%
%TO.N,GND*%
X161900000Y-151775000D03*
%TO.P,SW__WR1,2,B*%
%TO.N,Net-(MCU_0-PB4)*%
X161900000Y-154275000D03*
%TO.P,SW__WR1,3,C*%
%TO.N,Net-(D8-K)*%
X161900000Y-156775000D03*
%TD*%
D11*
%TO.P,R6,1*%
%TO.N,Net-(D6-K)*%
X150900000Y-92590000D03*
D10*
%TO.P,R6,2*%
%TO.N,Net-(U1-DRAIN6)*%
X150900000Y-100210000D03*
%TD*%
D30*
%TO.P,SW0,1,A*%
%TO.N,GND*%
X77650000Y-160025000D03*
%TO.P,SW0,2,B*%
%TO.N,Net-(SW0-B)*%
X77650000Y-162525000D03*
%TO.P,SW0,3,C*%
%TO.N,Net-(D8-K)*%
X77650000Y-165025000D03*
%TD*%
D20*
%TO.P,NC1,1,Pin_1*%
%TO.N,unconnected-(NC1-Pin_1-Pad1)*%
X54550000Y-156470000D03*
D21*
%TO.P,NC1,2,Pin_2*%
%TO.N,unconnected-(NC1-Pin_2-Pad2)*%
X54550000Y-159010000D03*
%TD*%
D11*
%TO.P,R3,1*%
%TO.N,Net-(D3-K)*%
X86300000Y-92590000D03*
D10*
%TO.P,R3,2*%
%TO.N,Net-(U1-DRAIN3)*%
X86300000Y-100210000D03*
%TD*%
D30*
%TO.P,SW3,1,A*%
%TO.N,GND*%
X95650000Y-160025000D03*
%TO.P,SW3,2,B*%
%TO.N,Net-(SW3-B)*%
X95650000Y-162525000D03*
%TO.P,SW3,3,C*%
%TO.N,Net-(D8-K)*%
X95650000Y-165025000D03*
%TD*%
D12*
%TO.P,R15,1*%
%TO.N,Net-(SW5-B)*%
X140970000Y-157353000D03*
D13*
%TO.P,R15,2*%
%TO.N,GND*%
X140970000Y-152273000D03*
%TD*%
D18*
%TO.P,decimal_1,1*%
%TO.N,Net-(D4-K)*%
X105560000Y-75455000D03*
D19*
%TO.P,decimal_1,2*%
%TO.N,Net-(D3-K)*%
X108100000Y-75455000D03*
%TO.P,decimal_1,3,CA*%
%TO.N,Net-(T_DEC_1-E)*%
X110640000Y-75455000D03*
%TO.P,decimal_1,4*%
%TO.N,Net-(D2-K)*%
X113180000Y-75455000D03*
%TO.P,decimal_1,5*%
%TO.N,Net-(D7-K)*%
X115720000Y-75455000D03*
%TO.P,decimal_1,6*%
%TO.N,Net-(D1-K)*%
X115720000Y-60215000D03*
%TO.P,decimal_1,7*%
%TO.N,Net-(D0-K)*%
X113180000Y-60215000D03*
%TO.P,decimal_1,8,CA*%
%TO.N,Net-(T_DEC_1-E)*%
X110640000Y-60215000D03*
%TO.P,decimal_1,9*%
%TO.N,Net-(D5-K)*%
X108100000Y-60215000D03*
%TO.P,decimal_1,10*%
%TO.N,Net-(D6-K)*%
X105560000Y-60215000D03*
%TD*%
D10*
%TO.P,,28,PC5*%
%TO.N,unconnected-(MCU_0-PC5-Pad28)*%
X153162000Y-148209000D03*
%TD*%
%TO.P,,27,PC4*%
%TO.N,unconnected-(MCU_0-PC4-Pad27)*%
X150622000Y-148209000D03*
%TD*%
D30*
%TO.P,SW2,1,A*%
%TO.N,GND*%
X89650000Y-160025000D03*
%TO.P,SW2,2,B*%
%TO.N,Net-(SW2-B)*%
X89650000Y-162525000D03*
%TO.P,SW2,3,C*%
%TO.N,Net-(D8-K)*%
X89650000Y-165025000D03*
%TD*%
D12*
%TO.P,R11,1*%
%TO.N,Net-(SW1-B)*%
X85598000Y-157353000D03*
D13*
%TO.P,R11,2*%
%TO.N,GND*%
X85598000Y-152273000D03*
%TD*%
D11*
%TO.P,R27,1*%
%TO.N,Net-(T_DEC_1-B)*%
X68400000Y-68410000D03*
D10*
%TO.P,R27,2*%
%TO.N,Net-(U_Caps1-QB)*%
X68400000Y-60790000D03*
%TD*%
D20*
%TO.P,,1,Pin_1*%
%TO.N,unconnected-(NC3-Pin_1-Pad1)*%
X161720000Y-121560000D03*
%TD*%
D31*
%TO.P,U2,1,~{PL}*%
%TO.N,Net-(MCU_0-PD7)*%
X106840000Y-147235000D03*
D10*
%TO.P,U2,2,CP*%
%TO.N,Net-(MCU_0-PD6)*%
X106840000Y-149775000D03*
%TO.P,U2,3,D4*%
%TO.N,Net-(SW4-B)*%
X106840000Y-152315000D03*
%TO.P,U2,4,D5*%
%TO.N,Net-(SW5-B)*%
X106840000Y-154855000D03*
%TO.P,U2,5,D6*%
%TO.N,Net-(SW6-B)*%
X106840000Y-157395000D03*
%TO.P,U2,6,D7*%
%TO.N,Net-(SW7-B)*%
X106840000Y-159935000D03*
%TO.P,U2,7,~{Q7}*%
%TO.N,unconnected-(U2-~{Q7}-Pad7)*%
X106840000Y-162475000D03*
%TO.P,U2,8,GND*%
%TO.N,GND*%
X106840000Y-165015000D03*
%TO.P,U2,9,Q7*%
%TO.N,Net-(U2-Q7)*%
X114460000Y-165015000D03*
%TO.P,U2,10,DS*%
%TO.N,unconnected-(U2-DS-Pad10)*%
X114460000Y-162475000D03*
%TO.P,U2,11,D0*%
%TO.N,Net-(SW0-B)*%
X114460000Y-159935000D03*
%TO.P,U2,12,D1*%
%TO.N,Net-(SW1-B)*%
X114460000Y-157395000D03*
%TO.P,U2,13,D2*%
%TO.N,Net-(SW2-B)*%
X114460000Y-154855000D03*
%TO.P,U2,14,D3*%
%TO.N,Net-(SW3-B)*%
X114460000Y-152315000D03*
%TO.P,U2,15,~{CE}*%
%TO.N,GND*%
X114460000Y-149775000D03*
%TO.P,U2,16,VCC*%
%TO.N,Net-(D8-K)*%
X114460000Y-147235000D03*
%TD*%
D12*
%TO.P,R18,1*%
%TO.N,Net-(U_Caps1-~{OE})*%
X90000000Y-127720000D03*
D13*
%TO.P,R18,2*%
%TO.N,GND*%
X90000000Y-125180000D03*
%TD*%
D10*
%TO.P,,25,PC2*%
%TO.N,unconnected-(MCU_0-PC2-Pad25)*%
X145542000Y-148209000D03*
%TD*%
D11*
%TO.P,,1*%
%TO.N,Net-(D8-K)*%
X90250000Y-113500000D03*
%TD*%
D18*
%TO.P,decimal_0,1*%
%TO.N,Net-(D4-K)*%
X92960000Y-75455000D03*
D19*
%TO.P,decimal_0,2*%
%TO.N,Net-(D3-K)*%
X95500000Y-75455000D03*
%TO.P,decimal_0,3,CA*%
%TO.N,Net-(T_DEC_0-E)*%
X98040000Y-75455000D03*
%TO.P,decimal_0,4*%
%TO.N,Net-(D2-K)*%
X100580000Y-75455000D03*
%TO.P,decimal_0,5*%
%TO.N,Net-(D7-K)*%
X103120000Y-75455000D03*
%TO.P,decimal_0,6*%
%TO.N,Net-(D1-K)*%
X103120000Y-60215000D03*
%TO.P,decimal_0,7*%
%TO.N,Net-(D0-K)*%
X100580000Y-60215000D03*
%TO.P,decimal_0,8,CA*%
%TO.N,Net-(T_DEC_0-E)*%
X98040000Y-60215000D03*
%TO.P,decimal_0,9*%
%TO.N,Net-(D5-K)*%
X95500000Y-60215000D03*
%TO.P,decimal_0,10*%
%TO.N,Net-(D6-K)*%
X92960000Y-60215000D03*
%TD*%
D12*
%TO.P,R22,1*%
%TO.N,Net-(D8-K)*%
X115697000Y-131572000D03*
D13*
%TO.P,R22,2*%
%TO.N,Net-(U1-~{CLR})*%
X115697000Y-126492000D03*
%TD*%
D11*
%TO.P,CU2,1*%
%TO.N,Net-(MCU_0-AREF)*%
X135402000Y-148209000D03*
%TO.P,CU2,2*%
%TO.N,GND*%
X137902000Y-148209000D03*
%TD*%
%TO.P,R32,1*%
%TO.N,Net-(RGB1-Pin_1)*%
X166300000Y-92590000D03*
D10*
%TO.P,R32,2*%
%TO.N,Net-(MCU_0-PB2)*%
X166300000Y-100210000D03*
%TD*%
D12*
%TO.P,R12,1*%
%TO.N,Net-(SW2-B)*%
X87757000Y-157353000D03*
D13*
%TO.P,R12,2*%
%TO.N,GND*%
X87757000Y-152273000D03*
%TD*%
D12*
%TO.P,R9,1*%
%TO.N,Net-(D8-K)*%
X158369000Y-135001000D03*
D13*
%TO.P,R9,2*%
%TO.N,Net-(MCU_0-~{RESET}{slash}PC6)*%
X153289000Y-135001000D03*
%TD*%
D20*
%TO.P,,1,Pin_1*%
%TO.N,unconnected-(NC2-Pin_1-Pad1)*%
X154640000Y-62380000D03*
%TD*%
D12*
%TO.P,R8,1*%
%TO.N,Net-(SW0-B)*%
X83439000Y-157353000D03*
D13*
%TO.P,R8,2*%
%TO.N,GND*%
X83439000Y-152273000D03*
%TD*%
D20*
%TO.P,NC2,1,Pin_1*%
%TO.N,unconnected-(NC2-Pin_1-Pad1)*%
X154640000Y-57300000D03*
D21*
%TO.P,NC2,2,Pin_2*%
%TO.N,unconnected-(NC2-Pin_2-Pad2)*%
X152100000Y-57300000D03*
%TD*%
D18*
%TO.P,hex_1,1*%
%TO.N,Net-(D4-K)*%
X111860000Y-94455000D03*
D19*
%TO.P,hex_1,2*%
%TO.N,Net-(D3-K)*%
X114400000Y-94455000D03*
%TO.P,hex_1,3,CA*%
%TO.N,Net-(T_HEX_1-E)*%
X116940000Y-94455000D03*
%TO.P,hex_1,4*%
%TO.N,Net-(D2-K)*%
X119480000Y-94455000D03*
%TO.P,hex_1,5*%
%TO.N,Net-(D7-K)*%
X122020000Y-94455000D03*
%TO.P,hex_1,6*%
%TO.N,Net-(D1-K)*%
X122020000Y-79215000D03*
%TO.P,hex_1,7*%
%TO.N,Net-(D0-K)*%
X119480000Y-79215000D03*
%TO.P,hex_1,8,CA*%
%TO.N,Net-(T_HEX_1-E)*%
X116940000Y-79215000D03*
%TO.P,hex_1,9*%
%TO.N,Net-(D5-K)*%
X114400000Y-79215000D03*
%TO.P,hex_1,10*%
%TO.N,Net-(D6-K)*%
X111860000Y-79215000D03*
%TD*%
D10*
%TO.P,,24,PC1*%
%TO.N,unconnected-(MCU_0-PC1-Pad24)*%
X143002000Y-148209000D03*
%TD*%
D18*
%TO.P,decimal_2,1*%
%TO.N,Net-(D4-K)*%
X118160000Y-75455000D03*
D19*
%TO.P,decimal_2,2*%
%TO.N,Net-(D3-K)*%
X120700000Y-75455000D03*
%TO.P,decimal_2,3,CA*%
%TO.N,Net-(T_DEC_2-E)*%
X123240000Y-75455000D03*
%TO.P,decimal_2,4*%
%TO.N,Net-(D2-K)*%
X125780000Y-75455000D03*
%TO.P,decimal_2,5*%
%TO.N,Net-(D7-K)*%
X128320000Y-75455000D03*
%TO.P,decimal_2,6*%
%TO.N,Net-(D1-K)*%
X128320000Y-60215000D03*
%TO.P,decimal_2,7*%
%TO.N,Net-(D0-K)*%
X125780000Y-60215000D03*
%TO.P,decimal_2,8,CA*%
%TO.N,Net-(T_DEC_2-E)*%
X123240000Y-60215000D03*
%TO.P,decimal_2,9*%
%TO.N,Net-(D5-K)*%
X120700000Y-60215000D03*
%TO.P,decimal_2,10*%
%TO.N,Net-(D6-K)*%
X118160000Y-60215000D03*
%TD*%
D11*
%TO.P,R24,1*%
%TO.N,Net-(U_Caps1-QD)*%
X91823000Y-102085000D03*
D10*
%TO.P,R24,2*%
%TO.N,Net-(T_HEX_0-B)*%
X99443000Y-102085000D03*
%TD*%
D11*
%TO.P,R28,1*%
%TO.N,Net-(U_Caps1-QC)*%
X76400000Y-60790000D03*
D10*
%TO.P,R28,2*%
%TO.N,Net-(T_DEC_2-B)*%
X76400000Y-68410000D03*
%TD*%
D24*
%TO.P,D7,1,K*%
%TO.N,Net-(D7-K)*%
X158940000Y-88110000D03*
D25*
%TO.P,D7,2,A*%
%TO.N,Net-(D0-A)*%
X158940000Y-85570000D03*
%TD*%
D32*
%TO.P,SW_N1,1,1*%
%TO.N,Net-(MCU_0-PD3)*%
X150900000Y-160275000D03*
X157400000Y-160275000D03*
%TO.P,SW_N1,2,2*%
%TO.N,Net-(D8-K)*%
X150900000Y-164775000D03*
X157400000Y-164775000D03*
%TD*%
D30*
%TO.P,SW_Mem1,1,A*%
%TO.N,GND*%
X77650000Y-150025000D03*
%TO.P,SW_Mem1,2,B*%
%TO.N,Net-(MCU_0-PB3)*%
X77650000Y-152525000D03*
%TO.P,SW_Mem1,3,C*%
%TO.N,Net-(D8-K)*%
X77650000Y-155025000D03*
%TD*%
D24*
%TO.P,D2,1,K*%
%TO.N,Net-(D2-K)*%
X78340000Y-88110000D03*
D25*
%TO.P,D2,2,A*%
%TO.N,Net-(D0-A)*%
X78340000Y-85570000D03*
%TD*%
D21*
%TO.P,,2,Pin_2*%
%TO.N,unconnected-(NC1-Pin_2-Pad2)*%
X59630000Y-159010000D03*
%TD*%
D12*
%TO.P,R14,1*%
%TO.N,Net-(SW4-B)*%
X138811000Y-157353000D03*
D13*
%TO.P,R14,2*%
%TO.N,GND*%
X138811000Y-152273000D03*
%TD*%
D11*
%TO.P,R33,1*%
%TO.N,Net-(RGB2-Pin_1)*%
X60500000Y-139390000D03*
D10*
%TO.P,R33,2*%
%TO.N,Net-(MCU_0-PB2)*%
X68120000Y-139390000D03*
%TD*%
%TO.P,,9,SER_OUT*%
%TO.N,unconnected-(U1-SER_OUT-Pad9)*%
X120100000Y-126960000D03*
%TD*%
%TO.P,,23,PC0*%
%TO.N,unconnected-(MCU_0-PC0-Pad23)*%
X140462000Y-148209000D03*
%TD*%
D12*
%TO.P,R13,1*%
%TO.N,Net-(SW3-B)*%
X89916000Y-157353000D03*
D13*
%TO.P,R13,2*%
%TO.N,GND*%
X89916000Y-152273000D03*
%TD*%
D17*
%TO.P,DC-In1,1*%
%TO.N,+5V*%
X64800000Y-129700000D03*
D33*
%TO.P,DC-In1,2*%
%TO.N,GND*%
X58800000Y-129700000D03*
%TO.P,DC-In1,3*%
X61800000Y-134400000D03*
%TD*%
D30*
%TO.P,SW5,1,A*%
%TO.N,GND*%
X131650000Y-160025000D03*
%TO.P,SW5,2,B*%
%TO.N,Net-(SW5-B)*%
X131650000Y-162525000D03*
%TO.P,SW5,3,C*%
%TO.N,Net-(D8-K)*%
X131650000Y-165025000D03*
%TD*%
D11*
%TO.P,,1*%
%TO.N,Net-(D8-K)*%
X87710000Y-113500000D03*
%TD*%
D31*
%TO.P,U1,1,VCC*%
%TO.N,Net-(D8-K)*%
X137880000Y-116800000D03*
D10*
%TO.P,U1,2,SER_IN*%
%TO.N,Net-(MCU_0-PD4)*%
X135340000Y-116800000D03*
%TO.P,U1,3,DRAIN0*%
%TO.N,Net-(U1-DRAIN0)*%
X132800000Y-116800000D03*
%TO.P,U1,4,DRAIN1*%
%TO.N,Net-(U1-DRAIN1)*%
X130260000Y-116800000D03*
%TO.P,U1,5,DRAIN2*%
%TO.N,Net-(U1-DRAIN2)*%
X127720000Y-116800000D03*
%TO.P,U1,6,DRAIN3*%
%TO.N,Net-(U1-DRAIN3)*%
X125180000Y-116800000D03*
%TO.P,U1,7,~{CLR}*%
%TO.N,Net-(U1-~{CLR})*%
X122640000Y-116800000D03*
%TO.P,U1,8,~{G}*%
%TO.N,GND*%
X120100000Y-116800000D03*
%TO.P,U1,9,SER_OUT*%
%TO.N,unconnected-(U1-SER_OUT-Pad9)*%
X120100000Y-124420000D03*
%TO.P,U1,10,RCLK*%
%TO.N,Net-(MCU_0-PB0)*%
X122640000Y-124420000D03*
%TO.P,U1,11,DRAIN4*%
%TO.N,Net-(U1-DRAIN4)*%
X125180000Y-124420000D03*
%TO.P,U1,12,DRAIN5*%
%TO.N,Net-(U1-DRAIN5)*%
X127720000Y-124420000D03*
%TO.P,U1,13,DRAIN6*%
%TO.N,Net-(U1-DRAIN6)*%
X130260000Y-124420000D03*
%TO.P,U1,14,DRAIN7*%
%TO.N,Net-(U1-DRAIN7)*%
X132800000Y-124420000D03*
%TO.P,U1,15,SRCK*%
%TO.N,Net-(MCU_0-PD6)*%
X135340000Y-124420000D03*
%TO.P,U1,16,GND*%
%TO.N,GND*%
X137880000Y-124420000D03*
%TD*%
D20*
%TO.P,,1,Pin_1*%
%TO.N,unconnected-(NC1-Pin_1-Pad1)*%
X59630000Y-156470000D03*
%TD*%
D30*
%TO.P,SW_Serr1,1,A*%
%TO.N,GND*%
X95650000Y-150025000D03*
%TO.P,SW_Serr1,2,B*%
%TO.N,Net-(MCU_0-PB5)*%
X95650000Y-152525000D03*
%TO.P,SW_Serr1,3,C*%
%TO.N,Net-(D8-K)*%
X95650000Y-155025000D03*
%TD*%
D11*
%TO.P,CU1,1*%
%TO.N,Net-(D8-K)*%
X137750000Y-113700000D03*
%TO.P,CU1,2*%
%TO.N,GND*%
X140250000Y-113700000D03*
%TD*%
%TO.P,R25,1*%
%TO.N,Net-(T_HEX_1-B)*%
X115800000Y-110380000D03*
D10*
%TO.P,R25,2*%
%TO.N,Net-(U_Caps1-QE)*%
X115800000Y-118000000D03*
%TD*%
D11*
%TO.P,R1,1*%
%TO.N,Net-(D1-K)*%
X70300000Y-92590000D03*
D10*
%TO.P,R1,2*%
%TO.N,Net-(U1-DRAIN1)*%
X70300000Y-100210000D03*
%TD*%
%TO.P,,*%
%TO.N,GND*%
X90540000Y-134320000D03*
%TD*%
D22*
%TO.P,T_DEC_1,1,E*%
%TO.N,Net-(T_DEC_1-E)*%
X72040000Y-67835000D03*
D23*
%TO.P,T_DEC_1,2,B*%
%TO.N,Net-(T_DEC_1-B)*%
X72040000Y-69105000D03*
%TO.P,T_DEC_1,3,C*%
%TO.N,Net-(D8-K)*%
X72040000Y-70375000D03*
%TD*%
D17*
%TO.P,,1*%
%TO.N,+5V*%
X59090000Y-107500000D03*
%TD*%
D10*
%TO.P,,9,QH'*%
%TO.N,unconnected-(U_Caps1-QH'-Pad9)*%
X99500000Y-119800000D03*
%TD*%
D21*
%TO.P,,2,Pin_2*%
%TO.N,unconnected-(NC4-Pin_2-Pad2)*%
X161720000Y-125560000D03*
%TD*%
D31*
%TO.P,MCU_0,1,~{RESET}/PC6*%
%TO.N,Net-(MCU_0-~{RESET}{slash}PC6)*%
X153130000Y-137800000D03*
D10*
%TO.P,MCU_0,2,PD0*%
%TO.N,Net-(MCU_0-PD0)*%
X150590000Y-137800000D03*
%TO.P,MCU_0,3,PD1*%
%TO.N,Net-(MCU_0-PD1)*%
X148050000Y-137800000D03*
%TO.P,MCU_0,4,PD2*%
%TO.N,Net-(MCU_0-PD2)*%
X145510000Y-137800000D03*
%TO.P,MCU_0,5,PD3*%
%TO.N,Net-(MCU_0-PD3)*%
X142970000Y-137800000D03*
%TO.P,MCU_0,6,PD4*%
%TO.N,Net-(MCU_0-PD4)*%
X140430000Y-137800000D03*
%TO.P,MCU_0,7,VCC*%
%TO.N,Net-(D8-K)*%
X137890000Y-137800000D03*
%TO.P,MCU_0,8,GND*%
%TO.N,GND*%
X135350000Y-137800000D03*
%TO.P,MCU_0,9,XTAL1/PB6*%
%TO.N,Net-(MCU_0-XTAL1{slash}PB6)*%
X132810000Y-137800000D03*
%TO.P,MCU_0,10,XTAL2/PB7*%
%TO.N,Net-(MCU_0-XTAL2{slash}PB7)*%
X130270000Y-137800000D03*
%TO.P,MCU_0,11,PD5*%
%TO.N,Net-(MCU_0-PD5)*%
X127730000Y-137800000D03*
%TO.P,MCU_0,12,PD6*%
%TO.N,Net-(MCU_0-PD6)*%
X125190000Y-137800000D03*
%TO.P,MCU_0,13,PD7*%
%TO.N,Net-(MCU_0-PD7)*%
X122650000Y-137800000D03*
%TO.P,MCU_0,14,PB0*%
%TO.N,Net-(MCU_0-PB0)*%
X120110000Y-137800000D03*
%TO.P,MCU_0,15,PB1*%
%TO.N,Net-(MCU_0-PB1)*%
X120110000Y-145420000D03*
%TO.P,MCU_0,16,PB2*%
%TO.N,Net-(MCU_0-PB2)*%
X122650000Y-145420000D03*
%TO.P,MCU_0,17,PB3*%
%TO.N,Net-(MCU_0-PB3)*%
X125190000Y-145420000D03*
%TO.P,MCU_0,18,PB4*%
%TO.N,Net-(MCU_0-PB4)*%
X127730000Y-145420000D03*
%TO.P,MCU_0,19,PB5*%
%TO.N,Net-(MCU_0-PB5)*%
X130270000Y-145420000D03*
%TO.P,MCU_0,20,AVCC*%
%TO.N,Net-(D8-K)*%
X132810000Y-145420000D03*
%TO.P,MCU_0,21,AREF*%
%TO.N,Net-(MCU_0-AREF)*%
X135350000Y-145420000D03*
%TO.P,MCU_0,22,GND*%
%TO.N,GND*%
X137890000Y-145420000D03*
%TO.P,MCU_0,23,PC0*%
%TO.N,unconnected-(MCU_0-PC0-Pad23)*%
X140430000Y-145420000D03*
%TO.P,MCU_0,24,PC1*%
%TO.N,unconnected-(MCU_0-PC1-Pad24)*%
X142970000Y-145420000D03*
%TO.P,MCU_0,25,PC2*%
%TO.N,unconnected-(MCU_0-PC2-Pad25)*%
X145510000Y-145420000D03*
%TO.P,MCU_0,26,PC3*%
%TO.N,unconnected-(MCU_0-PC3-Pad26)*%
X148050000Y-145420000D03*
%TO.P,MCU_0,27,PC4*%
%TO.N,unconnected-(MCU_0-PC4-Pad27)*%
X150590000Y-145420000D03*
%TO.P,MCU_0,28,PC5*%
%TO.N,unconnected-(MCU_0-PC5-Pad28)*%
X153130000Y-145420000D03*
%TD*%
D11*
%TO.P,R26,1*%
%TO.N,Net-(T_DEC_0-B)*%
X60410000Y-69100000D03*
D10*
%TO.P,R26,2*%
%TO.N,Net-(U_Caps1-QA)*%
X60410000Y-76720000D03*
%TD*%
D24*
%TO.P,D5,1,K*%
%TO.N,Net-(D5-K)*%
X142940000Y-88110000D03*
D25*
%TO.P,D5,2,A*%
%TO.N,Net-(D0-A)*%
X142940000Y-85570000D03*
%TD*%
D30*
%TO.P,SW1,1,A*%
%TO.N,GND*%
X83650000Y-160025000D03*
%TO.P,SW1,2,B*%
%TO.N,Net-(SW1-B)*%
X83650000Y-162525000D03*
%TO.P,SW1,3,C*%
%TO.N,Net-(D8-K)*%
X83650000Y-165025000D03*
%TD*%
D20*
%TO.P,RGB1,1,Pin_1*%
%TO.N,Net-(RGB1-Pin_1)*%
X166300000Y-82410000D03*
D21*
%TO.P,RGB1,2,Pin_2*%
%TO.N,unconnected-(RGB1-Pin_2-Pad2)*%
X166300000Y-79870000D03*
%TD*%
D22*
%TO.P,T_LED1,1,E*%
%TO.N,Net-(D0-A)*%
X57240000Y-80365000D03*
D23*
%TO.P,T_LED1,2,B*%
%TO.N,Net-(T_LED1-B)*%
X57240000Y-81635000D03*
%TO.P,T_LED1,3,C*%
%TO.N,Net-(D8-K)*%
X57240000Y-82905000D03*
%TD*%
D24*
%TO.P,D3,1,K*%
%TO.N,Net-(D3-K)*%
X86340000Y-88110000D03*
D25*
%TO.P,D3,2,A*%
%TO.N,Net-(D0-A)*%
X86340000Y-85570000D03*
%TD*%
D11*
%TO.P,R0,1*%
%TO.N,Net-(D0-K)*%
X62300000Y-92590000D03*
D10*
%TO.P,R0,2*%
%TO.N,Net-(U1-DRAIN0)*%
X62300000Y-100210000D03*
%TD*%
D20*
%TO.P,RGB2,1,Pin_1*%
%TO.N,Net-(RGB2-Pin_1)*%
X54590000Y-139400000D03*
D21*
%TO.P,RGB2,2,Pin_2*%
%TO.N,unconnected-(RGB2-Pin_2-Pad2)*%
X54590000Y-141940000D03*
%TD*%
D12*
%TO.P,R30,1*%
%TO.N,Net-(MCU_0-PB4)*%
X127762000Y-148336000D03*
D13*
%TO.P,R30,2*%
%TO.N,GND*%
X127762000Y-153416000D03*
%TD*%
D12*
%TO.P,R19,1*%
%TO.N,Net-(U_Caps1-~{OE})*%
X93600000Y-127680000D03*
D13*
%TO.P,R19,2*%
%TO.N,Net-(MCU_0-PD2)*%
X93600000Y-130220000D03*
%TD*%
D20*
%TO.P,PWR_Screw1,1,Pin_1*%
%TO.N,Net-(D8-K)*%
X54590000Y-119400000D03*
D21*
%TO.P,PWR_Screw1,2,Pin_2*%
%TO.N,GND*%
X54590000Y-121940000D03*
%TD*%
D11*
%TO.P,C2,1*%
%TO.N,Net-(MCU_0-XTAL2{slash}PB7)*%
X128150000Y-128700000D03*
%TO.P,C2,2*%
%TO.N,GND*%
X125650000Y-128700000D03*
%TD*%
D24*
%TO.P,D0,1,K*%
%TO.N,Net-(D0-K)*%
X62340000Y-88110000D03*
D25*
%TO.P,D0,2,A*%
%TO.N,Net-(D0-A)*%
X62340000Y-85570000D03*
%TD*%
D30*
%TO.P,SW6,1,A*%
%TO.N,GND*%
X137650000Y-160025000D03*
%TO.P,SW6,2,B*%
%TO.N,Net-(SW6-B)*%
X137650000Y-162525000D03*
%TO.P,SW6,3,C*%
%TO.N,Net-(D8-K)*%
X137650000Y-165025000D03*
%TD*%
%TO.P,SW7,1,A*%
%TO.N,GND*%
X143650000Y-160025000D03*
%TO.P,SW7,2,B*%
%TO.N,Net-(SW7-B)*%
X143650000Y-162525000D03*
%TO.P,SW7,3,C*%
%TO.N,Net-(D8-K)*%
X143650000Y-165025000D03*
%TD*%
D10*
%TO.P,,*%
%TO.N,GND*%
X88000000Y-134320000D03*
%TD*%
D24*
%TO.P,D6,1,K*%
%TO.N,Net-(D6-K)*%
X150940000Y-88110000D03*
D25*
%TO.P,D6,2,A*%
%TO.N,Net-(D0-A)*%
X150940000Y-85570000D03*
%TD*%
D22*
%TO.P,T_DEC_2,1,E*%
%TO.N,Net-(T_DEC_2-E)*%
X80040000Y-67835000D03*
D23*
%TO.P,T_DEC_2,2,B*%
%TO.N,Net-(T_DEC_2-B)*%
X80040000Y-69105000D03*
%TO.P,T_DEC_2,3,C*%
%TO.N,Net-(D8-K)*%
X80040000Y-70375000D03*
%TD*%
D34*
%TO.N,GND*%
X145370000Y-128320000D03*
%TO.N,Net-(D0-K)*%
X99690000Y-66140000D03*
X80000000Y-76640000D03*
X99760000Y-70920000D03*
%TO.N,Net-(D1-K)*%
X128270000Y-55118000D03*
X112080000Y-69380000D03*
X90180000Y-69080000D03*
X105120000Y-69350000D03*
X115720000Y-56920000D03*
%TO.N,Net-(D2-K)*%
X106934000Y-100965000D03*
X122050000Y-101830000D03*
%TO.N,Net-(D3-K)*%
X102480000Y-88120000D03*
X95560000Y-88090000D03*
%TO.N,Net-(D4-K)*%
X111860000Y-108080000D03*
X111860000Y-100310000D03*
%TO.N,Net-(D5-K)*%
X113770000Y-71100000D03*
X114460000Y-85690000D03*
X121030000Y-56460000D03*
X99220000Y-80800000D03*
X108340000Y-71230000D03*
%TO.N,Net-(D6-K)*%
X101870000Y-62110000D03*
X119970000Y-64800000D03*
X89662000Y-60198000D03*
%TO.N,Net-(D7-K)*%
X113427500Y-73162500D03*
X105090000Y-72170000D03*
X104630000Y-87700000D03*
%TO.N,Net-(MCU_0-PD4)*%
X144610000Y-115570000D03*
X135060000Y-140980000D03*
%TO.N,Net-(MCU_0-PD7)*%
X109817000Y-142329000D03*
%TO.N,Net-(MCU_0-PB1)*%
X118260000Y-135280000D03*
%TO.N,Net-(MCU_0-PB4)*%
X152019000Y-156718000D03*
%TO.N,Net-(SW0-B)*%
X117221000Y-162052000D03*
%TO.N,Net-(U_Caps1-QD)*%
X105900000Y-126100000D03*
%TO.N,Net-(MCU_0-PD0)*%
X150590000Y-128840000D03*
%TO.N,Net-(MCU_0-PD1)*%
X148080000Y-132390000D03*
%TD*%
D35*
%TO.N,GND*%
X77610000Y-159985000D02*
X77610000Y-157099924D01*
D36*
X135350000Y-137800000D02*
X132810000Y-140340000D01*
X132810000Y-141830000D02*
X133990000Y-143010000D01*
D35*
X96800000Y-137700000D02*
X93920000Y-137700000D01*
X77610000Y-157099924D02*
X79700000Y-155009924D01*
D36*
X135480000Y-143010000D02*
X137890000Y-145420000D01*
D35*
X79700000Y-155009924D02*
X79700000Y-152075000D01*
D36*
X144990000Y-128700000D02*
X145370000Y-128320000D01*
X137850000Y-128700000D02*
X144990000Y-128700000D01*
D35*
X77650000Y-160025000D02*
X77610000Y-159985000D01*
X79700000Y-152075000D02*
X77650000Y-150025000D01*
X93920000Y-137700000D02*
X90540000Y-134320000D01*
D36*
X133990000Y-143010000D02*
X135480000Y-143010000D01*
X132810000Y-140340000D02*
X132810000Y-141830000D01*
D35*
%TO.N,Net-(MCU_0-XTAL2{slash}PB7)*%
X128150000Y-128700000D02*
X128150000Y-133180000D01*
X128150000Y-133180000D02*
X128270000Y-133300000D01*
%TO.N,Net-(D8-K)*%
X76100000Y-144420000D02*
X62240000Y-130560000D01*
X75790000Y-163165000D02*
X75790000Y-156885000D01*
X116730000Y-144965000D02*
X114460000Y-147235000D01*
X62240000Y-130560000D02*
X62240000Y-127050000D01*
X115697000Y-131572000D02*
X115697000Y-134942635D01*
D37*
X54345000Y-82905000D02*
X57240000Y-82905000D01*
D35*
X102280000Y-137700000D02*
X99300000Y-137700000D01*
X102280000Y-122460000D02*
X99210000Y-122460000D01*
D37*
X54345000Y-82905000D02*
X54340000Y-82900000D01*
D35*
X77650000Y-155025000D02*
X76100000Y-153475000D01*
X99210000Y-122460000D02*
X90250000Y-113500000D01*
X75790000Y-156885000D02*
X77650000Y-155025000D01*
X115697000Y-134942635D02*
X116730000Y-135975635D01*
X76100000Y-153475000D02*
X76100000Y-144420000D01*
X116730000Y-135975635D02*
X116730000Y-144965000D01*
D37*
X54340000Y-72360000D02*
X62055000Y-72360000D01*
D35*
X62240000Y-127050000D02*
X54590000Y-119400000D01*
D37*
X54340000Y-82900000D02*
X54340000Y-72360000D01*
X62055000Y-72360000D02*
X64040000Y-70375000D01*
D35*
X77650000Y-165025000D02*
X75790000Y-163165000D01*
D36*
%TO.N,Net-(D0-K)*%
X79930000Y-76710000D02*
X80000000Y-76640000D01*
D35*
X118157500Y-80537500D02*
X119480000Y-79215000D01*
X106880000Y-78140000D02*
X106880000Y-79215000D01*
X100580000Y-60215000D02*
X99690000Y-61105000D01*
X102070000Y-75889924D02*
X104320076Y-78140000D01*
X99690000Y-70950000D02*
X102070000Y-73330000D01*
D36*
X80000000Y-76640000D02*
X80070000Y-76710000D01*
D35*
X104320076Y-78140000D02*
X106880000Y-78140000D01*
D36*
X62340000Y-88110000D02*
X65537258Y-88110000D01*
X80070000Y-76710000D02*
X80140000Y-76710000D01*
X65537258Y-88110000D02*
X76937258Y-76710000D01*
D35*
X99690000Y-66140000D02*
X99690000Y-70950000D01*
X102070000Y-73330000D02*
X102070000Y-75889924D01*
X108202500Y-80537500D02*
X118157500Y-80537500D01*
D36*
X76937258Y-76710000D02*
X79930000Y-76710000D01*
D35*
X106880000Y-79215000D02*
X108202500Y-80537500D01*
X99690000Y-61105000D02*
X99690000Y-66140000D01*
%TO.N,Net-(D1-K)*%
X115720000Y-56920000D02*
X115720000Y-60215000D01*
D36*
X75670000Y-82780000D02*
X76490000Y-82780000D01*
D35*
X105120000Y-62215000D02*
X103120000Y-60215000D01*
D36*
X90180000Y-69090000D02*
X90180000Y-69080000D01*
D35*
X128270000Y-55118000D02*
X128320000Y-55168000D01*
D36*
X70340000Y-88110000D02*
X75670000Y-82780000D01*
D35*
X128270000Y-55118000D02*
X108217000Y-55118000D01*
D36*
X90180000Y-69080000D02*
X90190000Y-69080000D01*
X76490000Y-82780000D02*
X90180000Y-69090000D01*
D35*
X105120000Y-69350000D02*
X105120000Y-62215000D01*
X128320000Y-55168000D02*
X128320000Y-60215000D01*
X112080000Y-69380000D02*
X115720000Y-65740000D01*
X115720000Y-65740000D02*
X115720000Y-60215000D01*
D36*
X90190000Y-69080000D02*
X90150000Y-69120000D01*
D35*
X108217000Y-55118000D02*
X103120000Y-60215000D01*
%TO.N,Net-(D2-K)*%
X125780000Y-75455000D02*
X125780000Y-88155000D01*
X106940000Y-100971000D02*
X106940000Y-112800000D01*
X106940000Y-112800000D02*
X122050000Y-112800000D01*
D36*
X98643000Y-83947000D02*
X100580000Y-82010000D01*
D35*
X100580000Y-75455000D02*
X100580000Y-82010000D01*
X125780000Y-75455000D02*
X124730000Y-74405000D01*
X114230000Y-74405000D02*
X113180000Y-75455000D01*
X100580000Y-88090000D02*
X106880000Y-94390000D01*
X124730000Y-74405000D02*
X114230000Y-74405000D01*
X122050000Y-112800000D02*
X122050000Y-101830000D01*
X106880000Y-94390000D02*
X106880000Y-94455000D01*
X125780000Y-88155000D02*
X119480000Y-94455000D01*
D36*
X82503000Y-83947000D02*
X98643000Y-83947000D01*
X78340000Y-88110000D02*
X82503000Y-83947000D01*
D35*
X100580000Y-82010000D02*
X100580000Y-88090000D01*
D36*
%TO.N,Net-(D3-K)*%
X95540000Y-88110000D02*
X95560000Y-88090000D01*
D35*
X102480000Y-86490000D02*
X103130000Y-85840000D01*
D36*
X86340000Y-88110000D02*
X95540000Y-88110000D01*
D35*
X120650000Y-75694000D02*
X120700000Y-75644000D01*
D36*
X95560000Y-88090000D02*
X95490000Y-88090000D01*
D35*
X109820000Y-89170000D02*
X114400000Y-93750000D01*
X107615685Y-85840000D02*
X109820000Y-88044315D01*
X103130000Y-85840000D02*
X107615685Y-85840000D01*
X114400000Y-93750000D02*
X114400000Y-94455000D01*
X120700000Y-75644000D02*
X120700000Y-75455000D01*
X109820000Y-88044315D02*
X109820000Y-89170000D01*
X102480000Y-88120000D02*
X102480000Y-86490000D01*
X120650000Y-88205000D02*
X120650000Y-75694000D01*
X114400000Y-94455000D02*
X120650000Y-88205000D01*
D36*
%TO.N,Net-(D4-K)*%
X111860000Y-108080000D02*
X111860000Y-100310000D01*
D35*
%TO.N,Net-(D5-K)*%
X94450000Y-59165000D02*
X95500000Y-60215000D01*
X111690000Y-73180000D02*
X111690000Y-76505000D01*
X111690000Y-76505000D02*
X114400000Y-79215000D01*
X113770000Y-68480000D02*
X120700000Y-61550000D01*
X113770000Y-71100000D02*
X111690000Y-73180000D01*
D36*
X121030000Y-59885000D02*
X120700000Y-60215000D01*
D35*
X99220000Y-80800000D02*
X98460000Y-81560000D01*
X108500000Y-85915000D02*
X114245000Y-85915000D01*
X113770000Y-71100000D02*
X113770000Y-68480000D01*
X91910000Y-59780076D02*
X92525076Y-59165000D01*
X108100000Y-70990000D02*
X108100000Y-60215000D01*
X92525076Y-59165000D02*
X94450000Y-59165000D01*
D36*
X121030000Y-56460000D02*
X121030000Y-59885000D01*
D35*
X114460000Y-85700000D02*
X114460000Y-85690000D01*
X97310000Y-81560000D02*
X91910000Y-76160000D01*
X120700000Y-61550000D02*
X120700000Y-60215000D01*
X114470000Y-85690000D02*
X114490000Y-85670000D01*
X114245000Y-85915000D02*
X114460000Y-85700000D01*
X91910000Y-76160000D02*
X91910000Y-59780076D01*
X101800000Y-79215000D02*
X108500000Y-85915000D01*
X114460000Y-85690000D02*
X114470000Y-85690000D01*
X98460000Y-81560000D02*
X97310000Y-81560000D01*
X108340000Y-71230000D02*
X108100000Y-70990000D01*
%TO.N,Net-(D6-K)*%
X109054000Y-76409000D02*
X109054000Y-74132529D01*
X109054000Y-74132529D02*
X101900000Y-66978529D01*
D36*
X144048000Y-64800000D02*
X119970000Y-64800000D01*
X162400000Y-83152000D02*
X144048000Y-64800000D01*
X150940000Y-88110000D02*
X152290000Y-89460000D01*
D35*
X117621000Y-55518000D02*
X118160000Y-56057000D01*
X111860000Y-79215000D02*
X109054000Y-76409000D01*
X101900000Y-62080000D02*
X101900000Y-59010000D01*
X118160000Y-56057000D02*
X118160000Y-60215000D01*
X107101000Y-58674000D02*
X111749431Y-58674000D01*
X101900000Y-59010000D02*
X101860000Y-58970000D01*
X111749431Y-58674000D02*
X114905431Y-55518000D01*
D36*
X152290000Y-89460000D02*
X160290000Y-89460000D01*
D35*
X96990000Y-64245000D02*
X96990000Y-76945000D01*
X96990000Y-76945000D02*
X99260000Y-79215000D01*
X101900000Y-66978529D02*
X101900000Y-62140000D01*
X94615685Y-58765000D02*
X91095000Y-58765000D01*
X91095000Y-58765000D02*
X89662000Y-60198000D01*
X105560000Y-60215000D02*
X107101000Y-58674000D01*
D36*
X162400000Y-87350000D02*
X162400000Y-83152000D01*
D35*
X101860000Y-58970000D02*
X94820686Y-58970000D01*
X101870000Y-62110000D02*
X101900000Y-62080000D01*
X92960000Y-60215000D02*
X96990000Y-64245000D01*
D36*
X160290000Y-89460000D02*
X162400000Y-87350000D01*
D35*
X101900000Y-62140000D02*
X101870000Y-62110000D01*
X114905431Y-55518000D02*
X117621000Y-55518000D01*
X94820686Y-58970000D02*
X94615685Y-58765000D01*
%TO.N,Net-(D7-K)*%
X108910000Y-87700000D02*
X109420000Y-88210000D01*
X103120000Y-75455000D02*
X103120000Y-74140000D01*
X113427500Y-73162500D02*
X126027500Y-73162500D01*
D36*
X145305000Y-75455000D02*
X128320000Y-75455000D01*
D35*
X103120000Y-74140000D02*
X105090000Y-72170000D01*
X109420000Y-88210000D02*
X109420000Y-94455000D01*
X126027500Y-73162500D02*
X128320000Y-75455000D01*
X104630000Y-87700000D02*
X108910000Y-87700000D01*
D36*
X158940000Y-88110000D02*
X157960000Y-88110000D01*
X157960000Y-88110000D02*
X145305000Y-75455000D01*
%TO.N,Net-(T_DEC_1-E)*%
X110640000Y-60215000D02*
X110640000Y-75455000D01*
D35*
%TO.N,Net-(MCU_0-~{RESET}{slash}PC6)*%
X153289000Y-137641000D02*
X153130000Y-137800000D01*
X153289000Y-135001000D02*
X153289000Y-137641000D01*
%TO.N,Net-(MCU_0-PD3)*%
X147447000Y-157353000D02*
X150369000Y-160275000D01*
X150900000Y-160275000D02*
X157400000Y-160275000D01*
X150369000Y-160275000D02*
X150900000Y-160275000D01*
%TO.N,Net-(MCU_0-PD4)*%
X140430000Y-137800000D02*
X137250000Y-140980000D01*
X144610000Y-115570000D02*
X136570000Y-115570000D01*
X137250000Y-140980000D02*
X135060000Y-140980000D01*
X136570000Y-115570000D02*
X135340000Y-116800000D01*
%TO.N,Net-(MCU_0-PD6)*%
X121210000Y-138255635D02*
X121210000Y-137440000D01*
X119710000Y-135124314D02*
X119710000Y-135630000D01*
X120565635Y-138900000D02*
X121210000Y-138255635D01*
X121210000Y-137440000D02*
X123020000Y-135630000D01*
X132344365Y-123320000D02*
X134240000Y-123320000D01*
X123020000Y-135630000D02*
X125190000Y-137800000D01*
X117130000Y-134180000D02*
X120654314Y-134180000D01*
X119710000Y-135630000D02*
X119010000Y-136330000D01*
X129625635Y-126950000D02*
X131700000Y-124875635D01*
X107940000Y-148675000D02*
X114575635Y-148675000D01*
X106840000Y-149775000D02*
X107940000Y-148675000D01*
X120654314Y-134180000D02*
X119710000Y-135124314D01*
X119010000Y-136330000D02*
X119010000Y-138255635D01*
X119654365Y-138900000D02*
X120565635Y-138900000D01*
X125190000Y-137800000D02*
X127050000Y-135940000D01*
X119010000Y-138255635D02*
X119654365Y-138900000D01*
X127050000Y-128244365D02*
X128344365Y-126950000D01*
X127050000Y-135940000D02*
X127050000Y-128244365D01*
X131700000Y-124875635D02*
X131700000Y-123964365D01*
X114575635Y-148675000D02*
X117130000Y-146120635D01*
X117130000Y-146120635D02*
X117130000Y-134180000D01*
X131700000Y-123964365D02*
X132344365Y-123320000D01*
X128344365Y-126950000D02*
X129625635Y-126950000D01*
X134240000Y-123320000D02*
X135340000Y-124420000D01*
%TO.N,Net-(MCU_0-PD7)*%
X106840000Y-145306000D02*
X106840000Y-147235000D01*
X109817000Y-142329000D02*
X106840000Y-145306000D01*
%TO.N,Net-(MCU_0-PB0)*%
X122640000Y-132760000D02*
X122640000Y-124420000D01*
X120110000Y-135290000D02*
X122640000Y-132760000D01*
X120110000Y-137800000D02*
X120110000Y-135290000D01*
%TO.N,Net-(MCU_0-PB1)*%
X118260000Y-135280000D02*
X118260000Y-143570000D01*
X118260000Y-143570000D02*
X120110000Y-145420000D01*
%TO.N,Net-(MCU_0-PB2)*%
X163640000Y-162720000D02*
X163640000Y-134260000D01*
X68120000Y-139770000D02*
X75390000Y-147040000D01*
X128921000Y-153830214D02*
X129522786Y-154432000D01*
X154900000Y-114651000D02*
X166300000Y-103251000D01*
X154900000Y-125520000D02*
X154900000Y-114651000D01*
X68120000Y-139390000D02*
X68120000Y-139770000D01*
X75390000Y-147040000D02*
X75390000Y-164749924D01*
X122650000Y-146889786D02*
X128921000Y-153160786D01*
X151638000Y-154432000D02*
X154900000Y-151170000D01*
X79648393Y-169008317D02*
X157351683Y-169008317D01*
X129522786Y-154432000D02*
X151638000Y-154432000D01*
X128921000Y-153160786D02*
X128921000Y-153830214D01*
X163640000Y-134260000D02*
X154900000Y-125520000D01*
X154900000Y-151170000D02*
X154900000Y-125520000D01*
X157351683Y-169008317D02*
X163640000Y-162720000D01*
X122650000Y-145420000D02*
X122650000Y-146889786D01*
X75390000Y-164749924D02*
X79648393Y-169008317D01*
X166300000Y-103251000D02*
X166300000Y-100210000D01*
%TO.N,Net-(MCU_0-PB4)*%
X154462000Y-154275000D02*
X161900000Y-154275000D01*
X152019000Y-156718000D02*
X154462000Y-154275000D01*
D36*
%TO.N,Net-(U1-DRAIN0)*%
X98531000Y-95880000D02*
X126070000Y-95880000D01*
X132800000Y-102610000D02*
X132800000Y-116800000D01*
X126070000Y-95880000D02*
X132800000Y-102610000D01*
X98156000Y-95505000D02*
X98531000Y-95880000D01*
X62300000Y-100210000D02*
X67005000Y-95505000D01*
X67005000Y-95505000D02*
X98156000Y-95505000D01*
%TO.N,Net-(U1-DRAIN1)*%
X72200000Y-98310000D02*
X79210050Y-98310000D01*
X70300000Y-100210000D02*
X72200000Y-98310000D01*
X79210050Y-98310000D02*
X80720050Y-96800000D01*
X80720050Y-96800000D02*
X125630000Y-96800000D01*
X130260000Y-101430000D02*
X130260000Y-116800000D01*
X125630000Y-96800000D02*
X130260000Y-101430000D01*
%TO.N,Net-(U1-DRAIN2)*%
X80710000Y-97800000D02*
X124409950Y-97800000D01*
X78300000Y-100210000D02*
X80710000Y-97800000D01*
X124409950Y-97800000D02*
X127720000Y-101110050D01*
X127720000Y-101110050D02*
X127720000Y-116800000D01*
%TO.N,Net-(U1-DRAIN3)*%
X125180000Y-99560000D02*
X125180000Y-116800000D01*
X124730000Y-99110000D02*
X125180000Y-99560000D01*
X86300000Y-100210000D02*
X87400000Y-99110000D01*
X87400000Y-99110000D02*
X124730000Y-99110000D01*
%TO.N,Net-(U1-DRAIN4)*%
X148205075Y-115485075D02*
X142760150Y-120930000D01*
X128670000Y-120930000D02*
X125180000Y-124420000D01*
X142760150Y-120930000D02*
X128670000Y-120930000D01*
X134900000Y-102180000D02*
X148205075Y-115485075D01*
X134900000Y-100210000D02*
X134900000Y-102180000D01*
%TO.N,Net-(U1-DRAIN5)*%
X149800000Y-114880100D02*
X143050100Y-121630000D01*
X143050100Y-121630000D02*
X130510000Y-121630000D01*
X142900000Y-100210000D02*
X149800000Y-107110000D01*
X149800000Y-107110000D02*
X149800000Y-114880100D01*
X130510000Y-121630000D02*
X127720000Y-124420000D01*
%TO.N,Net-(U1-DRAIN6)*%
X143340050Y-122330000D02*
X150900000Y-114770050D01*
X150900000Y-114770050D02*
X150900000Y-100210000D01*
X132350000Y-122330000D02*
X143340050Y-122330000D01*
X130260000Y-124420000D02*
X132350000Y-122330000D01*
%TO.N,Net-(U1-DRAIN7)*%
X139000000Y-126400000D02*
X142370000Y-123030000D01*
X143629999Y-123030000D02*
X158900000Y-107759999D01*
X142370000Y-123030000D02*
X143629999Y-123030000D01*
X132900000Y-126400000D02*
X139000000Y-126400000D01*
X132800000Y-126300000D02*
X132900000Y-126400000D01*
X158900000Y-107759999D02*
X158900000Y-100210000D01*
X132800000Y-124420000D02*
X132800000Y-126300000D01*
D35*
%TO.N,Net-(SW0-B)*%
X83439000Y-157353000D02*
X78267000Y-162525000D01*
X114502000Y-159893000D02*
X114460000Y-159935000D01*
X117221000Y-162052000D02*
X117221000Y-161544000D01*
X78267000Y-162525000D02*
X77650000Y-162525000D01*
X115570000Y-159893000D02*
X114502000Y-159893000D01*
X117221000Y-161544000D02*
X115570000Y-159893000D01*
%TO.N,Net-(SW1-B)*%
X85598000Y-157353000D02*
X85598000Y-160577000D01*
X85598000Y-160577000D02*
X83650000Y-162525000D01*
%TO.N,Net-(SW2-B)*%
X87757000Y-157353000D02*
X87757000Y-160632000D01*
X87757000Y-160632000D02*
X89650000Y-162525000D01*
%TO.N,Net-(SW3-B)*%
X95088000Y-162525000D02*
X95650000Y-162525000D01*
X89916000Y-157353000D02*
X95088000Y-162525000D01*
%TO.N,Net-(SW4-B)*%
X130822000Y-157353000D02*
X138811000Y-157353000D01*
X107940000Y-153415000D02*
X106840000Y-152315000D01*
X125650000Y-162525000D02*
X116540000Y-153415000D01*
X116540000Y-153415000D02*
X107940000Y-153415000D01*
X125650000Y-162525000D02*
X130822000Y-157353000D01*
%TO.N,Net-(SW5-B)*%
X130200000Y-163975000D02*
X118001001Y-163975000D01*
X118001001Y-163975000D02*
X115061001Y-161035000D01*
X131650000Y-162525000D02*
X130200000Y-163975000D01*
X113020000Y-161035000D02*
X106840000Y-154855000D01*
X115061001Y-161035000D02*
X113020000Y-161035000D01*
X135822000Y-158353000D02*
X139970000Y-158353000D01*
X131650000Y-162525000D02*
X135822000Y-158353000D01*
X139970000Y-158353000D02*
X140970000Y-157353000D01*
%TO.N,Net-(SW6-B)*%
X113020000Y-163575000D02*
X106840000Y-157395000D01*
X134100000Y-166075000D02*
X117415635Y-166075000D01*
X114915635Y-163575000D02*
X113020000Y-163575000D01*
X137650000Y-162525000D02*
X134100000Y-166075000D01*
X137957000Y-162525000D02*
X143129000Y-157353000D01*
X117415635Y-166075000D02*
X114915635Y-163575000D01*
X137650000Y-162525000D02*
X137957000Y-162525000D01*
%TO.N,Net-(SW7-B)*%
X143650000Y-162525000D02*
X145288000Y-160887000D01*
X139200000Y-162959924D02*
X139250000Y-163009924D01*
X139250000Y-163009924D02*
X139250000Y-165459924D01*
X139200000Y-162525000D02*
X139200000Y-162959924D01*
X143650000Y-162525000D02*
X139200000Y-162525000D01*
X139250000Y-165459924D02*
X138234924Y-166475000D01*
X138234924Y-166475000D02*
X113380000Y-166475000D01*
X145288000Y-160887000D02*
X145288000Y-157353000D01*
X113380000Y-166475000D02*
X106840000Y-159935000D01*
%TO.N,Net-(U_Caps1-~{OE})*%
X93600000Y-127680000D02*
X99880000Y-127680000D01*
X99880000Y-127680000D02*
X102280000Y-130080000D01*
X93560000Y-127720000D02*
X93600000Y-127680000D01*
%TO.N,Net-(U2-Q7)*%
X113230000Y-143100000D02*
X113130000Y-143000000D01*
X114460000Y-165015000D02*
X113815635Y-165015000D01*
X107295635Y-158495000D02*
X106384365Y-158495000D01*
X109485629Y-141529000D02*
X111559000Y-141529000D01*
X109017000Y-142563314D02*
X109017000Y-141997629D01*
X109017000Y-141997629D02*
X109485629Y-141529000D01*
X106384365Y-158495000D02*
X104902000Y-157012635D01*
X104902000Y-146678314D02*
X109017000Y-142563314D01*
X115730000Y-143100000D02*
X113230000Y-143100000D01*
X113815635Y-165015000D02*
X107295635Y-158495000D01*
X104902000Y-157012635D02*
X104902000Y-146678314D01*
X111559000Y-141529000D02*
X113130000Y-143100000D01*
%TO.N,Net-(U1-~{CLR})*%
X122640000Y-119549000D02*
X122640000Y-116800000D01*
X115697000Y-126492000D02*
X122640000Y-119549000D01*
%TO.N,Net-(U_Caps1-QF)*%
X103580000Y-138238478D02*
X103018478Y-138800000D01*
X103580000Y-132720000D02*
X103580000Y-138238478D01*
X103018478Y-138800000D02*
X94454314Y-138800000D01*
X57250000Y-114690000D02*
X57250000Y-98495000D01*
X79390000Y-136830000D02*
X57250000Y-114690000D01*
X92484314Y-136830000D02*
X79390000Y-136830000D01*
X109900000Y-127540000D02*
X107940000Y-129500000D01*
X57250000Y-98495000D02*
X57240000Y-98485000D01*
X106800000Y-129500000D02*
X103580000Y-132720000D01*
X107940000Y-129500000D02*
X106800000Y-129500000D01*
X94454314Y-138800000D02*
X92484314Y-136830000D01*
%TO.N,Net-(U_Caps1-QD)*%
X91823000Y-104317000D02*
X91820000Y-104320000D01*
X91823000Y-102085000D02*
X91823000Y-104317000D01*
X105900000Y-126100000D02*
X105900000Y-118400000D01*
X105900000Y-118400000D02*
X91820000Y-104320000D01*
%TO.N,Net-(T_HEX_0-B)*%
X99443000Y-102085000D02*
X104323000Y-102085000D01*
%TO.N,Net-(T_HEX_1-B)*%
X116923000Y-102085000D02*
X116423000Y-102085000D01*
X115800000Y-102708000D02*
X115800000Y-110400000D01*
X116423000Y-102085000D02*
X115800000Y-102708000D01*
%TO.N,Net-(U_Caps1-QE)*%
X115800000Y-124180000D02*
X109900000Y-130080000D01*
X115800000Y-118000000D02*
X115800000Y-124180000D01*
%TO.N,Net-(U_Caps1-QA)*%
X92930000Y-129080000D02*
X96200000Y-129080000D01*
X60410000Y-76720000D02*
X60410000Y-99920000D01*
X91920000Y-128070000D02*
X92930000Y-129080000D01*
X63160000Y-102670000D02*
X75090000Y-102670000D01*
X75090000Y-102670000D02*
X91920000Y-119500000D01*
X91920000Y-119500000D02*
X91920000Y-128070000D01*
X60410000Y-99920000D02*
X63160000Y-102670000D01*
X96200000Y-129080000D02*
X102280000Y-135160000D01*
%TO.N,Net-(U_Caps1-QB)*%
X108400000Y-139200000D02*
X109900000Y-137700000D01*
X94288628Y-139200000D02*
X108400000Y-139200000D01*
X79224314Y-137230000D02*
X92318628Y-137230000D01*
X68400000Y-60790000D02*
X63435686Y-60790000D01*
X56850000Y-100470000D02*
X56850000Y-114855686D01*
X52630000Y-71595686D02*
X52630000Y-96250000D01*
X52630000Y-96250000D02*
X56850000Y-100470000D01*
X63435686Y-60790000D02*
X52630000Y-71595686D01*
X92318628Y-137230000D02*
X94288628Y-139200000D01*
X56850000Y-114855686D02*
X79224314Y-137230000D01*
%TO.N,Net-(U_Caps1-QC)*%
X56450000Y-115021372D02*
X79058629Y-137630000D01*
X75173000Y-59563000D02*
X64097002Y-59563000D01*
X92152942Y-137630000D02*
X94122943Y-139600000D01*
X109365686Y-138800000D02*
X111000000Y-138800000D01*
X52230000Y-71430001D02*
X52230000Y-96415686D01*
X108565686Y-139600000D02*
X109365686Y-138800000D01*
X56450000Y-100635686D02*
X56450000Y-115021372D01*
X64097002Y-59563000D02*
X52230000Y-71430001D01*
X79058629Y-137630000D02*
X92152942Y-137630000D01*
X76400000Y-60790000D02*
X75173000Y-59563000D01*
X111000000Y-136260000D02*
X109900000Y-135160000D01*
X94122943Y-139600000D02*
X108565686Y-139600000D01*
X52230000Y-96415686D02*
X56450000Y-100635686D01*
X111000000Y-138800000D02*
X111000000Y-136260000D01*
%TO.N,unconnected-(U_Caps1-QG-Pad6)*%
X109900000Y-125000000D02*
X112700000Y-125000000D01*
%TO.N,unconnected-(U_Caps1-QH-Pad7)*%
X109900000Y-122460000D02*
X112700000Y-122460000D01*
%TO.N,Net-(MCU_0-PD0)*%
X170040000Y-73620000D02*
X164000000Y-73620000D01*
X170040000Y-65840000D02*
X170040000Y-73620000D01*
X164000000Y-73620000D02*
X164000000Y-104003503D01*
X166300000Y-68870000D02*
X166300000Y-65840000D01*
X166300000Y-65840000D02*
X170040000Y-65840000D01*
X164000000Y-104003503D02*
X150630000Y-117373503D01*
X150630000Y-117373503D02*
X150630000Y-137760000D01*
X150630000Y-137760000D02*
X150590000Y-137800000D01*
%TO.N,Net-(MCU_0-PD1)*%
X148050000Y-137800000D02*
X148050000Y-119387817D01*
X163404000Y-70866000D02*
X165756000Y-70866000D01*
X162950000Y-104487817D02*
X162950000Y-71320000D01*
X165756000Y-70866000D02*
X166300000Y-71410000D01*
X162950000Y-71320000D02*
X163404000Y-70866000D01*
X148050000Y-119387817D02*
X162950000Y-104487817D01*
D36*
%TO.N,Net-(T_DEC_0-E)*%
X98040000Y-60215000D02*
X98040000Y-75455000D01*
D35*
%TO.N,Net-(RGB1-Pin_1)*%
X166300000Y-92590000D02*
X166300000Y-82410000D01*
%TD*%
M02*
