%TF.GenerationSoftware,KiCad,Pcbnew,7.0.10*%
%TF.CreationDate,2024-02-06T15:01:58+01:00*%
%TF.ProjectId,diagram_chart,64696167-7261-46d5-9f63-686172742e6b,rev?*%
%TF.SameCoordinates,Original*%
%TF.FileFunction,Soldermask,Bot*%
%TF.FilePolarity,Negative*%
%FSLAX46Y46*%
G04 Gerber Fmt 4.6, Leading zero omitted, Abs format (unit mm)*
G04 Created by KiCad (PCBNEW 7.0.10) date 2024-02-06 15:01:58*
%MOMM*%
%LPD*%
G01*
G04 APERTURE LIST*
G04 Aperture macros list*
%AMRoundRect*
0 Rectangle with rounded corners*
0 $1 Rounding radius*
0 $2 $3 $4 $5 $6 $7 $8 $9 X,Y pos of 4 corners*
0 Add a 4 corners polygon primitive as box body*
4,1,4,$2,$3,$4,$5,$6,$7,$8,$9,$2,$3,0*
0 Add four circle primitives for the rounded corners*
1,1,$1+$1,$2,$3*
1,1,$1+$1,$4,$5*
1,1,$1+$1,$6,$7*
1,1,$1+$1,$8,$9*
0 Add four rect primitives between the rounded corners*
20,1,$1+$1,$2,$3,$4,$5,0*
20,1,$1+$1,$4,$5,$6,$7,0*
20,1,$1+$1,$6,$7,$8,$9,0*
20,1,$1+$1,$8,$9,$2,$3,0*%
G04 Aperture macros list end*
%ADD10O,1.600000X1.600000*%
%ADD11C,1.600000*%
%ADD12C,1.400000*%
%ADD13O,1.400000X1.400000*%
%ADD14C,1.500000*%
%ADD15RoundRect,0.675000X-0.675000X-0.675000X0.675000X-0.675000X0.675000X0.675000X-0.675000X0.675000X0*%
%ADD16C,2.700000*%
%ADD17R,2.600000X2.600000*%
%ADD18RoundRect,0.102000X-0.654000X-0.654000X0.654000X-0.654000X0.654000X0.654000X-0.654000X0.654000X0*%
%ADD19C,1.512000*%
%ADD20C,1.100000*%
%ADD21R,2.200000X2.200000*%
%ADD22C,2.200000*%
%ADD23R,1.500000X1.050000*%
%ADD24O,1.500000X1.050000*%
%ADD25R,1.800000X1.800000*%
%ADD26C,1.800000*%
%ADD27R,1.200000X1.200000*%
%ADD28C,1.200000*%
%ADD29R,3.200000X3.200000*%
%ADD30O,3.200000X3.200000*%
%ADD31R,1.600000X1.600000*%
%ADD32C,2.000000*%
%ADD33C,2.600000*%
G04 APERTURE END LIST*
D10*
%TO.C,*%
X112700000Y-122460000D03*
%TD*%
D11*
%TO.C,R5*%
X142900000Y-92590000D03*
D10*
X142900000Y-100210000D03*
%TD*%
D12*
%TO.C,R29*%
X125603000Y-148336000D03*
D13*
X125603000Y-153416000D03*
%TD*%
D14*
%TO.C,Y1*%
X133150000Y-133300000D03*
X128270000Y-133300000D03*
%TD*%
D15*
%TO.C,F1*%
X59090000Y-113500000D03*
X65850000Y-113500000D03*
D16*
X73130000Y-113500000D03*
X79890000Y-113500000D03*
%TD*%
D17*
%TO.C,*%
X64170000Y-107500000D03*
%TD*%
D18*
%TO.C,hex_0*%
X99260000Y-94455000D03*
D19*
X101800000Y-94455000D03*
X104340000Y-94455000D03*
X106880000Y-94455000D03*
X109420000Y-94455000D03*
X109420000Y-79215000D03*
X106880000Y-79215000D03*
X104340000Y-79215000D03*
X101800000Y-79215000D03*
X99260000Y-79215000D03*
%TD*%
D11*
%TO.C,R4*%
X134900000Y-92590000D03*
D10*
X134900000Y-100210000D03*
%TD*%
D11*
%TO.C,R23*%
X57240000Y-90865000D03*
D10*
X57240000Y-98485000D03*
%TD*%
D20*
%TO.C,Serial_Screw1*%
X168840000Y-71410000D03*
X168840000Y-68870000D03*
D21*
X166300000Y-71410000D03*
D22*
X166300000Y-68870000D03*
%TD*%
D10*
%TO.C,*%
X112700000Y-125000000D03*
%TD*%
D22*
%TO.C,*%
X166300000Y-75870000D03*
%TD*%
D10*
%TO.C,*%
X148082000Y-148209000D03*
%TD*%
D23*
%TO.C,T_HEX_1*%
X116923000Y-100815000D03*
D24*
X116923000Y-102085000D03*
X116923000Y-103355000D03*
%TD*%
D11*
%TO.C,CU_Caps1*%
X99300000Y-137700000D03*
X96800000Y-137700000D03*
%TD*%
D20*
%TO.C,PWR_Screw2*%
X169340000Y-115020000D03*
X169340000Y-112480000D03*
D21*
X166800000Y-115020000D03*
D22*
X166800000Y-112480000D03*
%TD*%
D20*
%TO.C,Serial_Screw1*%
X52010000Y-149930000D03*
X52010000Y-152470000D03*
D21*
X54550000Y-149930000D03*
D22*
X54550000Y-152470000D03*
%TD*%
D25*
%TO.C,D4*%
X134940000Y-88105000D03*
D26*
X134940000Y-85565000D03*
%TD*%
D22*
%TO.C,*%
X152100000Y-62380000D03*
%TD*%
D12*
%TO.C,R31*%
X129921000Y-148336000D03*
D13*
X129921000Y-153416000D03*
%TD*%
D22*
%TO.C,*%
X161720000Y-119020000D03*
%TD*%
D23*
%TO.C,T_DEC_0*%
X64040000Y-67835000D03*
D24*
X64040000Y-69105000D03*
X64040000Y-70375000D03*
%TD*%
D20*
%TO.C,NC4*%
X169340000Y-128100000D03*
X169340000Y-125560000D03*
D21*
X166800000Y-128100000D03*
D22*
X166800000Y-125560000D03*
%TD*%
D27*
%TO.C,C_MCU1*%
X133520401Y-153035000D03*
D28*
X135520401Y-153035000D03*
%TD*%
D29*
%TO.C,D8*%
X82800000Y-119080000D03*
D30*
X82800000Y-134320000D03*
%TD*%
D25*
%TO.C,D1*%
X70340000Y-88110000D03*
D26*
X70340000Y-85570000D03*
%TD*%
D11*
%TO.C,R7*%
X158900000Y-92590000D03*
D10*
X158900000Y-100210000D03*
%TD*%
D20*
%TO.C,NC3*%
X169340000Y-121560000D03*
X169340000Y-119020000D03*
D21*
X166800000Y-121560000D03*
D22*
X166800000Y-119020000D03*
%TD*%
D21*
%TO.C,*%
X161720000Y-128100000D03*
%TD*%
D31*
%TO.C,U_Caps1*%
X109900000Y-137700000D03*
D10*
X109900000Y-135160000D03*
X109900000Y-132620000D03*
X109900000Y-130080000D03*
X109900000Y-127540000D03*
X109900000Y-125000000D03*
X109900000Y-122460000D03*
X109900000Y-119920000D03*
X102280000Y-119920000D03*
X102280000Y-122460000D03*
X102280000Y-125000000D03*
X102280000Y-127540000D03*
X102280000Y-130080000D03*
X102280000Y-132620000D03*
X102280000Y-135160000D03*
X102280000Y-137700000D03*
%TD*%
D22*
%TO.C,*%
X54590000Y-145940000D03*
%TD*%
D11*
%TO.C,C1*%
X137850000Y-128700000D03*
X135350000Y-128700000D03*
%TD*%
%TO.C,R2*%
X78300000Y-92590000D03*
D10*
X78300000Y-100210000D03*
%TD*%
D12*
%TO.C,R16*%
X143129000Y-157353000D03*
D13*
X143129000Y-152273000D03*
%TD*%
D12*
%TO.C,R21*%
X115730000Y-140560000D03*
D13*
X115730000Y-143100000D03*
%TD*%
D23*
%TO.C,T_HEX_0*%
X104323000Y-100815000D03*
D24*
X104323000Y-102085000D03*
X104323000Y-103355000D03*
%TD*%
D12*
%TO.C,R10*%
X147447000Y-157353000D03*
D13*
X147447000Y-152273000D03*
%TD*%
D12*
%TO.C,R17*%
X145288000Y-157353000D03*
D13*
X145288000Y-152273000D03*
%TD*%
D12*
%TO.C,R20*%
X113130000Y-143100000D03*
D13*
X113130000Y-140560000D03*
%TD*%
D11*
%TO.C,R6*%
X150900000Y-92590000D03*
D10*
X150900000Y-100210000D03*
%TD*%
D20*
%TO.C,NC1*%
X52010000Y-156470000D03*
X52010000Y-159010000D03*
D21*
X54550000Y-156470000D03*
D22*
X54550000Y-159010000D03*
%TD*%
D11*
%TO.C,R3*%
X86300000Y-92590000D03*
D10*
X86300000Y-100210000D03*
%TD*%
D12*
%TO.C,R15*%
X140970000Y-157353000D03*
D13*
X140970000Y-152273000D03*
%TD*%
D18*
%TO.C,decimal_1*%
X105560000Y-75455000D03*
D19*
X108100000Y-75455000D03*
X110640000Y-75455000D03*
X113180000Y-75455000D03*
X115720000Y-75455000D03*
X115720000Y-60215000D03*
X113180000Y-60215000D03*
X110640000Y-60215000D03*
X108100000Y-60215000D03*
X105560000Y-60215000D03*
%TD*%
D10*
%TO.C,*%
X153162000Y-148209000D03*
%TD*%
%TO.C,*%
X150622000Y-148209000D03*
%TD*%
D12*
%TO.C,R11*%
X85598000Y-157353000D03*
D13*
X85598000Y-152273000D03*
%TD*%
D11*
%TO.C,R27*%
X68400000Y-68410000D03*
D10*
X68400000Y-60790000D03*
%TD*%
D21*
%TO.C,*%
X161720000Y-121560000D03*
%TD*%
D31*
%TO.C,U2*%
X106840000Y-147235000D03*
D10*
X106840000Y-149775000D03*
X106840000Y-152315000D03*
X106840000Y-154855000D03*
X106840000Y-157395000D03*
X106840000Y-159935000D03*
X106840000Y-162475000D03*
X106840000Y-165015000D03*
X114460000Y-165015000D03*
X114460000Y-162475000D03*
X114460000Y-159935000D03*
X114460000Y-157395000D03*
X114460000Y-154855000D03*
X114460000Y-152315000D03*
X114460000Y-149775000D03*
X114460000Y-147235000D03*
%TD*%
D12*
%TO.C,R18*%
X90000000Y-127720000D03*
D13*
X90000000Y-125180000D03*
%TD*%
D10*
%TO.C,*%
X145542000Y-148209000D03*
%TD*%
D11*
%TO.C,*%
X90250000Y-113500000D03*
%TD*%
D18*
%TO.C,decimal_0*%
X92960000Y-75455000D03*
D19*
X95500000Y-75455000D03*
X98040000Y-75455000D03*
X100580000Y-75455000D03*
X103120000Y-75455000D03*
X103120000Y-60215000D03*
X100580000Y-60215000D03*
X98040000Y-60215000D03*
X95500000Y-60215000D03*
X92960000Y-60215000D03*
%TD*%
D12*
%TO.C,R22*%
X115697000Y-131572000D03*
D13*
X115697000Y-126492000D03*
%TD*%
D11*
%TO.C,CU2*%
X135402000Y-148209000D03*
X137902000Y-148209000D03*
%TD*%
%TO.C,R32*%
X166300000Y-92590000D03*
D10*
X166300000Y-100210000D03*
%TD*%
D12*
%TO.C,R12*%
X87757000Y-157353000D03*
D13*
X87757000Y-152273000D03*
%TD*%
D12*
%TO.C,R9*%
X158369000Y-135001000D03*
D13*
X153289000Y-135001000D03*
%TD*%
D21*
%TO.C,*%
X154640000Y-62380000D03*
%TD*%
D12*
%TO.C,R8*%
X83439000Y-157353000D03*
D13*
X83439000Y-152273000D03*
%TD*%
D20*
%TO.C,NC2*%
X154640000Y-54760000D03*
X152100000Y-54760000D03*
D21*
X154640000Y-57300000D03*
D22*
X152100000Y-57300000D03*
%TD*%
D18*
%TO.C,hex_1*%
X111860000Y-94455000D03*
D19*
X114400000Y-94455000D03*
X116940000Y-94455000D03*
X119480000Y-94455000D03*
X122020000Y-94455000D03*
X122020000Y-79215000D03*
X119480000Y-79215000D03*
X116940000Y-79215000D03*
X114400000Y-79215000D03*
X111860000Y-79215000D03*
%TD*%
D10*
%TO.C,*%
X143002000Y-148209000D03*
%TD*%
D18*
%TO.C,decimal_2*%
X118160000Y-75455000D03*
D19*
X120700000Y-75455000D03*
X123240000Y-75455000D03*
X125780000Y-75455000D03*
X128320000Y-75455000D03*
X128320000Y-60215000D03*
X125780000Y-60215000D03*
X123240000Y-60215000D03*
X120700000Y-60215000D03*
X118160000Y-60215000D03*
%TD*%
D11*
%TO.C,R24*%
X91823000Y-102085000D03*
D10*
X99443000Y-102085000D03*
%TD*%
D11*
%TO.C,R28*%
X76400000Y-60790000D03*
D10*
X76400000Y-68410000D03*
%TD*%
D25*
%TO.C,D7*%
X158940000Y-88110000D03*
D26*
X158940000Y-85570000D03*
%TD*%
D32*
%TO.C,SW_N1*%
X150900000Y-160275000D03*
X157400000Y-160275000D03*
X150900000Y-164775000D03*
X157400000Y-164775000D03*
%TD*%
D25*
%TO.C,D2*%
X78340000Y-88110000D03*
D26*
X78340000Y-85570000D03*
%TD*%
D22*
%TO.C,*%
X59630000Y-159010000D03*
%TD*%
D12*
%TO.C,R14*%
X138811000Y-157353000D03*
D13*
X138811000Y-152273000D03*
%TD*%
D11*
%TO.C,R33*%
X60500000Y-139390000D03*
D10*
X68120000Y-139390000D03*
%TD*%
%TO.C,*%
X120100000Y-126960000D03*
%TD*%
%TO.C,*%
X140462000Y-148209000D03*
%TD*%
D12*
%TO.C,R13*%
X89916000Y-157353000D03*
D13*
X89916000Y-152273000D03*
%TD*%
D17*
%TO.C,DC-In1*%
X64800000Y-129700000D03*
D33*
X58800000Y-129700000D03*
X61800000Y-134400000D03*
%TD*%
D11*
%TO.C,*%
X87710000Y-113500000D03*
%TD*%
D31*
%TO.C,U1*%
X137880000Y-116800000D03*
D10*
X135340000Y-116800000D03*
X132800000Y-116800000D03*
X130260000Y-116800000D03*
X127720000Y-116800000D03*
X125180000Y-116800000D03*
X122640000Y-116800000D03*
X120100000Y-116800000D03*
X120100000Y-124420000D03*
X122640000Y-124420000D03*
X125180000Y-124420000D03*
X127720000Y-124420000D03*
X130260000Y-124420000D03*
X132800000Y-124420000D03*
X135340000Y-124420000D03*
X137880000Y-124420000D03*
%TD*%
D21*
%TO.C,*%
X59630000Y-156470000D03*
%TD*%
D11*
%TO.C,CU1*%
X137750000Y-113700000D03*
X140250000Y-113700000D03*
%TD*%
%TO.C,R25*%
X115800000Y-110380000D03*
D10*
X115800000Y-118000000D03*
%TD*%
D11*
%TO.C,R1*%
X70300000Y-92590000D03*
D10*
X70300000Y-100210000D03*
%TD*%
%TO.C,*%
X90540000Y-134320000D03*
%TD*%
D23*
%TO.C,T_DEC_1*%
X72040000Y-67835000D03*
D24*
X72040000Y-69105000D03*
X72040000Y-70375000D03*
%TD*%
D17*
%TO.C,*%
X59090000Y-107500000D03*
%TD*%
D10*
%TO.C,*%
X99500000Y-119800000D03*
%TD*%
D22*
%TO.C,*%
X161720000Y-125560000D03*
%TD*%
D31*
%TO.C,MCU_0*%
X153130000Y-137800000D03*
D10*
X150590000Y-137800000D03*
X148050000Y-137800000D03*
X145510000Y-137800000D03*
X142970000Y-137800000D03*
X140430000Y-137800000D03*
X137890000Y-137800000D03*
X135350000Y-137800000D03*
X132810000Y-137800000D03*
X130270000Y-137800000D03*
X127730000Y-137800000D03*
X125190000Y-137800000D03*
X122650000Y-137800000D03*
X120110000Y-137800000D03*
X120110000Y-145420000D03*
X122650000Y-145420000D03*
X125190000Y-145420000D03*
X127730000Y-145420000D03*
X130270000Y-145420000D03*
X132810000Y-145420000D03*
X135350000Y-145420000D03*
X137890000Y-145420000D03*
X140430000Y-145420000D03*
X142970000Y-145420000D03*
X145510000Y-145420000D03*
X148050000Y-145420000D03*
X150590000Y-145420000D03*
X153130000Y-145420000D03*
%TD*%
D11*
%TO.C,R26*%
X60410000Y-69100000D03*
D10*
X60410000Y-76720000D03*
%TD*%
D25*
%TO.C,D5*%
X142940000Y-88110000D03*
D26*
X142940000Y-85570000D03*
%TD*%
D20*
%TO.C,RGB1*%
X168840000Y-82410000D03*
X168840000Y-79870000D03*
D21*
X166300000Y-82410000D03*
D22*
X166300000Y-79870000D03*
%TD*%
D23*
%TO.C,T_LED1*%
X57240000Y-80365000D03*
D24*
X57240000Y-81635000D03*
X57240000Y-82905000D03*
%TD*%
D25*
%TO.C,D3*%
X86340000Y-88110000D03*
D26*
X86340000Y-85570000D03*
%TD*%
D11*
%TO.C,R0*%
X62300000Y-92590000D03*
D10*
X62300000Y-100210000D03*
%TD*%
D20*
%TO.C,RGB2*%
X52050000Y-139400000D03*
X52050000Y-141940000D03*
D21*
X54590000Y-139400000D03*
D22*
X54590000Y-141940000D03*
%TD*%
D12*
%TO.C,R30*%
X127762000Y-148336000D03*
D13*
X127762000Y-153416000D03*
%TD*%
D12*
%TO.C,R19*%
X93600000Y-127680000D03*
D13*
X93600000Y-130220000D03*
%TD*%
D20*
%TO.C,PWR_Screw1*%
X52050000Y-119400000D03*
X52050000Y-121940000D03*
D21*
X54590000Y-119400000D03*
D22*
X54590000Y-121940000D03*
%TD*%
D11*
%TO.C,C2*%
X128150000Y-128700000D03*
X125650000Y-128700000D03*
%TD*%
D25*
%TO.C,D0*%
X62340000Y-88110000D03*
D26*
X62340000Y-85570000D03*
%TD*%
D10*
%TO.C,*%
X88000000Y-134320000D03*
%TD*%
D25*
%TO.C,D6*%
X150940000Y-88110000D03*
D26*
X150940000Y-85570000D03*
%TD*%
D23*
%TO.C,T_DEC_2*%
X80040000Y-67835000D03*
D24*
X80040000Y-69105000D03*
X80040000Y-70375000D03*
%TD*%
M02*
