M48
; DRILL file {KiCad 7.0.10} date Tue Feb  6 15:02:48 2024
; FORMAT={-:-/ absolute / metric / decimal}
; #@! TF.CreationDate,2024-02-06T15:02:48+01:00
; #@! TF.GenerationSoftware,Kicad,Pcbnew,7.0.10
; #@! TF.FileFunction,NonPlated,1,2,NPTH
FMAT,2
METRIC
; #@! TA.AperFunction,NonPlated,NPTH,ComponentDrill
T1C1.100
%
G90
G05
T1
X52.01Y-149.93
X52.01Y-152.47
X52.01Y-156.47
X52.01Y-159.01
X52.05Y-119.4
X52.05Y-121.94
X52.05Y-139.4
X52.05Y-141.94
X152.1Y-54.76
X154.64Y-54.76
X168.84Y-68.87
X168.84Y-71.41
X168.84Y-79.87
X168.84Y-82.41
X169.34Y-112.48
X169.34Y-115.02
X169.34Y-119.02
X169.34Y-121.56
X169.34Y-125.56
X169.34Y-128.1
M30
