M48
; DRILL file {KiCad 7.0.10} date Wed Apr  3 15:14:15 2024
; FORMAT={-:-/ absolute / metric / decimal}
; #@! TF.CreationDate,2024-04-03T15:14:15+02:00
; #@! TF.GenerationSoftware,Kicad,Pcbnew,7.0.10
; #@! TF.FileFunction,MixedPlating,1,2
FMAT,2
METRIC
; #@! TA.AperFunction,Plated,PTH,ViaDrill
T1C0.400
; #@! TA.AperFunction,Plated,PTH,ComponentDrill
T2C0.600
; #@! TA.AperFunction,Plated,PTH,ComponentDrill
T3C0.700
; #@! TA.AperFunction,Plated,PTH,ComponentDrill
T4C0.750
; #@! TA.AperFunction,Plated,PTH,ComponentDrill
T5C0.800
; #@! TA.AperFunction,Plated,PTH,ComponentDrill
T6C0.900
; #@! TA.AperFunction,Plated,PTH,ComponentDrill
T7C1.100
; #@! TA.AperFunction,Plated,PTH,ComponentDrill
T8C1.600
%
G90
G05
T1
X60.375Y-145.86
X60.447Y-149.54
X61.257Y-156.93
X65.635Y-166.447
X67.197Y-161.81
X67.327Y-158.45
X67.887Y-143.06
X70.317Y-161.83
X71.357Y-135.89
X73.665Y-122.72
X74.447Y-117.85
X75.197Y-158.01
X75.617Y-118.14
X76.207Y-155.72
X77.317Y-135.2
X77.737Y-141.28
X79.772Y-132.58
X80.137Y-100.03
X83.967Y-114.89
X84.087Y-117.97
X84.217Y-110.62
X85.057Y-153.67
X85.097Y-155.65
X85.227Y-158.02
X85.407Y-121.03
X85.757Y-143.04
X86.297Y-134.96
X88.387Y-142.88
X90.617Y-124.79
X90.867Y-142.81
X93.767Y-167.69
X94.077Y-125.45
X94.137Y-160.15
X94.757Y-134.53
X95.667Y-120.36
X96.377Y-114.76
X96.797Y-123.43
X98.157Y-126.396
X99.137Y-115.485
X99.517Y-107.396
X100.027Y-131.372
X100.077Y-159.1
X100.087Y-156.39
X100.317Y-115.81
X101.177Y-150.18
X101.697Y-165.66
X101.777Y-95.564
X102.347Y-151.43
X102.417Y-132.037
X102.797Y-170.0
X103.207Y-110.804
X103.687Y-167.27
X104.147Y-170.02
X104.427Y-91.46
X105.267Y-160.75
X105.287Y-164.84
X105.507Y-156.2
X105.715Y-177.433
X105.857Y-135.92
X106.337Y-149.92
X106.627Y-130.02
X106.657Y-125.15
X107.027Y-119.64
X107.267Y-132.437
X107.757Y-123.3
X108.037Y-150.71
X108.947Y-134.89
X109.077Y-124.39
X109.607Y-137.84
X110.372Y-126.925
X110.797Y-137.93
X110.897Y-178.5
X111.147Y-155.99
X111.247Y-126.0
X112.167Y-119.85
X112.927Y-134.637
X113.207Y-166.73
X113.897Y-161.61
X114.117Y-159.69
X114.14Y-139.63
X114.297Y-135.152
X114.417Y-132.56
X114.632Y-133.537
X115.603Y-130.764
X115.787Y-120.41
X115.937Y-133.85
X116.137Y-142.76
X119.347Y-140.78
X119.367Y-144.22
X119.527Y-143.22
X119.707Y-121.08
X119.957Y-123.815
X122.237Y-145.86
X123.777Y-117.67
X125.907Y-126.76
X128.927Y-139.872
X129.348Y-140.782
X130.342Y-140.675
X130.762Y-139.645
X133.767Y-165.58
X133.924Y-133.72
X134.097Y-126.61
X134.497Y-167.931
X134.527Y-164.22
X134.624Y-135.51
X134.857Y-133.32
X134.989Y-170.729
X135.198Y-126.711
X135.367Y-167.42
X135.387Y-169.811
X135.603Y-133.986
X136.537Y-121.722
X139.747Y-109.24
X140.047Y-138.95
X141.257Y-139.33
X141.847Y-108.48
X145.527Y-114.94
X148.447Y-130.6
T2
X77.577Y-150.17
X79.577Y-150.17
T3
X60.402Y-138.68
X60.402Y-143.76
X62.942Y-148.84
X62.942Y-153.92
X62.942Y-155.92
X62.942Y-161.0
X65.482Y-131.06
X65.482Y-136.14
X68.022Y-148.84
X68.022Y-153.92
X70.562Y-148.84
X70.562Y-153.92
X73.102Y-148.84
X73.102Y-153.92
X74.037Y-180.58
X74.037Y-185.66
X81.637Y-173.0
X81.637Y-178.08
X81.637Y-180.58
X81.637Y-185.66
X82.687Y-153.38
X82.687Y-155.92
X82.687Y-158.02
X82.687Y-170.72
X84.037Y-180.58
X84.037Y-185.66
X84.997Y-164.66
X84.997Y-167.2
X87.767Y-158.02
X87.767Y-170.72
X88.342Y-136.14
X92.837Y-180.58
X92.837Y-185.66
X93.422Y-136.14
X98.512Y-138.18
X100.367Y-173.26
X103.592Y-138.18
X105.447Y-173.26
X116.877Y-180.58
X116.877Y-185.66
X119.277Y-180.58
X119.277Y-185.66
X120.337Y-175.05
X121.727Y-147.49
X124.267Y-147.49
X124.267Y-150.49
X124.267Y-153.03
X125.417Y-175.05
X126.367Y-152.94
X126.367Y-158.02
X128.077Y-180.58
X128.077Y-185.66
X138.077Y-180.58
X138.077Y-185.66
X139.127Y-173.83
X140.227Y-99.51
X144.207Y-173.83
X145.307Y-99.51
X146.617Y-163.1
X146.617Y-168.18
T4
X62.137Y-104.11
X62.137Y-105.38
X62.137Y-106.65
X71.137Y-104.11
X71.137Y-105.38
X71.137Y-106.65
X80.137Y-104.11
X80.137Y-105.38
X80.137Y-106.65
X130.737Y-104.11
X130.737Y-105.38
X130.737Y-106.65
X139.737Y-104.11
X139.737Y-105.38
X139.737Y-106.65
X148.737Y-104.11
X148.737Y-105.38
X148.737Y-106.65
T5
X62.137Y-121.31
X62.137Y-128.93
X62.942Y-138.68
X62.942Y-146.3
X65.482Y-138.68
X65.482Y-146.3
X65.482Y-148.84
X66.997Y-105.38
X66.997Y-113.0
X68.022Y-138.68
X68.022Y-146.3
X70.167Y-134.31
X70.562Y-138.68
X70.562Y-146.3
X71.137Y-121.31
X71.137Y-128.93
X73.102Y-138.68
X73.102Y-146.3
X75.047Y-134.31
X75.642Y-138.68
X75.642Y-146.3
X75.997Y-105.38
X75.997Y-113.0
X77.687Y-160.57
X77.687Y-163.57
X78.182Y-138.68
X78.182Y-146.3
X79.767Y-133.98
X79.767Y-136.08
X80.137Y-121.31
X80.137Y-128.93
X80.722Y-138.68
X80.722Y-146.3
X82.267Y-133.98
X82.267Y-136.08
X82.687Y-160.57
X82.687Y-163.57
X83.262Y-138.68
X83.262Y-146.3
X83.262Y-148.84
X84.497Y-105.38
X84.497Y-113.0
X85.802Y-138.68
X85.802Y-146.3
X85.802Y-148.84
X87.757Y-93.86
X87.757Y-109.1
X88.342Y-138.68
X88.342Y-146.3
X88.342Y-148.84
X89.137Y-121.31
X89.137Y-128.93
X90.267Y-152.45
X90.267Y-155.48
X90.267Y-158.02
X90.267Y-160.56
X90.267Y-163.1
X90.267Y-165.64
X90.267Y-168.18
X90.267Y-170.72
X90.267Y-173.26
X90.297Y-93.86
X90.297Y-109.1
X90.882Y-138.68
X90.882Y-146.3
X90.882Y-148.84
X92.837Y-93.86
X92.837Y-109.1
X93.422Y-138.68
X93.422Y-146.3
X94.057Y-112.86
X94.057Y-128.1
X95.267Y-152.45
X95.377Y-93.86
X95.377Y-109.1
X95.962Y-138.68
X95.962Y-146.3
X96.597Y-112.86
X96.597Y-128.1
X97.887Y-155.48
X97.887Y-158.02
X97.887Y-160.56
X97.887Y-163.1
X97.887Y-165.64
X97.887Y-168.18
X97.887Y-170.72
X97.887Y-173.26
X97.917Y-93.86
X97.917Y-109.1
X98.612Y-140.73
X98.612Y-143.73
X99.137Y-112.86
X99.137Y-128.1
X100.357Y-93.86
X100.357Y-109.1
X101.677Y-112.86
X101.677Y-128.1
X102.897Y-93.86
X102.897Y-109.1
X104.217Y-112.86
X104.217Y-128.1
X105.437Y-93.86
X105.437Y-109.1
X106.232Y-140.73
X106.232Y-143.73
X106.427Y-168.18
X106.427Y-170.72
X106.657Y-112.86
X106.657Y-128.1
X107.977Y-93.86
X107.977Y-109.1
X108.967Y-155.48
X108.967Y-158.02
X108.967Y-160.56
X108.967Y-163.1
X108.967Y-165.64
X108.967Y-168.18
X108.967Y-170.72
X108.967Y-173.26
X109.197Y-112.86
X109.197Y-128.1
X110.517Y-93.86
X110.517Y-109.1
X111.737Y-112.86
X111.737Y-128.1
X112.957Y-93.86
X112.957Y-109.1
X114.277Y-112.86
X114.277Y-128.1
X115.497Y-93.86
X115.497Y-109.1
X116.587Y-155.48
X116.587Y-158.02
X116.587Y-160.56
X116.587Y-163.1
X116.587Y-165.64
X116.587Y-168.18
X116.587Y-170.72
X116.587Y-173.26
X116.817Y-112.86
X116.817Y-128.1
X118.037Y-93.86
X118.037Y-109.1
X120.577Y-93.86
X120.577Y-109.1
X120.617Y-155.48
X120.617Y-160.48
X121.737Y-121.31
X121.737Y-128.93
X123.117Y-93.86
X123.117Y-109.1
X126.367Y-147.49
X126.367Y-150.49
X126.597Y-105.38
X126.597Y-113.0
X128.967Y-155.48
X128.967Y-158.02
X128.967Y-160.56
X128.967Y-163.1
X128.967Y-165.64
X128.967Y-168.18
X128.967Y-170.72
X128.967Y-173.26
X130.737Y-121.31
X130.737Y-128.93
X131.367Y-147.49
X131.367Y-150.49
X135.597Y-105.38
X135.597Y-113.0
X136.587Y-155.48
X136.587Y-158.02
X136.587Y-160.56
X136.587Y-163.1
X136.587Y-165.64
X136.587Y-168.18
X136.587Y-170.72
X136.587Y-173.26
X139.617Y-153.02
X139.617Y-158.02
X139.737Y-121.31
X139.737Y-128.93
X144.597Y-105.38
X144.597Y-113.0
X148.737Y-121.31
X148.737Y-128.93
T6
X62.137Y-116.57
X62.137Y-119.11
X71.137Y-116.57
X71.137Y-119.11
X80.137Y-116.57
X80.137Y-119.11
X89.137Y-116.57
X89.137Y-119.11
X121.737Y-116.57
X121.737Y-119.11
X130.737Y-116.57
X130.737Y-119.11
X139.737Y-116.57
X139.737Y-119.11
X148.737Y-116.57
X148.737Y-119.11
T7
X102.187Y-178.355
X102.187Y-182.855
X108.687Y-178.355
X108.687Y-182.855
X146.297Y-139.78
X146.297Y-152.86
X150.997Y-109.72
X150.997Y-112.26
X151.837Y-127.12
X151.837Y-129.66
X151.837Y-133.24
X151.837Y-135.78
X151.837Y-139.78
X151.837Y-142.32
X151.837Y-146.32
X151.837Y-148.86
X151.837Y-152.86
X151.837Y-155.4
T8
X63.637Y-167.98
X66.637Y-172.68
X69.637Y-167.98
T5
G00X68.337Y-178.08
M15
G01X67.337Y-178.08
M16
G05
G00X68.337Y-180.58
M15
G01X67.337Y-180.58
M16
G05
G00X68.387Y-183.08
M15
G01X67.287Y-183.08
M16
G05
G00X78.337Y-178.08
M15
G01X77.337Y-178.08
M16
G05
G00X78.337Y-180.58
M15
G01X77.337Y-180.58
M16
G05
G00X78.387Y-183.08
M15
G01X77.287Y-183.08
M16
G05
G00X88.337Y-178.08
M15
G01X87.337Y-178.08
M16
G05
G00X88.337Y-180.58
M15
G01X87.337Y-180.58
M16
G05
G00X88.387Y-183.08
M15
G01X87.287Y-183.08
M16
G05
G00X98.337Y-178.08
M15
G01X97.337Y-178.08
M16
G05
G00X98.337Y-180.58
M15
G01X97.337Y-180.58
M16
G05
G00X98.387Y-183.08
M15
G01X97.287Y-183.08
M16
G05
G00X113.577Y-178.08
M15
G01X112.577Y-178.08
M16
G05
G00X113.577Y-180.58
M15
G01X112.577Y-180.58
M16
G05
G00X113.627Y-183.08
M15
G01X112.527Y-183.08
M16
G05
G00X123.277Y-165.68
M15
G01X122.277Y-165.68
M16
G05
G00X123.277Y-168.18
M15
G01X122.277Y-168.18
M16
G05
G00X123.327Y-170.68
M15
G01X122.227Y-170.68
M16
G05
G00X123.577Y-178.08
M15
G01X122.577Y-178.08
M16
G05
G00X123.577Y-180.58
M15
G01X122.577Y-180.58
M16
G05
G00X123.627Y-183.08
M15
G01X122.527Y-183.08
M16
G05
G00X133.577Y-178.08
M15
G01X132.577Y-178.08
M16
G05
G00X133.577Y-180.58
M15
G01X132.577Y-180.58
M16
G05
G00X133.627Y-183.08
M15
G01X132.527Y-183.08
M16
G05
G00X143.277Y-165.68
M15
G01X142.277Y-165.68
M16
G05
G00X143.277Y-168.18
M15
G01X142.277Y-168.18
M16
G05
G00X143.327Y-170.68
M15
G01X142.227Y-170.68
M16
G05
G00X143.297Y-90.37
M15
G01X142.297Y-90.37
M16
G05
G00X143.297Y-92.87
M15
G01X142.297Y-92.87
M16
G05
G00X143.347Y-95.37
M15
G01X142.247Y-95.37
M16
G05
G00X143.577Y-178.08
M15
G01X142.577Y-178.08
M16
G05
G00X143.577Y-180.58
M15
G01X142.577Y-180.58
M16
G05
G00X143.627Y-183.08
M15
G01X142.527Y-183.08
M16
G05
M30
