%TF.GenerationSoftware,KiCad,Pcbnew,7.0.10*%
%TF.CreationDate,2024-03-01T17:05:21+01:00*%
%TF.ProjectId,8_switch_rgb_pcb_revision_1,385f7377-6974-4636-985f-7267625f7063,rev?*%
%TF.SameCoordinates,Original*%
%TF.FileFunction,Copper,L1,Top*%
%TF.FilePolarity,Positive*%
%FSLAX46Y46*%
G04 Gerber Fmt 4.6, Leading zero omitted, Abs format (unit mm)*
G04 Created by KiCad (PCBNEW 7.0.10) date 2024-03-01 17:05:21*
%MOMM*%
%LPD*%
G01*
G04 APERTURE LIST*
%TA.AperFunction,ComponentPad*%
%ADD10R,2.200000X2.200000*%
%TD*%
%TA.AperFunction,ComponentPad*%
%ADD11C,2.200000*%
%TD*%
%TA.AperFunction,ComponentPad*%
%ADD12C,1.400000*%
%TD*%
%TA.AperFunction,ComponentPad*%
%ADD13O,1.400000X1.400000*%
%TD*%
%TA.AperFunction,ComponentPad*%
%ADD14C,1.600000*%
%TD*%
%TA.AperFunction,ComponentPad*%
%ADD15O,2.500000X1.500000*%
%TD*%
%TA.AperFunction,ComponentPad*%
%ADD16R,1.800000X1.800000*%
%TD*%
%TA.AperFunction,ComponentPad*%
%ADD17C,1.800000*%
%TD*%
%TA.AperFunction,ComponentPad*%
%ADD18R,1.500000X1.050000*%
%TD*%
%TA.AperFunction,ComponentPad*%
%ADD19O,1.500000X1.050000*%
%TD*%
%TA.AperFunction,ComponentPad*%
%ADD20O,1.600000X1.600000*%
%TD*%
%TA.AperFunction,ComponentPad*%
%ADD21R,2.600000X2.600000*%
%TD*%
%TA.AperFunction,ComponentPad*%
%ADD22C,2.600000*%
%TD*%
%TA.AperFunction,ComponentPad*%
%ADD23R,1.308000X1.308000*%
%TD*%
%TA.AperFunction,ComponentPad*%
%ADD24C,1.308000*%
%TD*%
%TA.AperFunction,ComponentPad*%
%ADD25R,1.200000X1.200000*%
%TD*%
%TA.AperFunction,ComponentPad*%
%ADD26C,1.200000*%
%TD*%
%TA.AperFunction,ComponentPad*%
%ADD27R,1.600000X1.600000*%
%TD*%
%TA.AperFunction,ComponentPad*%
%ADD28C,2.000000*%
%TD*%
%TA.AperFunction,ComponentPad*%
%ADD29C,1.500000*%
%TD*%
%TA.AperFunction,ViaPad*%
%ADD30C,0.800000*%
%TD*%
%TA.AperFunction,Conductor*%
%ADD31C,1.000000*%
%TD*%
%TA.AperFunction,Conductor*%
%ADD32C,0.500000*%
%TD*%
%TA.AperFunction,Conductor*%
%ADD33C,0.200000*%
%TD*%
%TA.AperFunction,Conductor*%
%ADD34C,0.250000*%
%TD*%
G04 APERTURE END LIST*
D10*
%TO.P,,1,Pin_1*%
%TO.N,+5V*%
X203040000Y-74640000D03*
%TD*%
%TO.P,,1,Pin_1*%
%TO.N,+5V*%
X203040000Y-77180000D03*
%TD*%
D11*
%TO.P,,2,Pin_2*%
%TO.N,GND*%
X203880000Y-92040000D03*
%TD*%
%TO.P,,2,Pin_2*%
%TO.N,GND*%
X203880000Y-94580000D03*
%TD*%
D12*
%TO.P,R18,1*%
%TO.N,Net-(MCU_1-PD2)*%
X140385000Y-101060000D03*
D13*
%TO.P,R18,2*%
%TO.N,Net-(U_Trans1-~{OE})*%
X145465000Y-101060000D03*
%TD*%
D12*
%TO.P,R16,1*%
%TO.N,Net-(MCU_1-PB4)*%
X122605000Y-113760000D03*
D13*
%TO.P,R16,2*%
%TO.N,GND*%
X122605000Y-118840000D03*
%TD*%
D14*
%TO.P,CU_BUTTONS1,1*%
%TO.N,GND*%
X191660000Y-122940000D03*
%TO.P,CU_BUTTONS1,2*%
%TO.N,+5V*%
X191660000Y-117940000D03*
%TD*%
D15*
%TO.P,SW__WR1,1,A*%
%TO.N,GND*%
X194820000Y-130600000D03*
%TO.P,SW__WR1,2,B*%
%TO.N,Net-(MCU_1-PC4)*%
X194820000Y-133100000D03*
%TO.P,SW__WR1,3,C*%
%TO.N,+5V*%
X194820000Y-135600000D03*
%TD*%
D14*
%TO.P,C1,1*%
%TO.N,GND*%
X134310000Y-101000000D03*
%TO.P,C1,2*%
%TO.N,Net-(MCU_1-XTAL1{slash}PB6)*%
X131810000Y-101000000D03*
%TD*%
D10*
%TO.P,PWR_Screw1,1,Pin_1*%
%TO.N,+5V*%
X203880000Y-100700000D03*
D11*
%TO.P,PWR_Screw1,2,Pin_2*%
%TO.N,GND*%
X203880000Y-98160000D03*
%TD*%
D15*
%TO.P,SW0,1,A*%
%TO.N,GND*%
X119880000Y-143000000D03*
%TO.P,SW0,2,B*%
%TO.N,Net-(SW0-B)*%
X119880000Y-145500000D03*
%TO.P,SW0,3,C*%
%TO.N,+5V*%
X119880000Y-148000000D03*
%TD*%
D12*
%TO.P,R23,1*%
%TO.N,GND*%
X176310000Y-117950000D03*
D13*
%TO.P,R23,2*%
%TO.N,Net-(C_TERM_GND0-Pad2)*%
X176310000Y-115410000D03*
%TD*%
D10*
%TO.P,RGB1,1,Pin_1*%
%TO.N,Net-(RGB1-Pin_1)*%
X203880000Y-107240000D03*
D11*
%TO.P,RGB1,2,Pin_2*%
%TO.N,unconnected-(RGB1-Pin_2-Pad2)*%
X203880000Y-104700000D03*
%TD*%
D12*
%TO.P,R38,1*%
%TO.N,Net-(C_TERM_GND1-Pad2)*%
X134730000Y-120840000D03*
D13*
%TO.P,R38,2*%
%TO.N,+5V*%
X134730000Y-118300000D03*
%TD*%
D16*
%TO.P,D5,1,K*%
%TO.N,Net-(D5-K)*%
X182780000Y-84030000D03*
D17*
%TO.P,D5,2,A*%
%TO.N,Net-(D0-A)*%
X182780000Y-81490000D03*
%TD*%
D18*
%TO.P,T_DEC_0,1,E*%
%TO.N,Net-(T_DEC_0-E)*%
X123180000Y-69030000D03*
D19*
%TO.P,T_DEC_0,2,B*%
%TO.N,Net-(T_DEC_0-B)*%
X123180000Y-70300000D03*
%TO.P,T_DEC_0,3,C*%
%TO.N,+5V*%
X123180000Y-71570000D03*
%TD*%
D14*
%TO.P,R2,1*%
%TO.N,Net-(T_DEC_1-B)*%
X136540000Y-70300000D03*
D20*
%TO.P,R2,2*%
%TO.N,Net-(U_Trans1-QB)*%
X136540000Y-77920000D03*
%TD*%
D12*
%TO.P,R44,1*%
%TO.N,Net-(U2-Q7)*%
X191170000Y-138750000D03*
D13*
%TO.P,R44,2*%
%TO.N,Net-(MCU_1-PB4)*%
X196250000Y-138750000D03*
%TD*%
D21*
%TO.P,DC-In1,1*%
%TO.N,+5V*%
X121680000Y-132900000D03*
D22*
%TO.P,DC-In1,2*%
%TO.N,GND*%
X115680000Y-132900000D03*
%TO.P,DC-In1,3*%
X118680000Y-137600000D03*
%TD*%
D14*
%TO.P,C_DRAIN0,1*%
%TO.N,+5V*%
X172660000Y-120400000D03*
%TO.P,C_DRAIN0,2*%
%TO.N,GND*%
X172660000Y-125400000D03*
%TD*%
D12*
%TO.P,R29,1*%
%TO.N,Net-(SW6-B)*%
X180120000Y-145500000D03*
D13*
%TO.P,R29,2*%
%TO.N,GND*%
X180120000Y-150580000D03*
%TD*%
D12*
%TO.P,R32,1*%
%TO.N,Net-(SW1-B)*%
X133680000Y-145500000D03*
D13*
%TO.P,R32,2*%
%TO.N,GND*%
X133680000Y-150580000D03*
%TD*%
D14*
%TO.P,C_TERM_VCC0,1*%
%TO.N,Net-(C_TERM_GND0-Pad2)*%
X178410000Y-112410000D03*
%TO.P,C_TERM_VCC0,2*%
%TO.N,+5V*%
X183410000Y-112410000D03*
%TD*%
D23*
%TO.P,hex_1,1*%
%TO.N,Net-(D4-K)*%
X158700000Y-93020000D03*
D24*
%TO.P,hex_1,2*%
%TO.N,Net-(D3-K)*%
X161240000Y-93020000D03*
%TO.P,hex_1,3,CA*%
%TO.N,Net-(T_HEX_1-E)*%
X163780000Y-93020000D03*
%TO.P,hex_1,4*%
%TO.N,Net-(D2-K)*%
X166320000Y-93020000D03*
%TO.P,hex_1,5*%
%TO.N,Net-(D7-K)*%
X168860000Y-93020000D03*
%TO.P,hex_1,6*%
%TO.N,Net-(D1-K)*%
X168860000Y-77780000D03*
%TO.P,hex_1,7*%
%TO.N,Net-(D0-K)*%
X166320000Y-77780000D03*
%TO.P,hex_1,8,CA*%
%TO.N,Net-(T_HEX_1-E)*%
X163780000Y-77780000D03*
%TO.P,hex_1,9*%
%TO.N,Net-(D5-K)*%
X161240000Y-77780000D03*
%TO.P,hex_1,10*%
%TO.N,Net-(D6-K)*%
X158700000Y-77780000D03*
%TD*%
D14*
%TO.P,R19,1*%
%TO.N,Net-(T_HEX_1-B)*%
X196640000Y-70300000D03*
D20*
%TO.P,R19,2*%
%TO.N,Net-(U_Trans1-QE)*%
X196640000Y-77920000D03*
%TD*%
D12*
%TO.P,R35,1*%
%TO.N,Net-(C_TERM_GND0-Pad2)*%
X176310000Y-112410000D03*
D13*
%TO.P,R35,2*%
%TO.N,+5V*%
X173770000Y-112410000D03*
%TD*%
D16*
%TO.P,D7,1,K*%
%TO.N,Net-(D7-K)*%
X200780000Y-84030000D03*
D17*
%TO.P,D7,2,A*%
%TO.N,Net-(D0-A)*%
X200780000Y-81490000D03*
%TD*%
D16*
%TO.P,D4,1,K*%
%TO.N,Net-(D4-K)*%
X173780000Y-84030000D03*
D17*
%TO.P,D4,2,A*%
%TO.N,Net-(D0-A)*%
X173780000Y-81490000D03*
%TD*%
D14*
%TO.P,R20,1*%
%TO.N,Net-(RGB1-Pin_1)*%
X158275000Y-105650000D03*
D20*
%TO.P,R20,2*%
%TO.N,Net-(MCU_1-PD4)*%
X150655000Y-105650000D03*
%TD*%
D18*
%TO.P,T_HEX_0,1,E*%
%TO.N,Net-(T_HEX_0-E)*%
X191780000Y-69030000D03*
D19*
%TO.P,T_HEX_0,2,B*%
%TO.N,Net-(T_HEX_0-B)*%
X191780000Y-70300000D03*
%TO.P,T_HEX_0,3,C*%
%TO.N,+5V*%
X191780000Y-71570000D03*
%TD*%
D18*
%TO.P,T_LED1,1,E*%
%TO.N,Net-(D0-A)*%
X114180000Y-69030000D03*
D19*
%TO.P,T_LED1,2,B*%
%TO.N,Net-(T_LED1-B)*%
X114180000Y-70300000D03*
%TO.P,T_LED1,3,C*%
%TO.N,+5V*%
X114180000Y-71570000D03*
%TD*%
D15*
%TO.P,SW6,1,A*%
%TO.N,GND*%
X185120000Y-143000000D03*
%TO.P,SW6,2,B*%
%TO.N,Net-(SW6-B)*%
X185120000Y-145500000D03*
%TO.P,SW6,3,C*%
%TO.N,+5V*%
X185120000Y-148000000D03*
%TD*%
D14*
%TO.P,R6,1*%
%TO.N,Net-(D6-K)*%
X191780000Y-86230000D03*
D20*
%TO.P,R6,2*%
%TO.N,Net-(U_Drain1-DRAIN6)*%
X191780000Y-93850000D03*
%TD*%
D14*
%TO.P,R7,1*%
%TO.N,Net-(D1-K)*%
X123180000Y-86230000D03*
D20*
%TO.P,R7,2*%
%TO.N,Net-(U_Drain1-DRAIN1)*%
X123180000Y-93850000D03*
%TD*%
D14*
%TO.P,R4,1*%
%TO.N,Net-(T_LED1-B)*%
X119040000Y-70300000D03*
D20*
%TO.P,R4,2*%
%TO.N,Net-(U_Trans1-QF)*%
X119040000Y-77920000D03*
%TD*%
D15*
%TO.P,SW_Serr1,1,A*%
%TO.N,GND*%
X194840000Y-55290000D03*
%TO.P,SW_Serr1,2,B*%
%TO.N,Net-(MCU_1-PC5)*%
X194840000Y-57790000D03*
%TO.P,SW_Serr1,3,C*%
%TO.N,+5V*%
X194840000Y-60290000D03*
%TD*%
D12*
%TO.P,R45,1*%
%TO.N,Net-(U_Trans1-SER)*%
X157490000Y-138180000D03*
D13*
%TO.P,R45,2*%
%TO.N,Net-(U_Drain1-SER_OUT)*%
X152410000Y-138180000D03*
%TD*%
D12*
%TO.P,R31,1*%
%TO.N,Net-(SW2-B)*%
X136080000Y-145500000D03*
D13*
%TO.P,R31,2*%
%TO.N,GND*%
X136080000Y-150580000D03*
%TD*%
D12*
%TO.P,R36,1*%
%TO.N,Net-(U_Drain1-SER_IN)*%
X139810000Y-122940000D03*
D13*
%TO.P,R36,2*%
%TO.N,Net-(C_TERM_GND1-Pad2)*%
X134730000Y-122940000D03*
%TD*%
D25*
%TO.P,C_MCU1,1*%
%TO.N,+5V*%
X129620000Y-115090000D03*
D26*
%TO.P,C_MCU1,2*%
%TO.N,GND*%
X131620000Y-115090000D03*
%TD*%
D27*
%TO.P,U2,1,~{PL}*%
%TO.N,Net-(U2-~{PL})*%
X181010000Y-120400000D03*
D20*
%TO.P,U2,2,CP*%
%TO.N,Net-(U2-CP)*%
X181010000Y-122940000D03*
%TO.P,U2,3,D4*%
%TO.N,Net-(SW4-B)*%
X181010000Y-125480000D03*
%TO.P,U2,4,D5*%
%TO.N,Net-(SW5-B)*%
X181010000Y-128020000D03*
%TO.P,U2,5,D6*%
%TO.N,Net-(SW6-B)*%
X181010000Y-130560000D03*
%TO.P,U2,6,D7*%
%TO.N,Net-(SW7-B)*%
X181010000Y-133100000D03*
%TO.P,U2,7,~{Q7}*%
%TO.N,unconnected-(U2-~{Q7}-Pad7)*%
X181010000Y-135640000D03*
%TO.P,U2,8,GND*%
%TO.N,GND*%
X181010000Y-138180000D03*
%TO.P,U2,9,Q7*%
%TO.N,Net-(U2-Q7)*%
X188630000Y-138180000D03*
%TO.P,U2,10,DS*%
%TO.N,GND*%
X188630000Y-135640000D03*
%TO.P,U2,11,D0*%
%TO.N,Net-(SW0-B)*%
X188630000Y-133100000D03*
%TO.P,U2,12,D1*%
%TO.N,Net-(SW1-B)*%
X188630000Y-130560000D03*
%TO.P,U2,13,D2*%
%TO.N,Net-(SW2-B)*%
X188630000Y-128020000D03*
%TO.P,U2,14,D3*%
%TO.N,Net-(SW3-B)*%
X188630000Y-125480000D03*
%TO.P,U2,15,~{CE}*%
%TO.N,GND*%
X188630000Y-122940000D03*
%TO.P,U2,16,VCC*%
%TO.N,+5V*%
X188630000Y-120400000D03*
%TD*%
D12*
%TO.P,R25,1*%
%TO.N,Net-(MCU_1-PC4)*%
X198660000Y-133100000D03*
D13*
%TO.P,R25,2*%
%TO.N,GND*%
X198660000Y-128020000D03*
%TD*%
D12*
%TO.P,R39,1*%
%TO.N,Net-(U_Trans1-RCLK)*%
X114985000Y-120840000D03*
D13*
%TO.P,R39,2*%
%TO.N,Net-(U_Drain1-RCLK)*%
X114985000Y-125920000D03*
%TD*%
D23*
%TO.P,decimal_0,1*%
%TO.N,Net-(D4-K)*%
X139800000Y-74020000D03*
D24*
%TO.P,decimal_0,2*%
%TO.N,Net-(D3-K)*%
X142340000Y-74020000D03*
%TO.P,decimal_0,3,CA*%
%TO.N,Net-(T_DEC_0-E)*%
X144880000Y-74020000D03*
%TO.P,decimal_0,4*%
%TO.N,Net-(D2-K)*%
X147420000Y-74020000D03*
%TO.P,decimal_0,5*%
%TO.N,Net-(D7-K)*%
X149960000Y-74020000D03*
%TO.P,decimal_0,6*%
%TO.N,Net-(D1-K)*%
X149960000Y-58780000D03*
%TO.P,decimal_0,7*%
%TO.N,Net-(D0-K)*%
X147420000Y-58780000D03*
%TO.P,decimal_0,8,CA*%
%TO.N,Net-(T_DEC_0-E)*%
X144880000Y-58780000D03*
%TO.P,decimal_0,9*%
%TO.N,Net-(D5-K)*%
X142340000Y-58780000D03*
%TO.P,decimal_0,10*%
%TO.N,Net-(D6-K)*%
X139800000Y-58780000D03*
%TD*%
D28*
%TO.P,SW_N1,1,1*%
%TO.N,Net-(MCU_1-PD3)*%
X154230000Y-143275000D03*
X160730000Y-143275000D03*
%TO.P,SW_N1,2,2*%
%TO.N,+5V*%
X154230000Y-147775000D03*
X160730000Y-147775000D03*
%TD*%
D12*
%TO.P,R26,1*%
%TO.N,Net-(MCU_1-PC5)*%
X192270000Y-64430000D03*
D13*
%TO.P,R26,2*%
%TO.N,GND*%
X197350000Y-64430000D03*
%TD*%
D12*
%TO.P,R24,1*%
%TO.N,Net-(MCU_1-PD6)*%
X172380000Y-139970000D03*
D13*
%TO.P,R24,2*%
%TO.N,GND*%
X177460000Y-139970000D03*
%TD*%
D12*
%TO.P,R17,1*%
%TO.N,+5V*%
X155635000Y-103100000D03*
D13*
%TO.P,R17,2*%
%TO.N,Net-(MCU_1-~{RESET}{slash}PC6)*%
X150555000Y-103100000D03*
%TD*%
D12*
%TO.P,R33,1*%
%TO.N,Net-(SW7-B)*%
X190120000Y-145500000D03*
D13*
%TO.P,R33,2*%
%TO.N,GND*%
X190120000Y-150580000D03*
%TD*%
D15*
%TO.P,SW1,1,A*%
%TO.N,GND*%
X129880000Y-143000000D03*
%TO.P,SW1,2,B*%
%TO.N,Net-(SW1-B)*%
X129880000Y-145500000D03*
%TO.P,SW1,3,C*%
%TO.N,+5V*%
X129880000Y-148000000D03*
%TD*%
%TO.P,SW_Mem1,1,A*%
%TO.N,GND*%
X174820000Y-130600000D03*
%TO.P,SW_Mem1,2,B*%
%TO.N,Net-(MCU_1-PD6)*%
X174820000Y-133100000D03*
%TO.P,SW_Mem1,3,C*%
%TO.N,+5V*%
X174820000Y-135600000D03*
%TD*%
D16*
%TO.P,D3,1,K*%
%TO.N,Net-(D3-K)*%
X141180000Y-84030000D03*
D17*
%TO.P,D3,2,A*%
%TO.N,Net-(D0-A)*%
X141180000Y-81490000D03*
%TD*%
D12*
%TO.P,R43,1*%
%TO.N,Net-(MCU_1-PB0)*%
X112445000Y-103600000D03*
D13*
%TO.P,R43,2*%
%TO.N,Net-(U_Drain1-RCLK)*%
X112445000Y-108680000D03*
%TD*%
D16*
%TO.P,D1,1,K*%
%TO.N,Net-(D1-K)*%
X123180000Y-84030000D03*
D17*
%TO.P,D1,2,A*%
%TO.N,Net-(D0-A)*%
X123180000Y-81490000D03*
%TD*%
D14*
%TO.P,C2,1*%
%TO.N,Net-(MCU_1-XTAL2{slash}PB7)*%
X131810000Y-98900000D03*
%TO.P,C2,2*%
%TO.N,GND*%
X134310000Y-98900000D03*
%TD*%
D27*
%TO.P,U_Trans1,1,QB*%
%TO.N,Net-(U_Trans1-QB)*%
X161010000Y-120400000D03*
D20*
%TO.P,U_Trans1,2,QC*%
%TO.N,Net-(U_Trans1-QC)*%
X161010000Y-122940000D03*
%TO.P,U_Trans1,3,QD*%
%TO.N,Net-(U_Trans1-QD)*%
X161010000Y-125480000D03*
%TO.P,U_Trans1,4,QE*%
%TO.N,Net-(U_Trans1-QE)*%
X161010000Y-128020000D03*
%TO.P,U_Trans1,5,QF*%
%TO.N,Net-(U_Trans1-QF)*%
X161010000Y-130560000D03*
%TO.P,U_Trans1,6,QG*%
%TO.N,unconnected-(U_Trans1-QG-Pad6)*%
X161010000Y-133100000D03*
%TO.P,U_Trans1,7,QH*%
%TO.N,unconnected-(U_Trans1-QH-Pad7)*%
X161010000Y-135640000D03*
%TO.P,U_Trans1,8,GND*%
%TO.N,GND*%
X161010000Y-138180000D03*
%TO.P,U_Trans1,9,QH'*%
%TO.N,unconnected-(U_Trans1-QH'-Pad9)*%
X168630000Y-138180000D03*
%TO.P,U_Trans1,10,~{SRCLR}*%
%TO.N,+5V*%
X168630000Y-135640000D03*
%TO.P,U_Trans1,11,SRCLK*%
%TO.N,Net-(U2-CP)*%
X168630000Y-133100000D03*
%TO.P,U_Trans1,12,RCLK*%
%TO.N,Net-(U_Trans1-RCLK)*%
X168630000Y-130560000D03*
%TO.P,U_Trans1,13,~{OE}*%
%TO.N,Net-(U_Trans1-~{OE})*%
X168630000Y-128020000D03*
%TO.P,U_Trans1,14,SER*%
%TO.N,Net-(U_Trans1-SER)*%
X168630000Y-125480000D03*
%TO.P,U_Trans1,15,QA*%
%TO.N,Net-(U_Trans1-QA)*%
X168630000Y-122940000D03*
%TO.P,U_Trans1,16,VCC*%
%TO.N,+5V*%
X168630000Y-120400000D03*
%TD*%
D16*
%TO.P,D0,1,K*%
%TO.N,Net-(D0-K)*%
X114180000Y-84030000D03*
D17*
%TO.P,D0,2,A*%
%TO.N,Net-(D0-A)*%
X114180000Y-81490000D03*
%TD*%
D13*
%TO.P,R40,2*%
%TO.N,Net-(U2-CP)*%
X125145000Y-118840000D03*
D12*
%TO.P,R40,1*%
%TO.N,Net-(MCU_1-PB5)*%
X125145000Y-113760000D03*
%TD*%
D16*
%TO.P,D6,1,K*%
%TO.N,Net-(D6-K)*%
X191780000Y-84030000D03*
D17*
%TO.P,D6,2,A*%
%TO.N,Net-(D0-A)*%
X191780000Y-81490000D03*
%TD*%
D12*
%TO.P,R37,1*%
%TO.N,GND*%
X137040000Y-132120000D03*
D13*
%TO.P,R37,2*%
%TO.N,Net-(C_TERM_GND1-Pad2)*%
X137040000Y-129580000D03*
%TD*%
D12*
%TO.P,R41,1*%
%TO.N,Net-(MCU_1-PB3)*%
X120065000Y-113760000D03*
D13*
%TO.P,R41,2*%
%TO.N,Net-(U_Drain1-SER_IN)*%
X120065000Y-118840000D03*
%TD*%
D14*
%TO.P,R21,1*%
%TO.N,Net-(RGB2-Pin_1)*%
X158275000Y-108650000D03*
D20*
%TO.P,R21,2*%
%TO.N,Net-(MCU_1-PD5)*%
X150655000Y-108650000D03*
%TD*%
D12*
%TO.P,R46,1*%
%TO.N,Net-(U2-~{PL})*%
X117525000Y-95980000D03*
D13*
%TO.P,R46,2*%
%TO.N,Net-(MCU_1-PD7)*%
X117525000Y-101060000D03*
%TD*%
D27*
%TO.P,MCU_1,1,~{RESET}/PC6*%
%TO.N,Net-(MCU_1-~{RESET}{slash}PC6)*%
X148005000Y-103600000D03*
D20*
%TO.P,MCU_1,2,PD0*%
%TO.N,Net-(MCU_1-PD0)*%
X145465000Y-103600000D03*
%TO.P,MCU_1,3,PD1*%
%TO.N,Net-(MCU_1-PD1)*%
X142925000Y-103600000D03*
%TO.P,MCU_1,4,PD2*%
%TO.N,Net-(MCU_1-PD2)*%
X140385000Y-103600000D03*
%TO.P,MCU_1,5,PD3*%
%TO.N,Net-(MCU_1-PD3)*%
X137845000Y-103600000D03*
%TO.P,MCU_1,6,PD4*%
%TO.N,Net-(MCU_1-PD4)*%
X135305000Y-103600000D03*
%TO.P,MCU_1,7,VCC*%
%TO.N,+5V*%
X132765000Y-103600000D03*
%TO.P,MCU_1,8,GND*%
%TO.N,GND*%
X130225000Y-103600000D03*
%TO.P,MCU_1,9,XTAL1/PB6*%
%TO.N,Net-(MCU_1-XTAL1{slash}PB6)*%
X127685000Y-103600000D03*
%TO.P,MCU_1,10,XTAL2/PB7*%
%TO.N,Net-(MCU_1-XTAL2{slash}PB7)*%
X125145000Y-103600000D03*
%TO.P,MCU_1,11,PD5*%
%TO.N,Net-(MCU_1-PD5)*%
X122605000Y-103600000D03*
%TO.P,MCU_1,12,PD6*%
%TO.N,Net-(MCU_1-PD6)*%
X120065000Y-103600000D03*
%TO.P,MCU_1,13,PD7*%
%TO.N,Net-(MCU_1-PD7)*%
X117525000Y-103600000D03*
%TO.P,MCU_1,14,PB0*%
%TO.N,Net-(MCU_1-PB0)*%
X114985000Y-103600000D03*
%TO.P,MCU_1,15,PB1*%
%TO.N,Net-(MCU_1-PB1)*%
X114985000Y-111220000D03*
%TO.P,MCU_1,16,PB2*%
%TO.N,unconnected-(MCU_1-PB2-Pad16)*%
X117525000Y-111220000D03*
%TO.P,MCU_1,17,PB3*%
%TO.N,Net-(MCU_1-PB3)*%
X120065000Y-111220000D03*
%TO.P,MCU_1,18,PB4*%
%TO.N,Net-(MCU_1-PB4)*%
X122605000Y-111220000D03*
%TO.P,MCU_1,19,PB5*%
%TO.N,Net-(MCU_1-PB5)*%
X125145000Y-111220000D03*
%TO.P,MCU_1,20,AVCC*%
%TO.N,+5V*%
X127685000Y-111220000D03*
%TO.P,MCU_1,21,AREF*%
%TO.N,unconnected-(MCU_1-AREF-Pad21)*%
X130225000Y-111220000D03*
%TO.P,MCU_1,22,GND*%
%TO.N,GND*%
X132765000Y-111220000D03*
%TO.P,MCU_1,23,PC0*%
%TO.N,unconnected-(MCU_1-PC0-Pad23)*%
X135305000Y-111220000D03*
%TO.P,MCU_1,24,PC1*%
%TO.N,unconnected-(MCU_1-PC1-Pad24)*%
X137845000Y-111220000D03*
%TO.P,MCU_1,25,PC2*%
%TO.N,unconnected-(MCU_1-PC2-Pad25)*%
X140385000Y-111220000D03*
%TO.P,MCU_1,26,PC3*%
%TO.N,unconnected-(MCU_1-PC3-Pad26)*%
X142925000Y-111220000D03*
%TO.P,MCU_1,27,PC4*%
%TO.N,Net-(MCU_1-PC4)*%
X145465000Y-111220000D03*
%TO.P,MCU_1,28,PC5*%
%TO.N,Net-(MCU_1-PC5)*%
X148005000Y-111220000D03*
%TD*%
D12*
%TO.P,R27,1*%
%TO.N,Net-(SW4-B)*%
X168920000Y-145500000D03*
D13*
%TO.P,R27,2*%
%TO.N,GND*%
X168920000Y-150580000D03*
%TD*%
D16*
%TO.P,D2,1,K*%
%TO.N,Net-(D2-K)*%
X132180000Y-84030000D03*
D17*
%TO.P,D2,2,A*%
%TO.N,Net-(D0-A)*%
X132180000Y-81490000D03*
%TD*%
D23*
%TO.P,decimal_2,1*%
%TO.N,Net-(D4-K)*%
X165000000Y-74020000D03*
D24*
%TO.P,decimal_2,2*%
%TO.N,Net-(D3-K)*%
X167540000Y-74020000D03*
%TO.P,decimal_2,3,CA*%
%TO.N,Net-(T_DEC_2-E)*%
X170080000Y-74020000D03*
%TO.P,decimal_2,4*%
%TO.N,Net-(D2-K)*%
X172620000Y-74020000D03*
%TO.P,decimal_2,5*%
%TO.N,Net-(D7-K)*%
X175160000Y-74020000D03*
%TO.P,decimal_2,6*%
%TO.N,Net-(D1-K)*%
X175160000Y-58780000D03*
%TO.P,decimal_2,7*%
%TO.N,Net-(D0-K)*%
X172620000Y-58780000D03*
%TO.P,decimal_2,8,CA*%
%TO.N,Net-(T_DEC_2-E)*%
X170080000Y-58780000D03*
%TO.P,decimal_2,9*%
%TO.N,Net-(D5-K)*%
X167540000Y-58780000D03*
%TO.P,decimal_2,10*%
%TO.N,Net-(D6-K)*%
X165000000Y-58780000D03*
%TD*%
D12*
%TO.P,R14,1*%
%TO.N,+5V*%
X134730000Y-135640000D03*
D13*
%TO.P,R14,2*%
%TO.N,Net-(U_Drain1-~{CLR})*%
X139810000Y-135640000D03*
%TD*%
D14*
%TO.P,R12,1*%
%TO.N,Net-(D3-K)*%
X141180000Y-86230000D03*
D20*
%TO.P,R12,2*%
%TO.N,Net-(U_Drain1-DRAIN3)*%
X141180000Y-93850000D03*
%TD*%
D14*
%TO.P,C_TERM_VCC1,1*%
%TO.N,Net-(C_TERM_GND1-Pad2)*%
X134730000Y-128490000D03*
%TO.P,C_TERM_VCC1,2*%
%TO.N,+5V*%
X129730000Y-128490000D03*
%TD*%
D12*
%TO.P,R15,1*%
%TO.N,Net-(MCU_1-PD3)*%
X133680000Y-137920000D03*
D13*
%TO.P,R15,2*%
%TO.N,GND*%
X133680000Y-143000000D03*
%TD*%
D18*
%TO.P,T_DEC_1,1,E*%
%TO.N,Net-(T_DEC_1-E)*%
X132180000Y-69030000D03*
D19*
%TO.P,T_DEC_1,2,B*%
%TO.N,Net-(T_DEC_1-B)*%
X132180000Y-70300000D03*
%TO.P,T_DEC_1,3,C*%
%TO.N,+5V*%
X132180000Y-71570000D03*
%TD*%
D14*
%TO.P,R3,1*%
%TO.N,Net-(T_DEC_2-B)*%
X178640000Y-70300000D03*
D20*
%TO.P,R3,2*%
%TO.N,Net-(U_Trans1-QA)*%
X178640000Y-77920000D03*
%TD*%
D15*
%TO.P,SW4,1,A*%
%TO.N,GND*%
X165120000Y-143000000D03*
%TO.P,SW4,2,B*%
%TO.N,Net-(SW4-B)*%
X165120000Y-145500000D03*
%TO.P,SW4,3,C*%
%TO.N,+5V*%
X165120000Y-148000000D03*
%TD*%
D18*
%TO.P,T_DEC_2,1,E*%
%TO.N,Net-(T_DEC_2-E)*%
X182780000Y-69030000D03*
D19*
%TO.P,T_DEC_2,2,B*%
%TO.N,Net-(T_DEC_2-B)*%
X182780000Y-70300000D03*
%TO.P,T_DEC_2,3,C*%
%TO.N,+5V*%
X182780000Y-71570000D03*
%TD*%
D27*
%TO.P,U_Drain1,1,VCC*%
%TO.N,+5V*%
X142310000Y-120400000D03*
D20*
%TO.P,U_Drain1,2,SER_IN*%
%TO.N,Net-(U_Drain1-SER_IN)*%
X142310000Y-122940000D03*
%TO.P,U_Drain1,3,DRAIN0*%
%TO.N,Net-(U_Drain1-DRAIN0)*%
X142310000Y-125480000D03*
%TO.P,U_Drain1,4,DRAIN1*%
%TO.N,Net-(U_Drain1-DRAIN1)*%
X142310000Y-128020000D03*
%TO.P,U_Drain1,5,DRAIN2*%
%TO.N,Net-(U_Drain1-DRAIN2)*%
X142310000Y-130560000D03*
%TO.P,U_Drain1,6,DRAIN3*%
%TO.N,Net-(U_Drain1-DRAIN3)*%
X142310000Y-133100000D03*
%TO.P,U_Drain1,7,~{CLR}*%
%TO.N,Net-(U_Drain1-~{CLR})*%
X142310000Y-135640000D03*
%TO.P,U_Drain1,8,~{G}*%
%TO.N,GND*%
X142310000Y-138180000D03*
%TO.P,U_Drain1,9,SER_OUT*%
%TO.N,Net-(U_Drain1-SER_OUT)*%
X149930000Y-138180000D03*
%TO.P,U_Drain1,10,RCLK*%
%TO.N,Net-(U_Drain1-RCLK)*%
X149930000Y-135640000D03*
%TO.P,U_Drain1,11,DRAIN4*%
%TO.N,Net-(U_Drain1-DRAIN4)*%
X149930000Y-133100000D03*
%TO.P,U_Drain1,12,DRAIN5*%
%TO.N,Net-(U_Drain1-DRAIN5)*%
X149930000Y-130560000D03*
%TO.P,U_Drain1,13,DRAIN6*%
%TO.N,Net-(U_Drain1-DRAIN6)*%
X149930000Y-128020000D03*
%TO.P,U_Drain1,14,DRAIN7*%
%TO.N,Net-(U_Drain1-DRAIN7)*%
X149930000Y-125480000D03*
%TO.P,U_Drain1,15,SRCK*%
%TO.N,Net-(U2-CP)*%
X149930000Y-122940000D03*
%TO.P,U_Drain1,16,GND*%
%TO.N,GND*%
X149930000Y-120400000D03*
%TD*%
D15*
%TO.P,SW2,1,A*%
%TO.N,GND*%
X139880000Y-143000000D03*
%TO.P,SW2,2,B*%
%TO.N,Net-(SW2-B)*%
X139880000Y-145500000D03*
%TO.P,SW2,3,C*%
%TO.N,+5V*%
X139880000Y-148000000D03*
%TD*%
D18*
%TO.P,T_HEX_1,1,E*%
%TO.N,Net-(T_HEX_1-E)*%
X200780000Y-69030000D03*
D19*
%TO.P,T_HEX_1,2,B*%
%TO.N,Net-(T_HEX_1-B)*%
X200780000Y-70300000D03*
%TO.P,T_HEX_1,3,C*%
%TO.N,+5V*%
X200780000Y-71570000D03*
%TD*%
D12*
%TO.P,R22,1*%
%TO.N,Net-(U2-CP)*%
X178410000Y-122940000D03*
D13*
%TO.P,R22,2*%
%TO.N,Net-(C_TERM_GND0-Pad2)*%
X178410000Y-117860000D03*
%TD*%
D14*
%TO.P,R11,1*%
%TO.N,Net-(D7-K)*%
X200780000Y-86230000D03*
D20*
%TO.P,R11,2*%
%TO.N,Net-(U_Drain1-DRAIN7)*%
X200780000Y-93850000D03*
%TD*%
D10*
%TO.P,RGB2,1,Pin_1*%
%TO.N,Net-(RGB2-Pin_1)*%
X203880000Y-120320000D03*
D11*
%TO.P,RGB2,2,Pin_2*%
%TO.N,unconnected-(RGB2-Pin_2-Pad2)*%
X203880000Y-117780000D03*
%TD*%
D10*
%TO.P,Serial_Screw1,1,Pin_1*%
%TO.N,Net-(MCU_1-PD1)*%
X203880000Y-113780000D03*
D11*
%TO.P,Serial_Screw1,2,Pin_2*%
%TO.N,Net-(MCU_1-PD0)*%
X203880000Y-111240000D03*
%TD*%
D15*
%TO.P,SW7,1,A*%
%TO.N,GND*%
X195120000Y-143000000D03*
%TO.P,SW7,2,B*%
%TO.N,Net-(SW7-B)*%
X195120000Y-145500000D03*
%TO.P,SW7,3,C*%
%TO.N,+5V*%
X195120000Y-148000000D03*
%TD*%
D14*
%TO.P,R1,1*%
%TO.N,Net-(U_Trans1-QC)*%
X128040000Y-77920000D03*
D20*
%TO.P,R1,2*%
%TO.N,Net-(T_DEC_0-B)*%
X128040000Y-70300000D03*
%TD*%
D29*
%TO.P,Y1,1,1*%
%TO.N,Net-(MCU_1-XTAL1{slash}PB6)*%
X127090000Y-99230000D03*
%TO.P,Y1,2,2*%
%TO.N,Net-(MCU_1-XTAL2{slash}PB7)*%
X122210000Y-99230000D03*
%TD*%
D14*
%TO.P,C_TERM_GND0,1*%
%TO.N,GND*%
X183410000Y-115410000D03*
%TO.P,C_TERM_GND0,2*%
%TO.N,Net-(C_TERM_GND0-Pad2)*%
X178410000Y-115410000D03*
%TD*%
%TO.P,R8,1*%
%TO.N,Net-(D5-K)*%
X182780000Y-86230000D03*
D20*
%TO.P,R8,2*%
%TO.N,Net-(U_Drain1-DRAIN5)*%
X182780000Y-93850000D03*
%TD*%
D14*
%TO.P,R13,1*%
%TO.N,Net-(U_Trans1-QD)*%
X187640000Y-77920000D03*
D20*
%TO.P,R13,2*%
%TO.N,Net-(T_HEX_0-B)*%
X187640000Y-70300000D03*
%TD*%
D15*
%TO.P,SW5,1,A*%
%TO.N,GND*%
X175120000Y-143000000D03*
%TO.P,SW5,2,B*%
%TO.N,Net-(SW5-B)*%
X175120000Y-145500000D03*
%TO.P,SW5,3,C*%
%TO.N,+5V*%
X175120000Y-148000000D03*
%TD*%
D14*
%TO.P,R5,1*%
%TO.N,Net-(D2-K)*%
X132180000Y-86230000D03*
D20*
%TO.P,R5,2*%
%TO.N,Net-(U_Drain1-DRAIN2)*%
X132180000Y-93850000D03*
%TD*%
D14*
%TO.P,C_TERM_GND1,1*%
%TO.N,GND*%
X129730000Y-125490000D03*
%TO.P,C_TERM_GND1,2*%
%TO.N,Net-(C_TERM_GND1-Pad2)*%
X134730000Y-125490000D03*
%TD*%
%TO.P,C_TRANS1,1*%
%TO.N,+5V*%
X142310000Y-117370000D03*
%TO.P,C_TRANS1,2*%
%TO.N,GND*%
X147310000Y-117370000D03*
%TD*%
%TO.P,R10,1*%
%TO.N,Net-(D4-K)*%
X173780000Y-86230000D03*
D20*
%TO.P,R10,2*%
%TO.N,Net-(U_Drain1-DRAIN4)*%
X173780000Y-93850000D03*
%TD*%
D12*
%TO.P,R34,1*%
%TO.N,Net-(SW0-B)*%
X126080000Y-145500000D03*
D13*
%TO.P,R34,2*%
%TO.N,GND*%
X126080000Y-150580000D03*
%TD*%
D23*
%TO.P,hex_0,1*%
%TO.N,Net-(D4-K)*%
X146100000Y-93020000D03*
D24*
%TO.P,hex_0,2*%
%TO.N,Net-(D3-K)*%
X148640000Y-93020000D03*
%TO.P,hex_0,3,CA*%
%TO.N,Net-(T_HEX_0-E)*%
X151180000Y-93020000D03*
%TO.P,hex_0,4*%
%TO.N,Net-(D2-K)*%
X153720000Y-93020000D03*
%TO.P,hex_0,5*%
%TO.N,Net-(D7-K)*%
X156260000Y-93020000D03*
%TO.P,hex_0,6*%
%TO.N,Net-(D1-K)*%
X156260000Y-77780000D03*
%TO.P,hex_0,7*%
%TO.N,Net-(D0-K)*%
X153720000Y-77780000D03*
%TO.P,hex_0,8,CA*%
%TO.N,Net-(T_HEX_0-E)*%
X151180000Y-77780000D03*
%TO.P,hex_0,9*%
%TO.N,Net-(D5-K)*%
X148640000Y-77780000D03*
%TO.P,hex_0,10*%
%TO.N,Net-(D6-K)*%
X146100000Y-77780000D03*
%TD*%
D14*
%TO.P,R9,1*%
%TO.N,Net-(D0-K)*%
X114180000Y-86230000D03*
D20*
%TO.P,R9,2*%
%TO.N,Net-(U_Drain1-DRAIN0)*%
X114180000Y-93850000D03*
%TD*%
D15*
%TO.P,SW3,1,A*%
%TO.N,GND*%
X149880000Y-143000000D03*
%TO.P,SW3,2,B*%
%TO.N,Net-(SW3-B)*%
X149880000Y-145500000D03*
%TO.P,SW3,3,C*%
%TO.N,+5V*%
X149880000Y-148000000D03*
%TD*%
D12*
%TO.P,R42,1*%
%TO.N,Net-(MCU_1-PB1)*%
X114985000Y-113760000D03*
D13*
%TO.P,R42,2*%
%TO.N,Net-(U_Trans1-RCLK)*%
X114985000Y-118840000D03*
%TD*%
D12*
%TO.P,R28,1*%
%TO.N,Net-(SW3-B)*%
X144880000Y-145500000D03*
D13*
%TO.P,R28,2*%
%TO.N,GND*%
X144880000Y-150580000D03*
%TD*%
D12*
%TO.P,R30,1*%
%TO.N,Net-(SW5-B)*%
X171320000Y-145500000D03*
D13*
%TO.P,R30,2*%
%TO.N,GND*%
X171320000Y-150580000D03*
%TD*%
D23*
%TO.P,decimal_1,1*%
%TO.N,Net-(D4-K)*%
X152400000Y-74020000D03*
D24*
%TO.P,decimal_1,2*%
%TO.N,Net-(D3-K)*%
X154940000Y-74020000D03*
%TO.P,decimal_1,3,CA*%
%TO.N,Net-(T_DEC_1-E)*%
X157480000Y-74020000D03*
%TO.P,decimal_1,4*%
%TO.N,Net-(D2-K)*%
X160020000Y-74020000D03*
%TO.P,decimal_1,5*%
%TO.N,Net-(D7-K)*%
X162560000Y-74020000D03*
%TO.P,decimal_1,6*%
%TO.N,Net-(D1-K)*%
X162560000Y-58780000D03*
%TO.P,decimal_1,7*%
%TO.N,Net-(D0-K)*%
X160020000Y-58780000D03*
%TO.P,decimal_1,8,CA*%
%TO.N,Net-(T_DEC_1-E)*%
X157480000Y-58780000D03*
%TO.P,decimal_1,9*%
%TO.N,Net-(D5-K)*%
X154940000Y-58780000D03*
%TO.P,decimal_1,10*%
%TO.N,Net-(D6-K)*%
X152400000Y-58780000D03*
%TD*%
D20*
%TO.P,,16,PB2*%
%TO.N,unconnected-(MCU_1-PB2-Pad16)*%
X117525000Y-113760000D03*
%TD*%
D11*
%TO.P,,2,Pin_2*%
%TO.N,unconnected-(RGB1-Pin_2-Pad2)*%
X198340000Y-104700000D03*
%TD*%
D20*
%TO.P,,6,QG*%
%TO.N,unconnected-(U_Trans1-QG-Pad6)*%
X158470000Y-133100000D03*
%TD*%
%TO.P,,25,PC2*%
%TO.N,unconnected-(MCU_1-PC2-Pad25)*%
X140385000Y-113760000D03*
%TD*%
%TO.P,,26,PC3*%
%TO.N,unconnected-(MCU_1-PC3-Pad26)*%
X142925000Y-113760000D03*
%TD*%
D11*
%TO.P,,2,Pin_2*%
%TO.N,unconnected-(RGB2-Pin_2-Pad2)*%
X198340000Y-117780000D03*
%TD*%
D20*
%TO.P,,7,QH*%
%TO.N,unconnected-(U_Trans1-QH-Pad7)*%
X158470000Y-135640000D03*
%TD*%
%TO.P,,23,PC0*%
%TO.N,unconnected-(MCU_1-PC0-Pad23)*%
X135305000Y-113760000D03*
%TD*%
%TO.P,,24,PC1*%
%TO.N,unconnected-(MCU_1-PC1-Pad24)*%
X137845000Y-113760000D03*
%TD*%
D30*
%TO.N,Net-(SW2-B)*%
X186570000Y-129140000D03*
%TO.N,Net-(U_Trans1-~{OE})*%
X165940000Y-126530000D03*
%TO.N,Net-(D7-K)*%
X197570000Y-79860000D03*
X191790000Y-74160000D03*
%TO.N,Net-(U_Trans1-QE)*%
X166183073Y-104550000D03*
%TO.N,Net-(SW1-B)*%
X185810000Y-130500000D03*
%TO.N,Net-(SW4-B)*%
X187410000Y-132340000D03*
%TO.N,Net-(SW5-B)*%
X186539267Y-132850733D03*
%TO.N,Net-(SW6-B)*%
X187429851Y-134731268D03*
%TO.N,Net-(SW7-B)*%
X187031497Y-135648503D03*
%TO.N,+5V*%
X171410000Y-109140000D03*
%TO.N,Net-(D1-K)*%
X153820000Y-60484000D03*
%TO.N,Net-(D2-K)*%
X159800000Y-88220000D03*
%TO.N,Net-(D3-K)*%
X142660000Y-89710000D03*
X155250000Y-75724000D03*
X162415000Y-91845000D03*
%TO.N,Net-(D4-K)*%
X146120000Y-90370000D03*
X158700000Y-90070000D03*
X158670000Y-94940000D03*
%TO.N,Net-(D5-K)*%
X148420000Y-79680000D03*
X175820000Y-82590000D03*
X156470000Y-56380000D03*
%TO.N,Net-(D6-K)*%
X163290000Y-90920000D03*
X172000000Y-88735000D03*
X150200000Y-91316000D03*
%TO.N,Net-(D7-K)*%
X151560000Y-72316000D03*
%TO.N,Net-(T_DEC_1-E)*%
X132180000Y-64950000D03*
%TO.N,Net-(T_HEX_1-E)*%
X161120000Y-89310000D03*
X187241041Y-91631041D03*
%TO.N,Net-(MCU_1-PD0)*%
X167980000Y-98770000D03*
X186900000Y-98240000D03*
%TO.N,Net-(MCU_1-PD1)*%
X166674408Y-98456746D03*
X186666372Y-100430000D03*
%TO.N,Net-(MCU_1-PB4)*%
X117677182Y-131367182D03*
%TO.N,Net-(U_Trans1-QC)*%
X152070000Y-96292437D03*
X126490000Y-82770000D03*
%TO.N,Net-(U_Trans1-QB)*%
X127660000Y-83060000D03*
X154460000Y-96956746D03*
%TO.N,Net-(U_Trans1-QA)*%
X166339985Y-100071691D03*
%TO.N,Net-(U_Drain1-DRAIN6)*%
X154840000Y-134920000D03*
X157757195Y-142352805D03*
X200490000Y-95520000D03*
%TO.N,Net-(U_Drain1-DRAIN1)*%
X112490000Y-114460000D03*
%TO.N,Net-(U_Drain1-DRAIN5)*%
X161649975Y-102760025D03*
X158380000Y-114840000D03*
X153740000Y-130580000D03*
X153220000Y-115100000D03*
%TO.N,Net-(U_Drain1-DRAIN0)*%
X112417550Y-110780000D03*
%TO.N,Net-(U_Drain1-DRAIN4)*%
X160080000Y-115630000D03*
X154390000Y-116350000D03*
X155730000Y-132190000D03*
X162840000Y-102850000D03*
%TO.N,Net-(U_Drain1-DRAIN7)*%
X156190000Y-134940000D03*
X162940000Y-143420000D03*
%TO.N,Net-(U_Trans1-QD)*%
X164970000Y-99556746D03*
%TO.N,Net-(MCU_1-PC5)*%
X187645920Y-98905920D03*
X180970000Y-104792260D03*
%TO.N,Net-(RGB2-Pin_1)*%
X182384975Y-105595025D03*
X192089960Y-103870010D03*
%TO.N,Net-(MCU_1-PC4)*%
X181390659Y-105701523D03*
%TO.N,Net-(MCU_1-PD6)*%
X131814560Y-97500005D03*
X185966372Y-98640000D03*
X166460000Y-97480000D03*
%TO.N,Net-(RGB1-Pin_1)*%
X193300000Y-104250000D03*
X182804975Y-104565025D03*
%TO.N,Net-(D0-K)*%
X152360000Y-80730000D03*
X125707653Y-87640000D03*
%TO.N,Net-(T_HEX_0-E)*%
X167646041Y-95683959D03*
X193890000Y-73400000D03*
X151180000Y-80405000D03*
X186140000Y-91530000D03*
%TO.N,Net-(MCU_1-PD5)*%
X129780000Y-106200000D03*
%TO.N,Net-(U_Trans1-RCLK)*%
X165250000Y-131650000D03*
%TO.N,Net-(U2-~{PL})*%
X159310000Y-97356746D03*
X171570000Y-108140000D03*
X160990000Y-99810000D03*
X174280000Y-110780000D03*
%TD*%
D31*
%TO.N,Net-(D0-A)*%
X184880000Y-55160000D02*
X184880000Y-79390000D01*
X157953502Y-55160000D02*
X184880000Y-55160000D01*
X154494416Y-54580000D02*
X157373502Y-54580000D01*
X157373502Y-54580000D02*
X157953502Y-55160000D01*
X127410000Y-55800000D02*
X153274416Y-55800000D01*
X184880000Y-79390000D02*
X182780000Y-81490000D01*
X114180000Y-69030000D02*
X127410000Y-55800000D01*
X153274416Y-55800000D02*
X154494416Y-54580000D01*
%TO.N,GND*%
X195597716Y-55290000D02*
X194840000Y-55290000D01*
X197720000Y-57412284D02*
X195597716Y-55290000D01*
X197720000Y-59930000D02*
X197720000Y-57412284D01*
X198640000Y-64370000D02*
X198640000Y-60850000D01*
X198640000Y-60850000D02*
X197720000Y-59930000D01*
D32*
%TO.N,Net-(U_Drain1-DRAIN6)*%
X200980000Y-142292032D02*
X196572032Y-146700000D01*
X203260000Y-140000000D02*
X200980000Y-142280000D01*
X203260000Y-126000963D02*
X203260000Y-140000000D01*
X200490000Y-123230962D02*
X203260000Y-126000963D01*
X200490000Y-95520000D02*
X200490000Y-123230962D01*
X200980000Y-142280000D02*
X200980000Y-142292032D01*
%TO.N,Net-(U_Drain1-DRAIN7)*%
X198062082Y-144220000D02*
X195990000Y-144220000D01*
X200280000Y-142002082D02*
X198062082Y-144220000D01*
X202560000Y-126290912D02*
X202560000Y-139710050D01*
X196600000Y-120330912D02*
X202560000Y-126290912D01*
X198400000Y-93850000D02*
X196600000Y-95650000D01*
X200280000Y-141990050D02*
X200280000Y-142002082D01*
X200780000Y-93850000D02*
X198400000Y-93850000D01*
X196600000Y-95650000D02*
X196600000Y-120330912D01*
X202560000Y-139710050D02*
X200280000Y-141990050D01*
X162940000Y-143434390D02*
X162940000Y-143420000D01*
X163725610Y-144220000D02*
X162940000Y-143434390D01*
X197320000Y-144220000D02*
X163725610Y-144220000D01*
%TO.N,Net-(U_Drain1-DRAIN6)*%
X162104390Y-146700000D02*
X196572032Y-146700000D01*
X157757195Y-142352805D02*
X162104390Y-146700000D01*
D33*
%TO.N,Net-(MCU_1-PB4)*%
X122640000Y-113760000D02*
X122605000Y-113760000D01*
X117680000Y-118720000D02*
X122640000Y-113760000D01*
X117677182Y-129142818D02*
X117680000Y-129140000D01*
X117677182Y-131367182D02*
X117677182Y-129142818D01*
X117680000Y-129140000D02*
X117680000Y-118720000D01*
D31*
%TO.N,GND*%
X131620000Y-123170000D02*
X131620000Y-115090000D01*
X117700000Y-132900000D02*
X120400000Y-130200000D01*
X124590000Y-130200000D02*
X131620000Y-123170000D01*
X115680000Y-132900000D02*
X117700000Y-132900000D01*
X120400000Y-130200000D02*
X124590000Y-130200000D01*
X198580000Y-64430000D02*
X197350000Y-64430000D01*
X198640000Y-64370000D02*
X198580000Y-64430000D01*
X198640000Y-76140000D02*
X198640000Y-64370000D01*
X203010000Y-80510000D02*
X198640000Y-76140000D01*
X203010000Y-86828428D02*
X203010000Y-80510000D01*
X201608428Y-88230000D02*
X203010000Y-86828428D01*
D33*
%TO.N,Net-(C_TERM_GND0-Pad2)*%
X178410000Y-115410000D02*
X178410000Y-117860000D01*
X176310000Y-115410000D02*
X178410000Y-115410000D01*
%TO.N,Net-(U_Trans1-QD)*%
X164970000Y-121520000D02*
X161010000Y-125480000D01*
X164970000Y-99556746D02*
X164970000Y-121520000D01*
%TO.N,Net-(U_Trans1-QA)*%
X166283073Y-105626927D02*
X166283073Y-120593073D01*
X166960000Y-104336977D02*
X166960000Y-104950000D01*
X166473023Y-103850000D02*
X166960000Y-104336977D01*
X166420000Y-103850000D02*
X166473023Y-103850000D01*
X165883073Y-103313073D02*
X166420000Y-103850000D01*
X165883073Y-100528603D02*
X165883073Y-103313073D01*
X166283073Y-120593073D02*
X168630000Y-122940000D01*
X166339985Y-100071691D02*
X165883073Y-100528603D01*
X166960000Y-104950000D02*
X166283073Y-105626927D01*
D32*
%TO.N,Net-(U_Drain1-DRAIN2)*%
X140286346Y-128536346D02*
X142310000Y-130560000D01*
X140286346Y-124090000D02*
X140286346Y-128536346D01*
X139333654Y-124090000D02*
X140286346Y-124090000D01*
X138660000Y-122463654D02*
X138660000Y-123416346D01*
X135560000Y-99507233D02*
X139135000Y-103082233D01*
X139135000Y-103082233D02*
X139135000Y-121988654D01*
X135560000Y-97840000D02*
X135560000Y-99507233D01*
X132180000Y-94460000D02*
X135560000Y-97840000D01*
X138660000Y-123416346D02*
X139333654Y-124090000D01*
X132180000Y-93850000D02*
X132180000Y-94460000D01*
X139135000Y-121988654D02*
X138660000Y-122463654D01*
D33*
%TO.N,GND*%
X132990000Y-102320000D02*
X131505000Y-102320000D01*
X134310000Y-101000000D02*
X132990000Y-102320000D01*
X131505000Y-102320000D02*
X130225000Y-103600000D01*
%TO.N,Net-(SW2-B)*%
X186594364Y-129115636D02*
X186570000Y-129140000D01*
X186594364Y-128010000D02*
X186594364Y-129115636D01*
X188620000Y-128010000D02*
X186594364Y-128010000D01*
X188630000Y-128020000D02*
X188620000Y-128010000D01*
D32*
%TO.N,Net-(D3-K)*%
X147495000Y-91875000D02*
X148640000Y-93020000D01*
X142700000Y-89710000D02*
X144865000Y-91875000D01*
X144865000Y-91875000D02*
X147495000Y-91875000D01*
X142660000Y-89710000D02*
X142700000Y-89710000D01*
D34*
%TO.N,Net-(D4-K)*%
X150357827Y-90345000D02*
X158425000Y-90345000D01*
X158425000Y-90345000D02*
X158700000Y-90070000D01*
X150272827Y-90430000D02*
X150357827Y-90345000D01*
X146120000Y-90370000D02*
X146180000Y-90430000D01*
X146180000Y-90430000D02*
X150272827Y-90430000D01*
D32*
%TO.N,Net-(D0-K)*%
X143280000Y-87640000D02*
X125707653Y-87640000D01*
X149315000Y-81605000D02*
X143280000Y-87640000D01*
X151480305Y-81605000D02*
X149315000Y-81605000D01*
X151905000Y-81180305D02*
X151480305Y-81605000D01*
X151909695Y-81180305D02*
X151905000Y-81180305D01*
X152360000Y-80730000D02*
X151909695Y-81180305D01*
X153720000Y-79370000D02*
X153720000Y-77780000D01*
X152360000Y-80730000D02*
X153720000Y-79370000D01*
%TO.N,Net-(D1-K)*%
X146620000Y-88550000D02*
X123180000Y-88550000D01*
X123180000Y-88550000D02*
X123180000Y-86230000D01*
X153030003Y-82139997D02*
X146620000Y-88550000D01*
X153030003Y-81519997D02*
X153030003Y-82139997D01*
X156260000Y-77780000D02*
X156260000Y-78290000D01*
X156260000Y-78290000D02*
X153030003Y-81519997D01*
D33*
%TO.N,Net-(U_Trans1-QF)*%
X159454365Y-130560000D02*
X161010000Y-130560000D01*
X156574365Y-133440000D02*
X159454365Y-130560000D01*
X152570000Y-133440000D02*
X156574365Y-133440000D01*
X151230000Y-126002182D02*
X152570000Y-127342183D01*
X152570000Y-127342183D02*
X152570000Y-133440000D01*
X151230000Y-119451522D02*
X151230000Y-126002182D01*
X144111000Y-112332522D02*
X151230000Y-119451522D01*
X144111000Y-110850365D02*
X144111000Y-112332522D01*
X143380635Y-110120000D02*
X144111000Y-110850365D01*
X143256000Y-110120000D02*
X143380635Y-110120000D01*
X143256000Y-104916000D02*
X143256000Y-110120000D01*
X144025000Y-104147000D02*
X143256000Y-104916000D01*
X144025000Y-102664365D02*
X144025000Y-104147000D01*
X142280000Y-90972000D02*
X142280000Y-100919365D01*
X123220000Y-89840000D02*
X141148000Y-89840000D01*
X142280000Y-100919365D02*
X144025000Y-102664365D01*
X119100000Y-85720000D02*
X123220000Y-89840000D01*
X119100000Y-79740000D02*
X119100000Y-85720000D01*
X141148000Y-89840000D02*
X142280000Y-90972000D01*
X119040000Y-77920000D02*
X119040000Y-79680000D01*
X119040000Y-79680000D02*
X119100000Y-79740000D01*
D32*
%TO.N,Net-(D2-K)*%
X138246000Y-84030000D02*
X132180000Y-84030000D01*
X138246000Y-72802827D02*
X138246000Y-84030000D01*
X138582827Y-72466000D02*
X138246000Y-72802827D01*
X146770000Y-74020000D02*
X145216000Y-72466000D01*
X147420000Y-74020000D02*
X146770000Y-74020000D01*
X145216000Y-72466000D02*
X138582827Y-72466000D01*
%TO.N,Net-(D5-K)*%
X177260000Y-84030000D02*
X182780000Y-84030000D01*
X175820000Y-82590000D02*
X177260000Y-84030000D01*
D33*
%TO.N,Net-(U_Trans1-~{OE})*%
X165210000Y-126530000D02*
X165940000Y-126530000D01*
X159230000Y-129160000D02*
X162580000Y-129160000D01*
X155090000Y-125020000D02*
X159230000Y-129160000D01*
X153750000Y-113110000D02*
X155090000Y-114450000D01*
X155090000Y-114450000D02*
X155090000Y-125020000D01*
X162580000Y-129160000D02*
X165210000Y-126530000D01*
X153750000Y-104880786D02*
X153750000Y-113110000D01*
X149929214Y-101060000D02*
X153750000Y-104880786D01*
X145465000Y-101060000D02*
X149929214Y-101060000D01*
%TO.N,GND*%
X137040000Y-132120000D02*
X139460000Y-134540000D01*
D31*
X145645685Y-135975685D02*
X147930000Y-133691370D01*
X143441370Y-138180000D02*
X145645685Y-135975685D01*
D33*
X139460000Y-134540000D02*
X144210000Y-134540000D01*
X144210000Y-134540000D02*
X145645685Y-135975685D01*
%TO.N,Net-(U_Trans1-RCLK)*%
X165250000Y-131650000D02*
X166340000Y-130560000D01*
X166340000Y-130560000D02*
X168630000Y-130560000D01*
%TO.N,Net-(U_Trans1-SER)*%
X168630000Y-125670000D02*
X168630000Y-125480000D01*
X162110000Y-132190000D02*
X168630000Y-125670000D01*
X161150635Y-137055000D02*
X162110000Y-136095635D01*
X159825000Y-137055000D02*
X161150635Y-137055000D01*
X158700000Y-138180000D02*
X159825000Y-137055000D01*
X157490000Y-138180000D02*
X158700000Y-138180000D01*
X162110000Y-136095635D02*
X162110000Y-132190000D01*
%TO.N,Net-(U_Trans1-~{OE})*%
X165940000Y-126530000D02*
X165920000Y-126530000D01*
%TO.N,Net-(MCU_1-~{RESET}{slash}PC6)*%
X148505000Y-103600000D02*
X148005000Y-103100000D01*
%TO.N,Net-(U_Trans1-QC)*%
X161010000Y-121500000D02*
X161010000Y-122940000D01*
X154170000Y-112240000D02*
X159910000Y-117980000D01*
X153500000Y-98691372D02*
X154170000Y-99361372D01*
X153500000Y-97722437D02*
X153500000Y-98691372D01*
X152070000Y-96292437D02*
X153500000Y-97722437D01*
X154170000Y-99361372D02*
X154170000Y-112240000D01*
X159910000Y-117980000D02*
X159910000Y-121500000D01*
X159910000Y-121500000D02*
X161010000Y-121500000D01*
%TO.N,Net-(U_Trans1-QB)*%
X161010000Y-118440000D02*
X161010000Y-120400000D01*
X158110000Y-115540000D02*
X161010000Y-118440000D01*
X158090050Y-115540000D02*
X158110000Y-115540000D01*
X157680000Y-115129950D02*
X158090050Y-115540000D01*
X154570000Y-99195686D02*
X154570000Y-112000000D01*
X157680000Y-115110000D02*
X157680000Y-115129950D01*
X154460000Y-99085686D02*
X154570000Y-99195686D01*
X154460000Y-96956746D02*
X154460000Y-99085686D01*
X154570000Y-112000000D02*
X157680000Y-115110000D01*
%TO.N,Net-(U2-~{PL})*%
X160990000Y-99036746D02*
X160990000Y-99810000D01*
X159310000Y-97356746D02*
X160990000Y-99036746D01*
%TO.N,Net-(MCU_1-PD2)*%
X140385000Y-103600000D02*
X140385000Y-101060000D01*
%TO.N,Net-(MCU_1-PD6)*%
X120065000Y-99890075D02*
X120065000Y-103600000D01*
X125734314Y-98180000D02*
X121775075Y-98180000D01*
X127514314Y-96400000D02*
X125734314Y-98180000D01*
X131754370Y-97500005D02*
X130654365Y-96400000D01*
X121775075Y-98180000D02*
X120065000Y-99890075D01*
X131814560Y-97500005D02*
X131754370Y-97500005D01*
X130654365Y-96400000D02*
X127514314Y-96400000D01*
D32*
%TO.N,Net-(D7-K)*%
X196812233Y-79860000D02*
X197570000Y-79860000D01*
X191790000Y-74837767D02*
X196812233Y-79860000D01*
X191790000Y-74160000D02*
X191790000Y-74837767D01*
D33*
%TO.N,Net-(U_Trans1-QE)*%
X165883073Y-123146927D02*
X161010000Y-128020000D01*
X165883073Y-104850000D02*
X165883073Y-123146927D01*
X166183073Y-104550000D02*
X165883073Y-104850000D01*
%TO.N,Net-(MCU_1-PD3)*%
X136745000Y-104700000D02*
X137845000Y-103600000D01*
X137454214Y-130580000D02*
X138040000Y-129994214D01*
X138040000Y-115510635D02*
X136745000Y-114215635D01*
X136625786Y-130580000D02*
X137454214Y-130580000D01*
X138040000Y-129994214D02*
X138040000Y-115510635D01*
X133680000Y-133525786D02*
X136625786Y-130580000D01*
X136745000Y-114215635D02*
X136745000Y-104700000D01*
X133680000Y-137920000D02*
X133680000Y-133525786D01*
%TO.N,Net-(SW1-B)*%
X185870000Y-130560000D02*
X185810000Y-130500000D01*
X188630000Y-130560000D02*
X185870000Y-130560000D01*
%TO.N,Net-(SW4-B)*%
X181010000Y-126464365D02*
X181010000Y-125480000D01*
X182510000Y-130928628D02*
X182510000Y-127964365D01*
X182510000Y-127964365D02*
X181010000Y-126464365D01*
X183481372Y-131900000D02*
X182510000Y-130928628D01*
X186970000Y-131900000D02*
X183481372Y-131900000D01*
X187410000Y-132340000D02*
X186970000Y-131900000D01*
%TO.N,Net-(SW5-B)*%
X182110000Y-129120000D02*
X181010000Y-128020000D01*
X182110000Y-131094314D02*
X182110000Y-129120000D01*
X183315686Y-132300000D02*
X182110000Y-131094314D01*
X185564268Y-132300000D02*
X183315686Y-132300000D01*
X186539267Y-132850733D02*
X186115002Y-132850733D01*
X186115002Y-132850733D02*
X185564268Y-132300000D01*
%TO.N,Net-(SW6-B)*%
X183150000Y-132700000D02*
X181010000Y-130560000D01*
X185398583Y-132700000D02*
X183150000Y-132700000D01*
X187429851Y-134731268D02*
X185398583Y-132700000D01*
D31*
%TO.N,GND*%
X190130000Y-134140000D02*
X188630000Y-135640000D01*
X188630000Y-122940000D02*
X190130000Y-124440000D01*
X190130000Y-124440000D02*
X190130000Y-134140000D01*
D33*
%TO.N,Net-(SW7-B)*%
X184482994Y-133100000D02*
X181010000Y-133100000D01*
X187031497Y-135648503D02*
X184482994Y-133100000D01*
D31*
%TO.N,GND*%
X188630000Y-135640000D02*
X188578630Y-135640000D01*
X186090000Y-138180000D02*
X188630000Y-135640000D01*
X181010000Y-138180000D02*
X186090000Y-138180000D01*
D32*
%TO.N,Net-(U_Drain1-DRAIN7)*%
X152020000Y-127570000D02*
X149930000Y-125480000D01*
X155320000Y-134070000D02*
X152020000Y-134070000D01*
X152020000Y-134070000D02*
X152020000Y-127570000D01*
X156190000Y-134940000D02*
X155320000Y-134070000D01*
D31*
%TO.N,GND*%
X196270000Y-88230000D02*
X201608428Y-88230000D01*
X195150000Y-89350000D02*
X196270000Y-88230000D01*
X195150000Y-120931522D02*
X195150000Y-89350000D01*
X197430000Y-123211522D02*
X195150000Y-120931522D01*
X197430000Y-123330000D02*
X197430000Y-123211522D01*
X201110000Y-127010000D02*
X197430000Y-123330000D01*
X119550000Y-150580000D02*
X190120000Y-150580000D01*
X117930000Y-148960000D02*
X119550000Y-150580000D01*
X117930000Y-144899390D02*
X117930000Y-148960000D01*
X118779390Y-144050000D02*
X117930000Y-144899390D01*
X119880000Y-143000000D02*
X118830000Y-144050000D01*
X118830000Y-144050000D02*
X118779390Y-144050000D01*
X119880000Y-138800000D02*
X118680000Y-137600000D01*
X172660000Y-125400000D02*
X172660000Y-126400000D01*
X176300000Y-117960000D02*
X176310000Y-117950000D01*
X179220000Y-139970000D02*
X181010000Y-138180000D01*
X148430000Y-120400000D02*
X149930000Y-120400000D01*
X149880000Y-143000000D02*
X151805000Y-141075000D01*
X175120000Y-143000000D02*
X195120000Y-143000000D01*
X176300000Y-121760000D02*
X176300000Y-117960000D01*
X119880000Y-143000000D02*
X133510000Y-143000000D01*
X177460000Y-139970000D02*
X179220000Y-139970000D01*
X191660000Y-122940000D02*
X188630000Y-122940000D01*
X177460000Y-130990000D02*
X177070000Y-130600000D01*
X149930000Y-119990000D02*
X147310000Y-117370000D01*
X131620000Y-112365000D02*
X132765000Y-111220000D01*
X133510000Y-143000000D02*
X149880000Y-143000000D01*
X165120000Y-143000000D02*
X161010000Y-138890000D01*
X174820000Y-128560000D02*
X174820000Y-130600000D01*
X131620000Y-115090000D02*
X131620000Y-112365000D01*
X151805000Y-141075000D02*
X163195000Y-141075000D01*
X177070000Y-130600000D02*
X174820000Y-130600000D01*
X118680000Y-135900000D02*
X115680000Y-132900000D01*
X194820000Y-130600000D02*
X194820000Y-126100000D01*
X175120000Y-142310000D02*
X177460000Y-139970000D01*
X132765000Y-106140000D02*
X130225000Y-103600000D01*
X187498630Y-122940000D02*
X183410000Y-118851370D01*
X161010000Y-138890000D02*
X161010000Y-138355000D01*
X134310000Y-98900000D02*
X134310000Y-101000000D01*
X132765000Y-111220000D02*
X132765000Y-106140000D01*
X194820000Y-126100000D02*
X191660000Y-122940000D01*
X195640000Y-143000000D02*
X201110000Y-137530000D01*
X195120000Y-143000000D02*
X195640000Y-143000000D01*
X201110000Y-137530000D02*
X201110000Y-127010000D01*
X203880000Y-90501572D02*
X203880000Y-98160000D01*
X119880000Y-143000000D02*
X119880000Y-138800000D01*
X149880000Y-143000000D02*
X147130000Y-143000000D01*
X147130000Y-143000000D02*
X142310000Y-138180000D01*
X172660000Y-126400000D02*
X174820000Y-128560000D01*
X172660000Y-125400000D02*
X176300000Y-121760000D01*
X147930000Y-120900000D02*
X148430000Y-120400000D01*
X175120000Y-143000000D02*
X175120000Y-142310000D01*
X149930000Y-120400000D02*
X149930000Y-119990000D01*
X147930000Y-133691370D02*
X147930000Y-131540000D01*
X165120000Y-143000000D02*
X175120000Y-143000000D01*
X183410000Y-118851370D02*
X183410000Y-115410000D01*
X163195000Y-141075000D02*
X165120000Y-143000000D01*
X199670000Y-127010000D02*
X198660000Y-128020000D01*
X201110000Y-127010000D02*
X199670000Y-127010000D01*
X188630000Y-122940000D02*
X187498630Y-122940000D01*
X147930000Y-131540000D02*
X147930000Y-120900000D01*
D33*
X137040000Y-132120000D02*
X137280000Y-131880000D01*
D31*
X201608428Y-88230000D02*
X203880000Y-90501572D01*
X118680000Y-137600000D02*
X118680000Y-135900000D01*
X142310000Y-138180000D02*
X143441370Y-138180000D01*
X177460000Y-139970000D02*
X177460000Y-130990000D01*
D33*
%TO.N,Net-(MCU_1-XTAL1{slash}PB6)*%
X127685000Y-103600000D02*
X130285000Y-101000000D01*
X127090000Y-99230000D02*
X127090000Y-103005000D01*
X130285000Y-101000000D02*
X131810000Y-101000000D01*
X127090000Y-103005000D02*
X127685000Y-103600000D01*
%TO.N,Net-(MCU_1-XTAL2{slash}PB7)*%
X127680000Y-96800000D02*
X129710000Y-96800000D01*
X122210000Y-99230000D02*
X125145000Y-99230000D01*
X129710000Y-96800000D02*
X131810000Y-98900000D01*
X125250000Y-99230000D02*
X127680000Y-96800000D01*
X122210000Y-99230000D02*
X125250000Y-99230000D01*
X125145000Y-99230000D02*
X125145000Y-103600000D01*
%TO.N,+5V*%
X168670000Y-135600000D02*
X168630000Y-135640000D01*
D31*
X142310000Y-117370000D02*
X142310000Y-120400000D01*
X174810000Y-113450000D02*
X173770000Y-112410000D01*
X174100000Y-112410000D02*
X175600000Y-113910000D01*
X186130000Y-112410000D02*
X191660000Y-117940000D01*
X168630000Y-120400000D02*
X172660000Y-120400000D01*
X174810000Y-118250000D02*
X174810000Y-113450000D01*
D33*
X174820000Y-135600000D02*
X168670000Y-135600000D01*
D31*
X191090000Y-117940000D02*
X188630000Y-120400000D01*
X175600000Y-113910000D02*
X181910000Y-113910000D01*
X183410000Y-112410000D02*
X186130000Y-112410000D01*
X181910000Y-113910000D02*
X183410000Y-112410000D01*
X119880000Y-148000000D02*
X195120000Y-148000000D01*
D33*
X171410000Y-109140000D02*
X171410000Y-110050000D01*
D31*
X170130000Y-134140000D02*
X168630000Y-135640000D01*
X172660000Y-120400000D02*
X174810000Y-118250000D01*
X172660000Y-120400000D02*
X170130000Y-122930000D01*
D33*
X171410000Y-110050000D02*
X173770000Y-112410000D01*
D31*
X191660000Y-117940000D02*
X191090000Y-117940000D01*
X170130000Y-122930000D02*
X170130000Y-134140000D01*
X125320000Y-132900000D02*
X129730000Y-128490000D01*
X121680000Y-132900000D02*
X125320000Y-132900000D01*
D34*
%TO.N,Net-(D1-K)*%
X175160000Y-58780000D02*
X173715000Y-60225000D01*
X166120000Y-80520000D02*
X159000000Y-80520000D01*
X153820000Y-60230000D02*
X153820000Y-60484000D01*
D31*
X123180000Y-84030000D02*
X123180000Y-86230000D01*
D34*
X153825000Y-60225000D02*
X161115000Y-60225000D01*
X168860000Y-77780000D02*
X166120000Y-80520000D01*
X159000000Y-80520000D02*
X156260000Y-77780000D01*
X153825000Y-60225000D02*
X153820000Y-60230000D01*
X161115000Y-60225000D02*
X162560000Y-58780000D01*
X173715000Y-60225000D02*
X153825000Y-60225000D01*
%TO.N,Net-(D2-K)*%
X148399000Y-73041000D02*
X159041000Y-73041000D01*
X166320000Y-91666828D02*
X162873172Y-88220000D01*
X160999000Y-74999000D02*
X160020000Y-74020000D01*
X171641000Y-74999000D02*
X160999000Y-74999000D01*
X147420000Y-74020000D02*
X148399000Y-73041000D01*
X166320000Y-93020000D02*
X166320000Y-91666828D01*
X159041000Y-73041000D02*
X160020000Y-74020000D01*
X166320000Y-93020000D02*
X170120000Y-89220000D01*
X170120000Y-89220000D02*
X170120000Y-76520000D01*
D31*
X132180000Y-84030000D02*
X132180000Y-86230000D01*
D34*
X172620000Y-74020000D02*
X171641000Y-74999000D01*
X170120000Y-76520000D02*
X172620000Y-74020000D01*
X162873172Y-88220000D02*
X159800000Y-88220000D01*
%TO.N,Net-(D3-K)*%
X139271000Y-75449000D02*
X153511000Y-75449000D01*
X153511000Y-75449000D02*
X154940000Y-74020000D01*
X155250000Y-75724000D02*
X153786000Y-75724000D01*
X162415000Y-91845000D02*
X162219000Y-92041000D01*
X141361000Y-73041000D02*
X138821000Y-73041000D01*
X149619000Y-92041000D02*
X148640000Y-93020000D01*
X138821000Y-74999000D02*
X139271000Y-75449000D01*
X138821000Y-73041000D02*
X138821000Y-74999000D01*
D31*
X141180000Y-84030000D02*
X141180000Y-86230000D01*
D34*
X153786000Y-75724000D02*
X153511000Y-75449000D01*
X162219000Y-92041000D02*
X149619000Y-92041000D01*
X142340000Y-74020000D02*
X141361000Y-73041000D01*
%TO.N,Net-(D4-K)*%
X140779000Y-74999000D02*
X151421000Y-74999000D01*
X158670000Y-94940000D02*
X158700000Y-94910000D01*
X151421000Y-74999000D02*
X152400000Y-74020000D01*
X139800000Y-74020000D02*
X140779000Y-74999000D01*
D31*
X173780000Y-84030000D02*
X173780000Y-86230000D01*
D34*
X158700000Y-94910000D02*
X158700000Y-93020000D01*
%TO.N,Net-(D5-K)*%
X153511000Y-57351000D02*
X154940000Y-58780000D01*
X154940000Y-57910000D02*
X154940000Y-58780000D01*
X140900000Y-60220000D02*
X139400000Y-60220000D01*
X156470000Y-56380000D02*
X154940000Y-57910000D01*
X148420000Y-78000000D02*
X148640000Y-77780000D01*
X142340000Y-58780000D02*
X140900000Y-60220000D01*
X138789000Y-57351000D02*
X153511000Y-57351000D01*
D31*
X182780000Y-84030000D02*
X182780000Y-86230000D01*
D34*
X139400000Y-60220000D02*
X137660000Y-58480000D01*
X148420000Y-79680000D02*
X148420000Y-78000000D01*
X137660000Y-58480000D02*
X138789000Y-57351000D01*
D32*
%TO.N,Net-(D6-K)*%
X150596000Y-90920000D02*
X150200000Y-91316000D01*
D34*
X140779000Y-57801000D02*
X151421000Y-57801000D01*
D32*
X184130000Y-82680000D02*
X184370000Y-82440000D01*
D34*
X151421000Y-57801000D02*
X152400000Y-58780000D01*
D31*
X191780000Y-84030000D02*
X191780000Y-86230000D01*
D32*
X190190000Y-82440000D02*
X191780000Y-84030000D01*
X172000000Y-88735000D02*
X182042767Y-88735000D01*
X182042767Y-88735000D02*
X184130000Y-86647767D01*
X184130000Y-86647767D02*
X184130000Y-82680000D01*
X184370000Y-82440000D02*
X190190000Y-82440000D01*
D34*
X139800000Y-58780000D02*
X140779000Y-57801000D01*
D32*
X163290000Y-90920000D02*
X150596000Y-90920000D01*
D34*
%TO.N,Net-(D7-K)*%
X170770000Y-91110000D02*
X170770000Y-78410000D01*
X168860000Y-93020000D02*
X170770000Y-91110000D01*
X173690000Y-72550000D02*
X175160000Y-74020000D01*
X152766000Y-72550000D02*
X161090000Y-72550000D01*
X170770000Y-78410000D02*
X175160000Y-74020000D01*
D31*
X200780000Y-84030000D02*
X200780000Y-86230000D01*
D34*
X151560000Y-72316000D02*
X151794000Y-72550000D01*
X161090000Y-72550000D02*
X162560000Y-74020000D01*
X151794000Y-72550000D02*
X152766000Y-72550000D01*
X152766000Y-72550000D02*
X173690000Y-72550000D01*
D32*
%TO.N,Net-(T_DEC_1-E)*%
X156980000Y-55530000D02*
X157480000Y-56030000D01*
X154887918Y-55530000D02*
X156980000Y-55530000D01*
X153641918Y-56776000D02*
X154887918Y-55530000D01*
X138550828Y-56776000D02*
X153641918Y-56776000D01*
X157480000Y-56030000D02*
X157480000Y-58780000D01*
X132180000Y-64950000D02*
X132180000Y-63146828D01*
X132180000Y-63146828D02*
X138550828Y-56776000D01*
%TO.N,Net-(T_HEX_1-E)*%
X185609950Y-96990000D02*
X167750000Y-96990000D01*
X187241041Y-95358909D02*
X185609950Y-96990000D01*
X161120000Y-89310000D02*
X163150000Y-89310000D01*
X164140000Y-90300000D02*
X164140000Y-92660000D01*
X167750000Y-96990000D02*
X163780000Y-93020000D01*
X164140000Y-92660000D02*
X163780000Y-93020000D01*
X163150000Y-89310000D02*
X164140000Y-90300000D01*
X187241041Y-91631041D02*
X187241041Y-95358909D01*
D33*
%TO.N,Net-(MCU_1-PD0)*%
X186900000Y-98240000D02*
X186600000Y-97940000D01*
X186600000Y-97940000D02*
X168810000Y-97940000D01*
X168810000Y-97940000D02*
X167980000Y-98770000D01*
%TO.N,Net-(MCU_1-PD1)*%
X187269950Y-97540000D02*
X167591154Y-97540000D01*
X187111790Y-100430000D02*
X188345920Y-99195870D01*
X188345920Y-98615970D02*
X187269950Y-97540000D01*
X167591154Y-97540000D02*
X166674408Y-98456746D01*
X188345920Y-99195870D02*
X188345920Y-98615970D01*
X186666372Y-100430000D02*
X187111790Y-100430000D01*
%TO.N,Net-(MCU_1-PD7)*%
X117525000Y-101060000D02*
X117525000Y-103600000D01*
D34*
%TO.N,unconnected-(MCU_1-PC0-Pad23)*%
X135305000Y-111220000D02*
X135305000Y-113760000D01*
%TO.N,unconnected-(MCU_1-PC1-Pad24)*%
X137845000Y-111220000D02*
X137845000Y-113760000D01*
%TO.N,unconnected-(MCU_1-PC2-Pad25)*%
X140385000Y-111220000D02*
X140385000Y-113760000D01*
D33*
%TO.N,unconnected-(MCU_1-PC3-Pad26)*%
X142925000Y-111220000D02*
X142925000Y-113760000D01*
%TO.N,Net-(U_Trans1-QC)*%
X126490000Y-82770000D02*
X126300000Y-82770000D01*
X126490000Y-82580000D02*
X126490000Y-82770000D01*
X126300000Y-82770000D02*
X126380000Y-82690000D01*
X128040000Y-77920000D02*
X128040000Y-81030000D01*
X128040000Y-81030000D02*
X126490000Y-82580000D01*
%TO.N,Net-(T_DEC_1-B)*%
X132180000Y-70300000D02*
X136540000Y-70300000D01*
%TO.N,Net-(T_DEC_2-B)*%
X178640000Y-70300000D02*
X182780000Y-70300000D01*
%TO.N,Net-(U_Trans1-QB)*%
X132800000Y-77920000D02*
X127660000Y-83060000D01*
X136540000Y-77920000D02*
X132800000Y-77920000D01*
%TO.N,Net-(T_LED1-B)*%
X114180000Y-70300000D02*
X119040000Y-70300000D01*
D32*
%TO.N,Net-(U_Drain1-DRAIN6)*%
X151320000Y-129410000D02*
X149930000Y-128020000D01*
X154840000Y-134920000D02*
X151320000Y-134920000D01*
X151320000Y-134920000D02*
X151320000Y-129410000D01*
%TO.N,Net-(U_Drain1-DRAIN1)*%
X117050000Y-92750000D02*
X116900000Y-92600000D01*
X108450000Y-110420000D02*
X112490000Y-114460000D01*
X113662233Y-92600000D02*
X108450000Y-97812233D01*
X123180000Y-93850000D02*
X122080000Y-92750000D01*
X108450000Y-97812233D02*
X108450000Y-110420000D01*
X116900000Y-92600000D02*
X113662233Y-92600000D01*
X122080000Y-92750000D02*
X117050000Y-92750000D01*
%TO.N,Net-(U_Drain1-DRAIN5)*%
X158380000Y-114870000D02*
X158390000Y-114860000D01*
X161649975Y-102760025D02*
X161649975Y-102862057D01*
X158380000Y-114840000D02*
X158380000Y-114870000D01*
X158410000Y-114840000D02*
X158380000Y-114840000D01*
X162140000Y-103352082D02*
X162140000Y-111110000D01*
X161649975Y-102862057D02*
X162140000Y-103352082D01*
X153220000Y-130060000D02*
X153740000Y-130580000D01*
X153220000Y-115100000D02*
X153220000Y-130060000D01*
X162140000Y-111110000D02*
X158410000Y-114840000D01*
%TO.N,Net-(U_Drain1-DRAIN0)*%
X114180000Y-95098654D02*
X114180000Y-93850000D01*
X110770000Y-109132450D02*
X110770000Y-98508654D01*
X112417550Y-110780000D02*
X110770000Y-109132450D01*
X110770000Y-98508654D02*
X114180000Y-95098654D01*
%TO.N,Net-(U_Drain1-DRAIN4)*%
X155730000Y-128250000D02*
X155730000Y-132190000D01*
X160080000Y-115630000D02*
X159950000Y-115630000D01*
X160080000Y-115500000D02*
X160080000Y-115630000D01*
X162840000Y-112740000D02*
X160080000Y-115500000D01*
X154390000Y-126910000D02*
X155730000Y-128250000D01*
X159950000Y-115630000D02*
X160080000Y-115500000D01*
X154390000Y-116350000D02*
X154390000Y-126910000D01*
X162840000Y-102850000D02*
X162840000Y-112740000D01*
%TO.N,Net-(U_Drain1-DRAIN3)*%
X144630000Y-130160000D02*
X144630000Y-127140000D01*
X144630000Y-127140000D02*
X144620000Y-127130000D01*
X141060000Y-121650000D02*
X141060000Y-116852233D01*
X141635000Y-105550000D02*
X141635000Y-94305000D01*
X141635000Y-94305000D02*
X141180000Y-93850000D01*
X144620000Y-122710000D02*
X143560000Y-121650000D01*
X141675000Y-116237233D02*
X141675000Y-105590000D01*
X143560000Y-121650000D02*
X141060000Y-121650000D01*
X141060000Y-116852233D02*
X141675000Y-116237233D01*
X141675000Y-105590000D02*
X141635000Y-105550000D01*
X144620000Y-127130000D02*
X144620000Y-122710000D01*
X144630000Y-130780000D02*
X142310000Y-133100000D01*
X144630000Y-130160000D02*
X144630000Y-130780000D01*
D33*
%TO.N,Net-(U_Drain1-~{CLR})*%
X142310000Y-135640000D02*
X139810000Y-135640000D01*
%TO.N,Net-(MCU_1-PC5)*%
X194840000Y-57790000D02*
X192270000Y-60360000D01*
X187224030Y-98905920D02*
X187645920Y-98905920D01*
X180970000Y-104792260D02*
X180970000Y-102974471D01*
X186683634Y-99446316D02*
X187224030Y-98905920D01*
X180970000Y-102974471D02*
X184498155Y-99446316D01*
X192270000Y-60360000D02*
X192270000Y-64430000D01*
X184498155Y-99446316D02*
X186683634Y-99446316D01*
%TO.N,Net-(RGB2-Pin_1)*%
X192089960Y-103870010D02*
X192600000Y-104380050D01*
X192600000Y-104539950D02*
X192900000Y-104839950D01*
X183504975Y-104275075D02*
X183094925Y-103865025D01*
X183504975Y-105993705D02*
X183504975Y-104275075D01*
X182104975Y-105315025D02*
X182384975Y-105595025D01*
X182104975Y-104275075D02*
X182104975Y-105315025D01*
X183094925Y-103865025D02*
X182515025Y-103865025D01*
X182515025Y-103865025D02*
X182104975Y-104275075D01*
X192900000Y-104839950D02*
X192900000Y-115388730D01*
X192600000Y-104380050D02*
X192600000Y-104539950D01*
X192900000Y-115388730D02*
X183504975Y-105993705D01*
%TO.N,Net-(MCU_1-PC4)*%
X196130000Y-123750000D02*
X196130000Y-129580051D01*
X192760000Y-120380000D02*
X196130000Y-123750000D01*
X182095025Y-106295025D02*
X182674925Y-106295025D01*
X181684975Y-105884975D02*
X182095025Y-106295025D01*
X182674925Y-106295025D02*
X192760000Y-116380100D01*
X198660000Y-132110051D02*
X198660000Y-133100000D01*
X194820000Y-133100000D02*
X198420000Y-133100000D01*
X196130000Y-129580051D02*
X198660000Y-132110051D01*
X181574111Y-105884975D02*
X181684975Y-105884975D01*
X181390659Y-105701523D02*
X181574111Y-105884975D01*
X192760000Y-116380100D02*
X192760000Y-120380000D01*
%TO.N,Net-(MCU_1-PD6)*%
X166697712Y-99470000D02*
X165974408Y-98746696D01*
X185966372Y-98640000D02*
X185846372Y-98520000D01*
X182841422Y-98520000D02*
X182661422Y-98340000D01*
X165974408Y-98746696D02*
X165974408Y-97965592D01*
X185846372Y-98520000D02*
X182841422Y-98520000D01*
X182661422Y-98340000D02*
X169399950Y-98340000D01*
X165974408Y-97965592D02*
X166460000Y-97480000D01*
X169399950Y-98340000D02*
X168269950Y-99470000D01*
X168269950Y-99470000D02*
X166697712Y-99470000D01*
%TO.N,Net-(RGB1-Pin_1)*%
X193300000Y-116354415D02*
X193300000Y-104250000D01*
X182804975Y-105025075D02*
X183084975Y-105305075D01*
X182804975Y-104565025D02*
X182804975Y-105025075D01*
X183084975Y-105305075D02*
X183084975Y-106139390D01*
X183084975Y-106139390D02*
X193300000Y-116354415D01*
%TO.N,Net-(SW1-B)*%
X129880000Y-145500000D02*
X133680000Y-145500000D01*
%TO.N,Net-(SW2-B)*%
X136080000Y-145500000D02*
X139880000Y-145500000D01*
%TO.N,Net-(SW3-B)*%
X149880000Y-145500000D02*
X144880000Y-145500000D01*
%TO.N,Net-(SW4-B)*%
X165120000Y-145500000D02*
X168920000Y-145500000D01*
%TO.N,Net-(SW5-B)*%
X171320000Y-145500000D02*
X175120000Y-145500000D01*
%TO.N,Net-(SW6-B)*%
X185120000Y-145500000D02*
X180120000Y-145500000D01*
%TO.N,Net-(SW7-B)*%
X190120000Y-145500000D02*
X195120000Y-145500000D01*
%TO.N,Net-(U_Drain1-SER_OUT)*%
X152410000Y-138180000D02*
X149930000Y-138180000D01*
%TO.N,unconnected-(U_Trans1-QG-Pad6)*%
X161010000Y-133100000D02*
X158470000Y-133100000D01*
%TO.N,unconnected-(U_Trans1-QH-Pad7)*%
X161010000Y-135640000D02*
X158470000Y-135640000D01*
%TO.N,Net-(SW0-B)*%
X119880000Y-145500000D02*
X126080000Y-145500000D01*
%TO.N,Net-(C_TERM_GND0-Pad2)*%
X178410000Y-112410000D02*
X176310000Y-112410000D01*
%TO.N,Net-(C_TERM_GND1-Pad2)*%
X134730000Y-125490000D02*
X134730000Y-128490000D01*
X134730000Y-120840000D02*
X134730000Y-122940000D01*
X135950000Y-128490000D02*
X137040000Y-129580000D01*
X134730000Y-122940000D02*
X134730000Y-125490000D01*
X134730000Y-128490000D02*
X135950000Y-128490000D01*
D31*
%TO.N,Net-(D0-K)*%
X114180000Y-84030000D02*
X114180000Y-86230000D01*
D34*
X147420000Y-58780000D02*
X148399000Y-59759000D01*
X148399000Y-59759000D02*
X159041000Y-59759000D01*
X159041000Y-59759000D02*
X160020000Y-58780000D01*
X160999000Y-57801000D02*
X160020000Y-58780000D01*
X171641000Y-57801000D02*
X160999000Y-57801000D01*
X172620000Y-58780000D02*
X171641000Y-57801000D01*
D31*
%TO.N,Net-(D0-A)*%
X113492588Y-69030000D02*
X112730000Y-69792588D01*
X112730000Y-80040000D02*
X114180000Y-81490000D01*
X191780000Y-81490000D02*
X200780000Y-81490000D01*
X112730000Y-69792588D02*
X112730000Y-80040000D01*
X182780000Y-81490000D02*
X173780000Y-81490000D01*
X114180000Y-69030000D02*
X113492588Y-69030000D01*
X182780000Y-81490000D02*
X191780000Y-81490000D01*
D32*
%TO.N,Net-(T_DEC_0-E)*%
X123865000Y-69030000D02*
X125635000Y-67260000D01*
X133030000Y-65302082D02*
X133030000Y-63286778D01*
X123180000Y-69030000D02*
X123865000Y-69030000D01*
X125635000Y-67260000D02*
X131072082Y-67260000D01*
X137305778Y-59011000D02*
X137377828Y-59011000D01*
X137377828Y-59011000D02*
X139161828Y-60795000D01*
X133030000Y-63286778D02*
X137305778Y-59011000D01*
X139161828Y-60795000D02*
X142865000Y-60795000D01*
X144880000Y-58780000D02*
X144900000Y-58800000D01*
X142865000Y-60795000D02*
X144880000Y-58780000D01*
X144900000Y-74000000D02*
X144880000Y-74020000D01*
X131072082Y-67260000D02*
X133030000Y-65302082D01*
%TO.N,Net-(T_HEX_0-E)*%
X185530000Y-96080000D02*
X186180000Y-95430000D01*
X151180000Y-80405000D02*
X151180000Y-77780000D01*
X192850000Y-69030000D02*
X191780000Y-69030000D01*
X186180000Y-95430000D02*
X186180000Y-91570000D01*
X193890000Y-70070000D02*
X192850000Y-69030000D01*
X193890000Y-73400000D02*
X193890000Y-70070000D01*
X168042082Y-96080000D02*
X185530000Y-96080000D01*
X167646041Y-95683959D02*
X168042082Y-96080000D01*
X186180000Y-91570000D02*
X186140000Y-91530000D01*
D33*
%TO.N,Net-(T_DEC_0-B)*%
X123180000Y-70300000D02*
X128040000Y-70300000D01*
%TO.N,Net-(T_HEX_0-B)*%
X191780000Y-70300000D02*
X187640000Y-70300000D01*
%TO.N,Net-(MCU_1-PD5)*%
X129780000Y-106200000D02*
X125205000Y-106200000D01*
X125205000Y-106200000D02*
X122605000Y-103600000D01*
%TO.N,Net-(U_Drain1-SER_IN)*%
X142310000Y-122940000D02*
X139810000Y-122940000D01*
%TO.N,Net-(U_Drain1-RCLK)*%
X115000000Y-125935000D02*
X114985000Y-125920000D01*
X115000000Y-125950000D02*
X115000000Y-125935000D01*
%TO.N,Net-(U2-Q7)*%
X190600000Y-138180000D02*
X191170000Y-138750000D01*
X188630000Y-138180000D02*
X190600000Y-138180000D01*
%TO.N,Net-(U2-~{PL})*%
X174280000Y-110780000D02*
X171640000Y-108140000D01*
X171640000Y-108140000D02*
X171570000Y-108140000D01*
%TD*%
M02*
