M48
INCH
T1C0.0157
T2C0.0236
T3C0.0276
T4C0.0295
T5C0.0315
T6C0.0354
T7C0.0433
T8C0.0630
%
G90
G05
T1
X4.4259Y-4.3614
X4.4287Y-4.5063
X4.633Y-5.1719
X4.9491Y-3.4504
X4.9799Y-3.2587
X5.026Y-3.2701
X5.1094Y-4.1811
X5.1895Y-3.8386
X5.2039Y-2.5571
X5.6165Y-3.5319
X5.7528Y-3.5579
X5.8433Y-3.137
X5.9134Y-3.5951
X5.952Y-3.1656
X5.9669Y-2.8471
X5.987Y-3.791
X5.9984Y-3.1783
X6.0323Y-4.5315
X6.0528Y-5.1409
X6.0559Y-2.3813
X6.0783Y-4.5807
X6.0811Y-3.8172
X6.0961Y-5.3118
X6.1122Y-2.9813
X6.1311Y-5.2043
X6.1492Y-5.3126
X6.1602Y-2.2197
X6.2109Y-5.6044
X6.2354Y-4.5213
X6.2469Y-3.7378
X6.248Y-3.5461
X6.272Y-3.8329
X6.2913Y-3.4732
X6.3024Y-4.5524
X6.3382Y-3.9295
X6.3433Y-3.5161
X6.3642Y-4.0457
X6.3943Y-3.6159
X6.411Y-4.0492
X6.415Y-5.6465
X6.4287Y-3.5795
X6.4949Y-3.9196
X6.5059Y-5.1831
X6.5331Y-4.9815
X6.5426Y-4.1161
X6.5488Y-3.9398
X6.5535Y-3.8378
X6.562Y-3.8762
X6.6002Y-3.7671
X6.6134Y-3.8886
X6.7484Y-4.2969
X6.7547Y-4.2575
X6.7717Y-3.4935
X6.8614Y-4.3614
X6.922Y-3.2516
X7.1248Y-4.1257
X7.1414Y-4.1615
X7.1805Y-4.1573
X7.197Y-4.1167
X7.3154Y-5.1378
X7.3215Y-3.8835
X7.3283Y-3.6035
X7.3441Y-5.2303
X7.3453Y-5.0843
X7.3491Y-3.9539
X7.3583Y-3.8677
X7.3634Y-5.3405
X7.3717Y-3.6075
X7.3783Y-5.2102
X7.3791Y-5.3044
X7.3876Y-3.8939
X7.5508Y-2.9197
X7.5626Y-4.0894
X7.6102Y-4.1043
X7.6335Y-2.8898
X7.7783Y-3.1441
X7.8933Y-3.7606
T2
X5.1031Y-4.5311
X5.1819Y-4.5311
T3
X4.427Y-4.0787
X4.427Y-4.2787
X4.527Y-4.4787
X4.527Y-4.6787
X4.527Y-4.7575
X4.527Y-4.9575
X4.627Y-3.7787
X4.627Y-3.9787
X4.727Y-4.4787
X4.727Y-4.6787
X4.827Y-4.4787
X4.827Y-4.6787
X4.927Y-4.4787
X4.927Y-4.6787
X4.9638Y-5.7283
X4.9638Y-5.9283
X5.263Y-5.4299
X5.263Y-5.6299
X5.263Y-5.7283
X5.263Y-5.9283
X5.3043Y-4.6575
X5.3043Y-4.7575
X5.3043Y-4.8402
X5.3043Y-5.3402
X5.3575Y-5.7283
X5.3575Y-5.9283
X5.3953Y-5.1016
X5.3953Y-5.2016
X5.5043Y-4.8402
X5.5043Y-5.3402
X5.527Y-3.9787
X5.7039Y-5.7283
X5.7039Y-5.9283
X5.727Y-3.9787
X5.9274Y-4.0591
X6.0004Y-5.4402
X6.1274Y-4.0591
X6.2004Y-5.4402
X6.6504Y-5.7283
X6.6504Y-5.9283
X6.7449Y-5.7283
X6.7449Y-5.9283
X6.7866Y-5.5106
X6.8413Y-4.4256
X6.9413Y-4.4256
X6.9413Y-4.5437
X6.9413Y-4.6437
X6.9866Y-5.5106
X7.024Y-4.6402
X7.024Y-4.8402
X7.0913Y-5.7283
X7.0913Y-5.9283
X7.485Y-5.7283
X7.485Y-5.9283
X7.5264Y-5.4626
X7.5697Y-2.5366
X7.7264Y-5.4626
X7.7697Y-2.5366
X7.8213Y-5.0402
X7.8213Y-5.2402
T4
X4.4953Y-2.7177
X4.4953Y-2.7677
X4.4953Y-2.8177
X4.8496Y-2.7177
X4.8496Y-2.7677
X4.8496Y-2.8177
X5.2039Y-2.7177
X5.2039Y-2.7677
X5.2039Y-2.8177
X7.1961Y-2.7177
X7.1961Y-2.7677
X7.1961Y-2.8177
X7.5504Y-2.7177
X7.5504Y-2.7677
X7.5504Y-2.8177
X7.9047Y-2.7177
X7.9047Y-2.7677
X7.9047Y-2.8177
T5
X4.4953Y-3.3949
X4.4953Y-3.6949
X4.527Y-4.0787
X4.527Y-4.3787
X4.627Y-4.0787
X4.627Y-4.3787
X4.627Y-4.4787
X4.6866Y-2.7677
X4.6866Y-3.0677
X4.727Y-4.0787
X4.727Y-4.3787
X4.8114Y-3.9067
X4.827Y-4.0787
X4.827Y-4.3787
X4.8496Y-3.3949
X4.8496Y-3.6949
X4.927Y-4.0787
X4.927Y-4.3787
X5.0035Y-3.9067
X5.027Y-4.0787
X5.027Y-4.3787
X5.0409Y-2.7677
X5.0409Y-3.0677
X5.1075Y-4.9406
X5.1075Y-5.0587
X5.127Y-4.0787
X5.127Y-4.3787
X5.1894Y-3.8937
X5.1894Y-3.9764
X5.2039Y-3.3949
X5.2039Y-3.6949
X5.227Y-4.0787
X5.227Y-4.3787
X5.2878Y-3.8937
X5.2878Y-3.9764
X5.3043Y-4.9406
X5.3043Y-5.0587
X5.327Y-4.0787
X5.327Y-4.3787
X5.327Y-4.4787
X5.3756Y-2.7677
X5.3756Y-3.0677
X5.427Y-4.0787
X5.427Y-4.3787
X5.427Y-4.4787
X5.5039Y-2.3142
X5.5039Y-2.9142
X5.527Y-4.0787
X5.527Y-4.3787
X5.527Y-4.4787
X5.5583Y-3.3949
X5.5583Y-3.6949
X5.6028Y-4.6209
X5.6028Y-4.7402
X5.6028Y-4.8402
X5.6028Y-4.9402
X5.6028Y-5.0402
X5.6028Y-5.1402
X5.6028Y-5.2402
X5.6028Y-5.3402
X5.6028Y-5.4402
X5.6039Y-2.3142
X5.6039Y-2.9142
X5.627Y-4.0787
X5.627Y-4.3787
X5.627Y-4.4787
X5.7039Y-2.3142
X5.7039Y-2.9142
X5.727Y-4.0787
X5.727Y-4.3787
X5.752Y-3.0622
X5.752Y-3.6622
X5.7996Y-4.6209
X5.8039Y-2.3142
X5.8039Y-2.9142
X5.827Y-4.0787
X5.827Y-4.3787
X5.852Y-3.0622
X5.852Y-3.6622
X5.9028Y-4.7402
X5.9028Y-4.8402
X5.9028Y-4.9402
X5.9028Y-5.0402
X5.9028Y-5.1402
X5.9028Y-5.2402
X5.9028Y-5.3402
X5.9028Y-5.4402
X5.9039Y-2.3142
X5.9039Y-2.9142
X5.9313Y-4.1594
X5.9313Y-4.2776
X5.952Y-3.0622
X5.952Y-3.6622
X6.0Y-2.3142
X6.0Y-2.9142
X6.052Y-3.0622
X6.052Y-3.6622
X6.1Y-2.3142
X6.1Y-2.9142
X6.152Y-3.0622
X6.152Y-3.6622
X6.2Y-2.3142
X6.2Y-2.9142
X6.2313Y-4.1594
X6.2313Y-4.2776
X6.239Y-5.2402
X6.239Y-5.3402
X6.248Y-3.0622
X6.248Y-3.6622
X6.3Y-2.3142
X6.3Y-2.9142
X6.339Y-4.7402
X6.339Y-4.8402
X6.339Y-4.9402
X6.339Y-5.0402
X6.339Y-5.1402
X6.339Y-5.2402
X6.339Y-5.3402
X6.339Y-5.4402
X6.348Y-3.0622
X6.348Y-3.6622
X6.4Y-2.3142
X6.4Y-2.9142
X6.448Y-3.0622
X6.448Y-3.6622
X6.4961Y-2.3142
X6.4961Y-2.9142
X6.548Y-3.0622
X6.548Y-3.6622
X6.5961Y-2.3142
X6.5961Y-2.9142
X6.639Y-4.7402
X6.639Y-4.8402
X6.639Y-4.9402
X6.639Y-5.0402
X6.639Y-5.1402
X6.639Y-5.2402
X6.639Y-5.3402
X6.639Y-5.4402
X6.648Y-3.0622
X6.648Y-3.6622
X6.6961Y-2.3142
X6.6961Y-2.9142
X6.7961Y-2.3142
X6.7961Y-2.9142
X6.7976Y-4.7402
X6.7976Y-4.937
X6.8417Y-3.3949
X6.8417Y-3.6949
X6.8961Y-2.3142
X6.8961Y-2.9142
X7.024Y-4.4256
X7.024Y-4.5437
X7.0331Y-2.7677
X7.0331Y-3.0677
X7.1264Y-4.7402
X7.1264Y-4.8402
X7.1264Y-4.9402
X7.1264Y-5.0402
X7.1264Y-5.1402
X7.1264Y-5.2402
X7.1264Y-5.3402
X7.1264Y-5.4402
X7.1961Y-3.3949
X7.1961Y-3.6949
X7.2209Y-4.4256
X7.2209Y-4.5437
X7.3874Y-2.7677
X7.3874Y-3.0677
X7.4264Y-4.7402
X7.4264Y-4.8402
X7.4264Y-4.9402
X7.4264Y-5.0402
X7.4264Y-5.1402
X7.4264Y-5.2402
X7.4264Y-5.3402
X7.4264Y-5.4402
X7.5457Y-4.6433
X7.5457Y-4.8402
X7.5504Y-3.3949
X7.5504Y-3.6949
X7.7417Y-2.7677
X7.7417Y-3.0677
X7.9047Y-3.3949
X7.9047Y-3.6949
T6
X4.4953Y-3.2083
X4.4953Y-3.3083
X4.8496Y-3.2083
X4.8496Y-3.3083
X5.2039Y-3.2083
X5.2039Y-3.3083
X5.5583Y-3.2083
X5.5583Y-3.3083
X6.8417Y-3.2083
X6.8417Y-3.3083
X7.1961Y-3.2083
X7.1961Y-3.3083
X7.5504Y-3.2083
X7.5504Y-3.3083
X7.9047Y-3.2083
X7.9047Y-3.3083
T7
X6.072Y-5.6407
X6.072Y-5.8179
X6.328Y-5.6407
X6.328Y-5.8179
X7.8087Y-4.122
X7.8087Y-4.637
X7.9937Y-2.9386
X7.9937Y-3.0386
X8.0268Y-3.6236
X8.0268Y-3.7236
X8.0268Y-3.8646
X8.0268Y-3.9646
X8.0268Y-4.122
X8.0268Y-4.222
X8.0268Y-4.3795
X8.0268Y-4.4795
X8.0268Y-4.637
X8.0268Y-4.737
T8
X4.5543Y-5.2323
X4.6724Y-5.4173
X4.7906Y-5.2323
T5
G00X4.7394Y-5.6299
M15
G01X4.7Y-5.6299
M16
G05
G00X4.7394Y-5.7283
M15
G01X4.7Y-5.7283
M16
G05
G00X4.7413Y-5.8268
M15
G01X4.698Y-5.8268
M16
G05
G00X5.1331Y-5.6299
M15
G01X5.0937Y-5.6299
M16
G05
G00X5.1331Y-5.7283
M15
G01X5.0937Y-5.7283
M16
G05
G00X5.135Y-5.8268
M15
G01X5.0917Y-5.8268
M16
G05
G00X5.5268Y-5.6299
M15
G01X5.4874Y-5.6299
M16
G05
G00X5.5268Y-5.7283
M15
G01X5.4874Y-5.7283
M16
G05
G00X5.5287Y-5.8268
M15
G01X5.4854Y-5.8268
M16
G05
G00X5.9205Y-5.6299
M15
G01X5.8811Y-5.6299
M16
G05
G00X5.9205Y-5.7283
M15
G01X5.8811Y-5.7283
M16
G05
G00X5.9224Y-5.8268
M15
G01X5.8791Y-5.8268
M16
G05
G00X6.5205Y-5.6299
M15
G01X6.4811Y-5.6299
M16
G05
G00X6.5205Y-5.7283
M15
G01X6.4811Y-5.7283
M16
G05
G00X6.5224Y-5.8268
M15
G01X6.4791Y-5.8268
M16
G05
G00X6.9024Y-5.1417
M15
G01X6.863Y-5.1417
M16
G05
G00X6.9024Y-5.2402
M15
G01X6.863Y-5.2402
M16
G05
G00X6.9043Y-5.3386
M15
G01X6.861Y-5.3386
M16
G05
G00X6.9142Y-5.6299
M15
G01X6.8748Y-5.6299
M16
G05
G00X6.9142Y-5.7283
M15
G01X6.8748Y-5.7283
M16
G05
G00X6.9161Y-5.8268
M15
G01X6.8728Y-5.8268
M16
G05
G00X7.3079Y-5.6299
M15
G01X7.2685Y-5.6299
M16
G05
G00X7.3079Y-5.7283
M15
G01X7.2685Y-5.7283
M16
G05
G00X7.3098Y-5.8268
M15
G01X7.2665Y-5.8268
M16
G05
G00X7.6898Y-5.1417
M15
G01X7.6504Y-5.1417
M16
G05
G00X7.6898Y-5.2402
M15
G01X7.6504Y-5.2402
M16
G05
G00X7.6917Y-5.3386
M15
G01X7.6484Y-5.3386
M16
G05
G00X7.6906Y-2.1768
M15
G01X7.6512Y-2.1768
M16
G05
G00X7.6906Y-2.2752
M15
G01X7.6512Y-2.2752
M16
G05
G00X7.6925Y-2.3736
M15
G01X7.6492Y-2.3736
M16
G05
G00X7.7016Y-5.6299
M15
G01X7.6622Y-5.6299
M16
G05
G00X7.7016Y-5.7283
M15
G01X7.6622Y-5.7283
M16
G05
G00X7.7035Y-5.8268
M15
G01X7.6602Y-5.8268
M16
G05
M30
